SplineFontDB: 3.0
FontName: Exo-RegularItalic
FullName: Exo Regular Italic
FamilyName: Exo
Weight: Regular
Copyright: Copyright (c) 2011 Natanael Gama (exo@ndiscovered.com), with Reserved Font Name "Exo"
UComments: "2010-2-8: Created." 
Version: 1.00
ItalicAngle: 0
UnderlinePosition: -100
UnderlineWidth: 50
Ascent: 800
Descent: 200
sfntRevision: 0x00010000
LayerCount: 2
Layer: 0 0 "Back"  1
Layer: 1 0 "Fore"  0
XUID: [1021 348 1054973004 88190]
FSType: 8
OS2Version: 0
OS2_WeightWidthSlopeOnly: 0
OS2_UseTypoMetrics: 1
CreationTime: 1265665101
ModificationTime: 1325018090
PfmFamily: 33
TTFWeight: 400
TTFWidth: 5
LineGap: 90
VLineGap: 0
OS2TypoAscent: 0
OS2TypoAOffset: 1
OS2TypoDescent: 0
OS2TypoDOffset: 1
OS2TypoLinegap: 90
OS2WinAscent: 0
OS2WinAOffset: 1
OS2WinDescent: 0
OS2WinDOffset: 1
HheadAscent: 0
HheadAOffset: 1
HheadDescent: 0
HheadDOffset: 1
OS2Vendor: 'PfEd'
Lookup: 4 0 0 "'ordn' Ordinals lookup 21"  {"'ordn' Ordinals lookup 21-1"  } ['ordn' ('DFLT' <'dflt' > 'grek' <'dflt' > 'latn' <'dflt' > ) ]
Lookup: 1 0 0 "'smcp' Lowercase to Small Capitals lookup 16"  {"'smcp' Lowercase to Small Capitals lookup 16-1" ("smcp" ) } ['smcp' ('DFLT' <'dflt' > 'grek' <'dflt' > 'latn' <'FRA ' 'dflt' > ) ]
Lookup: 1 0 0 "'c2sc' Capitals to Small Capitals in Latin lookup 17"  {"'c2sc' Capitals to Small Capitals in Latin lookup 17 subtable" ("smcp" ) } ['c2sc' ('latn' <'dflt' > ) ]
Lookup: 4 0 0 "'dlig' Discretionary Ligatures lookup 14"  {"'dlig' Discretionary Ligatures lookup 14-1"  } ['dlig' ('DFLT' <'dflt' > 'grek' <'dflt' > 'latn' <'dflt' > ) ]
Lookup: 4 0 1 "'liga' Standard Ligatures lookup 15"  {"'liga' Standard Ligatures lookup 15-1"  } ['liga' ('DFLT' <'dflt' > 'grek' <'dflt' > 'latn' <'FRA ' 'dflt' > ) ]
Lookup: 1 0 0 "'frac' Diagonal Fractions lookup 13"  {"'frac' Diagonal Fractions lookup 13-1"  } ['frac' ('DFLT' <'dflt' > 'grek' <'dflt' > 'latn' <'FRA ' 'dflt' > ) ]

StartChar: a
Encoding: 97 97 0
Width: 541
VWidth: 0
Flags: HW
HStem: -7 74<177.772 341.569> 0 21G<436.333 495.923>
VStem: 440 53<0 38.1818>
DStem2: 486 452 563 479 0.144602 0.98949<-351.468 2.0042>
LayerCount: 2
Fore
SplineSet
161 251 m 0
 139 113 165 67 243 67 c 0
 320 67 366 86 434 115 c 1
 486 452 l 1
 426 468 355 476 314 468 c 0
 249 456 192 442 161 251 c 0
90 278 m 0
 126 495 224 531 306 541 c 0
 376 550 512 528 563 479 c 1
 493 0 l 1
 440 0 l 1
 429 60 l 1
 400 41 320 -7 243 -7 c 0
 129 -7 50 37 90 278 c 0
EndSplineSet
AlternateSubs2: "'salt' Access All Alternates in Latin lookup 4-1" a.salt
Substitution2: "'smcp' Lowercase to Small Capitals lookup 16-1" a.smcp
EndChar

StartChar: z
Encoding: 122 122 1
Width: 456
VWidth: 0
Flags: HW
HStem: 1 74<161 427.101> 457 74<114 399>
DStem2: 54 75 161 75 0.670252 0.742134<71.7169 514.732>
LayerCount: 2
Fore
SplineSet
45 1 m 1
 54 75 l 1
 399 457 l 1
 104 457 l 1
 114 531 l 1
 510 531 l 1
 500 457 l 1
 161 75 l 1
 437 75 l 1
 438 74 426 1 426 1 c 1
 45 1 l 1
EndSplineSet
Substitution2: "'smcp' Lowercase to Small Capitals lookup 16-1" z.smcp
EndChar

StartChar: e
Encoding: 101 101 2
Width: 525
VWidth: 0
Flags: HW
HStem: -7 71<166.51 433.545> 467 74<246.536 457.618>
LayerCount: 2
Fore
SplineSet
163 281 m 1
 163 281 447 250 470 388 c 0
 482 459 438 467 349 467 c 0
 190 467 182 372 163 281 c 1
89 278 m 0
 120 441 158 541 353 541 c 0
 479 541 559 504 544 388 c 0
 516 169 192 212 155 227 c 1
 134 103 153 65 224 64 c 1
 300 58 395 67 473 78 c 1
 465 22 l 1
 381 -1 298 -7 215 -7 c 0
 87 -7 53 84 89 278 c 0
EndSplineSet
Substitution2: "'smcp' Lowercase to Small Capitals lookup 16-1" e.smcp
EndChar

StartChar: o
Encoding: 111 111 3
Width: 564
VWidth: 0
Flags: HW
HStem: -5 74<188.54 403.394> 462 74<245.365 458.217>
LayerCount: 2
Fore
SplineSet
163 258 m 0
 134 86 190 69 293 69 c 0
 398 69 453 83 483 258 c 0
 512 429 473 462 356 462 c 0
 244 462 194 442 163 258 c 0
89 258 m 0
 123 475 190 536 364 536 c 0
 532 536 588 445 557 258 c 0
 524 61 467 -5 292 -5 c 0
 120 -5 59 68 89 258 c 0
EndSplineSet
Substitution2: "'smcp' Lowercase to Small Capitals lookup 16-1" o.smcp
EndChar

StartChar: c
Encoding: 99 99 5
Width: 496
VWidth: 0
Flags: HW
HStem: -6 73<176.112 435.842> 464 74<226.762 496.092>
LayerCount: 2
Fore
SplineSet
89 266 m 0
 133 519 213 538 307 538 c 0
 359 538 462 523 530 510 c 1
 522 456 l 1
 522 456 384 464 295 464 c 0
 236 464 198 456 162 262 c 0
 135 113 167 67 232 67 c 0
 324 67 469 78 469 78 c 1
 460 22 l 1
 375 -1 313 -7 230 -6 c 0
 128 -5 54 65 89 266 c 0
EndSplineSet
Substitution2: "'smcp' Lowercase to Small Capitals lookup 16-1" c.smcp
EndChar

StartChar: d
Encoding: 100 100 6
Width: 552
VWidth: 0
Flags: HW
HStem: -6 74<185.09 334.731> 465 74<234.179 444.965> 765 20G<540.783 616>
VStem: 438 53<0 41.3>
DStem2: 437 114 491 0 0.157254 0.987558<-11.6187 330.863 389.802 679.478>
LayerCount: 2
Fore
SplineSet
163 263 m 0
 142 139 168 68 235 68 c 0
 314 68 380 92 437 114 c 1
 488 439 l 1
 422 457 373 465 296 465 c 0
 236 465 190 426 163 263 c 0
89 263 m 0
 112 405 157 539 308 539 c 0
 353 539 438 525 498 499 c 1
 544 785 l 1
 616 785 l 1
 491 0 l 1
 438 0 l 1
 428 59 l 1
 399 40 301 -6 233 -6 c 0
 93 -6 69 141 89 263 c 0
EndSplineSet
AlternateSubs2: "'salt' Access All Alternates in Latin lookup 4-1" d.salt
Substitution2: "'smcp' Lowercase to Small Capitals lookup 16-1" d.smcp
EndChar

StartChar: A
Encoding: 65 65 7
Width: 660
VWidth: 0
Flags: HW
HStem: 0 21G<45 136.588 566.176 645> 204 74<273 517> 712 20G<419.481 507.852>
DStem2: 45 0 126 0 0.465497 0.885049<37.7053 268.529 352.177 746.199> 504 732 454 628 0.189146 -0.981949<92.6654 448.264 523.576 731.27>
LayerCount: 2
Fore
SplineSet
273 278 m 1
 517 278 l 1
 454 628 l 1
 273 278 l 1
45 0 m 1
 430 732 l 1
 504 732 l 1
 645 0 l 1
 570 0 l 1
 531 204 l 1
 234 204 l 1
 126 0 l 1
 45 0 l 1
EndSplineSet
Substitution2: "'c2sc' Capitals to Small Capitals in Latin lookup 17 subtable" a.smcp
EndChar

StartChar: p
Encoding: 112 112 8
Width: 559
VWidth: 0
Flags: HW
HStem: 460 74<212 451.415>
DStem2: 17 -270 90 -270 0.165814 0.986157<12.1044 315.09 374.052 752.228>
LayerCount: 2
Fore
SplineSet
150 90 m 1
 195 75 268 55 342 68 c 0
 393 77 452 94 479 263 c 0
 503 413 461 460 399 460 c 2
 212 460 l 1
 150 90 l 1
17 -270 m 1
 150 521 l 1
 235 531 325 534 403 534 c 0
 568 534 568 370 553 253 c 0
 535 117 472 -8 337 -8 c 0
 292 -8 199 3 139 29 c 1
 90 -270 l 1
 17 -270 l 1
EndSplineSet
AlternateSubs2: "'salt' Access All Alternates in Latin lookup 4-1" p.salt
Substitution2: "'smcp' Lowercase to Small Capitals lookup 16-1" p.smcp
EndChar

StartChar: b
Encoding: 98 98 9
Width: 554
VWidth: 0
Flags: HW
HStem: 0 21G<60 122.831> 465 74<268.022 459.746> 765 20G<180.841 256>
DStem2: 60 0 151 114 0.156027 0.987753<121.657 463.752 516.449 794.733>
LayerCount: 2
Fore
SplineSet
151 114 m 1
 202 92 261 68 340 68 c 0
 415 68 453 137 472 263 c 0
 490 386 491 465 402 465 c 0
 325 465 275 457 203 439 c 1
 151 114 l 1
60 0 m 1
 184 785 l 1
 256 785 l 1
 211 499 l 1
 279 525 363 539 408 539 c 0
 566 539 566 382 546 263 c 0
 525 142 491 -16 328 -6 c 0
 260 -2 165 40 142 59 c 1
 113 0 l 1
 60 0 l 1
EndSplineSet
AlternateSubs2: "'salt' Access All Alternates in Latin lookup 4-1" b.salt
Substitution2: "'smcp' Lowercase to Small Capitals lookup 16-1" b.smcp
EndChar

StartChar: q
Encoding: 113 113 10
Width: 553
VWidth: 0
Flags: HW
HStem: -10 74<177.974 372.6> 463 74<246.839 489.634>
DStem2: 377 -270 451 -270 0.156221 0.987722<11.5604 302.671 354.531 742.122>
LayerCount: 2
Fore
SplineSet
165 268 m 0
 150 156 135 64 243 64 c 0
 317 64 348 68 434 89 c 1
 493 463 l 1
 306 463 l 2
 206 463 174 331 165 268 c 0
91 268 m 0
 118 436 190 537 318 537 c 0
 424 537 529 518 575 514 c 1
 451 -270 l 1
 377 -270 l 1
 424 29 l 1
 356 3 285 -10 240 -10 c 0
 87 -10 66 110 91 268 c 0
EndSplineSet
Substitution2: "'smcp' Lowercase to Small Capitals lookup 16-1" q.smcp
EndChar

StartChar: n
Encoding: 110 110 11
Width: 544
VWidth: 0
Flags: HW
HStem: 0 21G<60 137.178 420 497.189> 466 74<309.154 462.151> 511 20G<140.836 199.871>
VStem: 144 55<503.444 531>
DStem2: 420 0 494 0 0.15747 0.987524<11.6528 438.112>
LayerCount: 2
Fore
SplineSet
60 0 m 1
 144 531 l 1
 196 531 l 1
 208 469 l 1
 275 504 335 540 416 540 c 0
 522 540 567 458 553 370 c 2
 494 0 l 1
 420 0 l 1
 479 370 l 2
 489 436 455 466 404 466 c 0
 324 466 282 446 199 409 c 1
 134 0 l 1
 60 0 l 1
EndSplineSet
AlternateSubs2: "'salt' Access All Alternates in Latin lookup 4-1" n.salt
Substitution2: "'smcp' Lowercase to Small Capitals lookup 16-1" n.smcp
EndChar

StartChar: i
Encoding: 105 105 12
Width: 195
VWidth: 0
Flags: HW
HStem: 0 21G<60 137.164> 511 20G<140.836 218> 593 102<154.755 242.543>
VStem: 60 191
LayerCount: 2
Fore
SplineSet
146 616 m 2
 154 670 l 2
 156 685 166 695 182 695 c 2
 232 695 l 2
 247 695 253 684 251 670 c 2
 243 616 l 2
 241 601 230 593 216 593 c 2
 166 593 l 2
 152 593 144 602 146 616 c 2
60 0 m 1
 144 531 l 1
 218 531 l 1
 134 0 l 1
 60 0 l 1
EndSplineSet
Substitution2: "'smcp' Lowercase to Small Capitals lookup 16-1" i.smcp
EndChar

StartChar: h
Encoding: 104 104 13
Width: 544
VWidth: 0
Flags: HW
HStem: 0 21G<60 137.178 420 497.189> 466 74<309.154 462.345> 764 20G<180.837 258>
DStem2: 60 0 134 0 0.156221 0.987722<11.5604 439.014 486.362 793.746> 420 0 494 0 0.15747 0.987524<11.6528 438.112>
LayerCount: 2
Fore
SplineSet
60 0 m 1
 184 784 l 1
 258 784 l 1
 208 469 l 1
 275 504 335 540 416 540 c 0
 522 540 567 458 553 370 c 2
 494 0 l 1
 420 0 l 1
 479 370 l 2
 489 436 456 466 404 466 c 0
 324 466 282 446 199 409 c 1
 134 0 l 1
 60 0 l 1
EndSplineSet
Substitution2: "'smcp' Lowercase to Small Capitals lookup 16-1" h.smcp
EndChar

StartChar: u
Encoding: 117 117 14
Width: 543
VWidth: 0
Flags: HW
HStem: -9 74<163.132 319.608> 0 21G<428.129 487.164> 511 20G<130.865 208 490.87 568>
VStem: 432 52<0 36.1667>
DStem2: 76 161 150 161 0.154866 0.987936<-58.2599 374.518> 430 122 484 0 0.156249 0.987718<-13.322 413.976>
LayerCount: 2
Fore
SplineSet
76 161 m 2
 134 531 l 1
 208 531 l 1
 150 161 l 2
 138 85 174 65 225 65 c 0
 305 65 347 85 430 122 c 1
 494 531 l 1
 568 531 l 1
 484 0 l 1
 432 0 l 1
 420 62 l 1
 353 27 294 -9 213 -9 c 0
 107 -9 61 66 76 161 c 2
EndSplineSet
AlternateSubs2: "'salt' Access All Alternates in Latin lookup 4-1" u.salt
Substitution2: "'smcp' Lowercase to Small Capitals lookup 16-1" u.smcp
EndChar

StartChar: r
Encoding: 114 114 15
Width: 427
VWidth: 0
Flags: HW
HStem: 0 21G<60 137.168> 462 75<312.098 479.967>
VStem: 144 54<493.778 531>
LayerCount: 2
Fore
SplineSet
60 0 m 1
 144 531 l 1
 196 531 l 1
 207 464 l 1
 274 499 335 537 417 537 c 0
 446 537 479 535 490 529 c 1
 478 456 l 1
 466 459 434 462 405 462 c 0
 325 462 281 441 198 404 c 1
 134 0 l 1
 60 0 l 1
EndSplineSet
AlternateSubs2: "'salt' Access All Alternates in Latin lookup 4-1" r.salt
Substitution2: "'smcp' Lowercase to Small Capitals lookup 16-1" r.smcp
EndChar

StartChar: m
Encoding: 109 109 16
Width: 898
VWidth: 0
Flags: HW
HStem: 0 21G<60 137.145 414 491.187 774 851.169> 463 74<302.792 451.289 653.571 811.385>
VStem: 144 54<499 531>
DStem2: 414 0 488 0 0.155339 0.987861<11.4951 430.847> 774 0 848 0 0.156517 0.987675<11.5822 431.205>
LayerCount: 2
Fore
SplineSet
60 0 m 1
 144 531 l 1
 196 531 l 1
 208 467 l 1
 275 502 325 537 408 537 c 0
 468 537 522 500 537 451 c 1
 596 494 672 537 769 537 c 0
 854 537 922 468 906 366 c 2
 848 0 l 1
 774 0 l 1
 832 366 l 2
 841 425 805 463 757 463 c 0
 674 463 625 450 552 407 c 1
 546 364 l 1
 488 0 l 1
 414 0 l 1
 472 366 l 2
 481 425 444 463 396 463 c 0
 316 463 281 444 198 407 c 1
 134 0 l 1
 60 0 l 1
EndSplineSet
AlternateSubs2: "'salt' Access All Alternates in Latin lookup 4-1" m.salt
Substitution2: "'smcp' Lowercase to Small Capitals lookup 16-1" m.smcp
EndChar

StartChar: f
Encoding: 102 102 17
Width: 403
VWidth: 0
Flags: HW
HStem: 0 21G<116 193.326> 457 74<279 432> 457 55<101 139.316> 712 73<323.065 496> 712 49<410.635 496>
DStem2: 116 0 190 0 0.165245 0.986253<12.2281 463.111 550.635 721.204>
LayerCount: 2
Fore
SplineSet
92 457 m 1
 101 512 l 1
 205 531 l 1
 211 567 l 1
 236 724 268 785 384 785 c 0
 424 785 487 766 503 761 c 1
 496 712 l 1
 384 712 l 2
 315 712 302 681 285 567 c 1
 279 531 l 1
 444 531 l 1
 432 457 l 1
 266 457 l 1
 190 0 l 1
 116 0 l 1
 191 457 l 1
 92 457 l 1
EndSplineSet
AlternateSubs2: "'salt' Access All Alternates in Latin lookup 4-1" f.salt
Substitution2: "'smcp' Lowercase to Small Capitals lookup 16-1" f.smcp
EndChar

StartChar: l
Encoding: 108 108 18
Width: 290
VWidth: 0
Flags: HW
HStem: 0 56<189.016 270> 763 20G<179.835 257>
DStem2: 89 189 163 189 0.156304 0.987709<-83.5685 601.392>
LayerCount: 2
Fore
SplineSet
89 189 m 2
 183 783 l 1
 257 783 l 1
 163 189 l 2
 147 90 165 83 204 74 c 2
 204 74 278 56 279 56 c 2
 270 0 l 1
 202 0 l 2
 107 0 69 60 89 189 c 2
EndSplineSet
Substitution2: "'smcp' Lowercase to Small Capitals lookup 16-1" l.smcp
EndChar

StartChar: j
Encoding: 106 106 19
Width: 217
VWidth: 0
Flags: HW
HStem: 511 20G<151.829 229> 593 102<166.7 253.578>
VStem: 28 235
DStem2: 28 -270 144 -4 0.145252 0.989395<42.8145 810.952>
LayerCount: 2
Fore
SplineSet
157 616 m 2
 166 670 l 2
 168 685 178 695 194 695 c 2
 244 695 l 2
 259 695 265 684 263 670 c 2
 254 616 l 2
 252 601 241 593 227 593 c 2
 177 593 l 2
 163 593 155 602 157 616 c 2
28 -270 m 1
 155 531 l 1
 229 531 l 1
 144 -4 l 2
 131 -90 113 -178 76 -270 c 1
 28 -270 l 1
EndSplineSet
Substitution2: "'smcp' Lowercase to Small Capitals lookup 16-1" j.smcp
EndChar

StartChar: t
Encoding: 116 116 20
Width: 378
VWidth: 0
Flags: HW
HStem: 0 56<249.755 331> 458 74<277 420> 458 56<101 140.667>
VStem: 244 56<654.732 680>
DStem2: 149 189 223 189 0.154929 0.987926<-84.0171 272.259>
LayerCount: 2
Fore
SplineSet
92 458 m 1
 101 514 l 1
 203 532 l 1
 244 680 l 1
 300 680 l 1
 277 532 l 1
 432 532 l 1
 420 458 l 1
 265 458 l 1
 223 189 l 2
 208 90 225 83 264 74 c 2
 264 74 338 56 339 56 c 2
 331 0 l 1
 263 0 l 2
 166 0 129 59 149 189 c 2
 191 458 l 1
 92 458 l 1
EndSplineSet
AlternateSubs2: "'salt' Access All Alternates in Latin lookup 4-1" t.salt
Substitution2: "'smcp' Lowercase to Small Capitals lookup 16-1" t.smcp
EndChar

StartChar: s
Encoding: 115 115 21
Width: 508
VWidth: 0
Flags: HW
HStem: -10 74<94.7524 396.904> 9 55<73 281.791> 227 74<173.349 416.904> 468 73<194.215 502.771> 468 57<302.841 514>
DStem2: 97 358 171 358 0.154968 0.98792<-38.1869 116.346> 411 118 485 109 0.141421 0.989949<-47.7779 101.351>
LayerCount: 2
Fore
SplineSet
64 9 m 1
 73 64 l 1
 347 64 l 1
 347 64 401 58 411 118 c 2
 420 172 l 2
 426 207 417 227 373 227 c 2
 225 227 l 2
 131 227 81 258 97 358 c 2
 105 409 l 2
 119 495 161 541 264 541 c 0
 316 541 472 530 523 525 c 1
 514 468 l 1
 253 468 l 2
 189 468 182 429 179 409 c 2
 171 358 l 2
 160 291 198 301 226 301 c 2
 376 301 l 2
 463 301 506 247 494 172 c 1
 485 109 l 1
 468 0 391 -10 335 -10 c 0
 286 -10 101 5 64 9 c 1
EndSplineSet
Substitution2: "'smcp' Lowercase to Small Capitals lookup 16-1" s.smcp
EndChar

StartChar: k
Encoding: 107 107 22
Width: 490
VWidth: 0
Flags: HW
HStem: 0 21G<60 137.221 387.119 491> 511 20G<432 523> 762 20G<180.829 258>
VStem: 440 83<489.517 531>
DStem2: 60 0 134 0 0.156611 0.98766<11.5892 282.029 331.52 791.77> 290 288 215 268 0.572315 -0.820034<0 299.697>
LayerCount: 2
Fore
SplineSet
60 0 m 1
 184 782 l 1
 258 782 l 1
 184 316 l 1
 272 342 424 456 440 531 c 1
 523 531 l 1
 492 424 358 318 290 288 c 1
 491 0 l 1
 401 0 l 1
 215 268 l 1
 177 267 l 1
 134 0 l 1
 60 0 l 1
EndSplineSet
Substitution2: "'smcp' Lowercase to Small Capitals lookup 16-1" k.smcp
EndChar

StartChar: g
Encoding: 103 103 23
Width: 553
VWidth: 0
Flags: HW
HStem: -248 49<45 111.083> -9 73<182.086 373.817> 463 74<247.482 491.087>
DStem2: 403 -104 477 -104 0.156619 0.987659<-71.2035 134.648 187.751 574.098>
LayerCount: 2
Fore
SplineSet
165 268 m 0
 155 197 128 64 242 64 c 0
 316 64 347 68 433 89 c 1
 493 463 l 1
 311 463 l 2
 204 463 172 313 165 268 c 0
37 -248 m 1
 45 -199 l 1
 303 -199 l 2
 350 -199 393 -168 403 -104 c 2
 424 29 l 1
 356 3 288 -9 243 -9 c 0
 83 -9 66 117 91 275 c 0
 118 443 199 537 311 537 c 0
 417 537 529 518 575 514 c 1
 477 -104 l 2
 457 -228 372 -280 291 -272 c 2
 37 -248 l 1
EndSplineSet
AlternateSubs2: "'salt' Access All Alternates in Latin lookup 4-1" g.salt
Substitution2: "'smcp' Lowercase to Small Capitals lookup 16-1" g.smcp
EndChar

StartChar: v
Encoding: 118 118 24
Width: 515
VWidth: 0
Flags: HW
HStem: 0 21G<214.292 322.433> 511 20G<94 175.727 484 551.5>
DStem2: 171 531 94 531 0.229142 -0.973393<0 452.124> 275 91 312 0 0.462497 0.886621<0 486.508>
LayerCount: 2
Fore
SplineSet
94 531 m 1
 171 531 l 1
 275 91 l 1
 461 451 l 2
 474 478 481 494 487 531 c 1
 546 531 l 1
 557 498 556 470 541 439 c 1
 312 0 l 1
 219 0 l 1
 94 531 l 1
EndSplineSet
Substitution2: "'smcp' Lowercase to Small Capitals lookup 16-1" v.smcp
EndChar

StartChar: w
Encoding: 119 119 25
Width: 798
VWidth: 0
Flags: HW
HStem: 0 21G<214.292 311.5 501.857 590.253> 511 20G<94 172.644 773 836.5>
VStem: 482 49<456.506 526.457>
DStem2: 168 531 94 531 0.229142 -0.973393<0 446.569> 269 96 301 0 0.469155 0.883116<0 246.472> 502 371 448 280 0.202837 -0.979213<78.1551 274.361> 556 102 579 0 0.490355 0.871522<0 480.125>
LayerCount: 2
Fore
SplineSet
94 531 m 1
 168 531 l 1
 269 96 l 1
 456 448 l 1
 469 475 476 491 482 528 c 1
 536 528 l 1
 547 495 546 467 531 436 c 1
 502 371 l 1
 556 102 l 1
 750 451 l 1
 763 478 770 494 776 531 c 1
 831 531 l 1
 842 498 843 469 826 439 c 2
 579 0 l 1
 506 0 l 1
 448 280 l 1
 301 0 l 1
 219 0 l 1
 94 531 l 1
EndSplineSet
Substitution2: "'smcp' Lowercase to Small Capitals lookup 16-1" w.smcp
EndChar

StartChar: y
Encoding: 121 121 26
Width: 549
VWidth: 0
Flags: HW
HStem: -269 53<98 123.168> 511 20G<94 174.084>
DStem2: 171 531 94 531 0.147996 -0.988988<0 455.994> 265 0 352 1 0.454279 0.890859<-187.811 0 75.4853 589.465>
LayerCount: 2
Fore
SplineSet
94 531 m 1
 171 531 l 1
 235 116 l 2
 243 67 303 77 303 77 c 1
 496 453 l 2
 510 480 515 496 521 533 c 1
 582 533 l 1
 593 500 589 468 573 437 c 2
 352 1 l 2
 272 -155 209 -247 98 -269 c 1
 98 -216 l 1
 179 -163 228 -71 265 0 c 1
 240 0 172 10 157 110 c 2
 94 531 l 1
EndSplineSet
Substitution2: "'smcp' Lowercase to Small Capitals lookup 16-1" y.smcp
EndChar

StartChar: x
Encoding: 120 120 27
Width: 524
VWidth: 0
Flags: HW
HStem: 0 21G<24 141.3 400.5 497> 511 20G<108 204.471 471.451 584>
DStem2: 24 0 124 0 0.658805 0.752313<65.8805 330.317 434.425 705.823> 193 531 108 531 0.496843 -0.867841<0 235.17 338.927 569.632>
LayerCount: 2
Fore
SplineSet
24 0 m 1
 259 268 l 1
 108 531 l 1
 193 531 l 1
 310 327 l 1
 489 531 l 1
 584 531 l 1
 349 259 l 1
 497 0 l 1
 412 0 l 1
 297 200 l 1
 124 0 l 1
 24 0 l 1
EndSplineSet
AlternateSubs2: "'salt' Access All Alternates in Latin lookup 4-1" x.salt
Substitution2: "'smcp' Lowercase to Small Capitals lookup 16-1" x.smcp
EndChar

StartChar: V
Encoding: 86 86 28
Width: 670
VWidth: 0
Flags: HW
HStem: 0 21G<287.148 375.519> 712 20G<150 231.785 654.527 750>
DStem2: 228 732 150 732 0.189146 -0.981949<0 623.876> 344 119 365 0 0.465497 0.885049<0 691.96>
LayerCount: 2
Fore
SplineSet
150 732 m 1
 228 732 l 1
 344 119 l 1
 665 732 l 1
 750 732 l 1
 365 0 l 1
 291 0 l 1
 150 732 l 1
EndSplineSet
Substitution2: "'c2sc' Capitals to Small Capitals in Latin lookup 17 subtable" v.smcp
EndChar

StartChar: W
Encoding: 87 87 29
Width: 1002
VWidth: 0
Flags: HW
HStem: 0 21G<287.148 375.535 619.738 707.519> 712 20G<150 228.83 654.427 749 990.53 1082>
DStem2: 225 732 150 732 0.189146 -0.981949<0 622.101> 342 121 365 0 0.464549 0.885547<0 326.244 446.592 691.119> 619 480 562 374 0.160975 -0.986959<95.4421 369.737> 678 115 697 0 0.465497 0.885049<0 696.431>
LayerCount: 2
Fore
SplineSet
150 732 m 1
 225 732 l 1
 342 121 l 1
 665 732 l 1
 749 732 l 1
 619 480 l 1
 678 115 l 1
 1001 732 l 1
 1082 732 l 1
 697 0 l 1
 623 0 l 1
 562 374 l 1
 365 0 l 1
 291 0 l 1
 150 732 l 1
EndSplineSet
Substitution2: "'c2sc' Capitals to Small Capitals in Latin lookup 17 subtable" w.smcp
EndChar

StartChar: C
Encoding: 67 67 30
Width: 578
VWidth: 0
Flags: HW
HStem: -6 74<245.692 538.96> 666 74<317.668 609.132>
LayerCount: 2
Fore
SplineSet
115 368 m 0
 154 602 217 740 416 740 c 0
 468 740 588 723 656 710 c 1
 647 651 l 1
 625 654 502 668 407 666 c 0
 352 665 237 670 189 366 c 1
 161 204 189 77 306 68 c 0
 350 65 417 66 559 76 c 1
 551 17 l 1
 466 -6 367 -6 302 -6 c 0
 113 -6 87 198 115 368 c 0
EndSplineSet
Substitution2: "'c2sc' Capitals to Small Capitals in Latin lookup 17 subtable" c.smcp
EndChar

StartChar: D
Encoding: 68 68 31
Width: 668
VWidth: 0
Flags: HW
HStem: 0 77<166 447.811> 658 74<258 540.51>
DStem2: 80 0 166 77 0.156726 0.987642<89.5269 677.766>
LayerCount: 2
Fore
SplineSet
166 77 m 1
 365 77 l 2
 495 77 573 215 597 364 c 0
 629 566 583 658 457 658 c 2
 258 658 l 1
 166 77 l 1
80 0 m 1
 196 731 l 2
 196 732 409 732 469 732 c 0
 694 732 693 485 671 363 c 0
 634 150 542 0 353 0 c 2
 80 0 l 1
EndSplineSet
Substitution2: "'c2sc' Capitals to Small Capitals in Latin lookup 17 subtable" d.smcp
EndChar

StartChar: O
Encoding: 79 79 32
Width: 667
VWidth: 0
Flags: HW
HStem: -4 74<229.318 475.03> 663 74<310.127 571.177>
LayerCount: 2
Fore
SplineSet
189 361 m 0
 148 104 202 70 352 70 c 0
 494 70 568 112 607 361 c 0
 654 660 570 663 446 663 c 0
 313 663 236 660 189 361 c 0
115 361 m 0
 169 704 273 737 448 737 c 0
 622 737 731 692 681 361 c 0
 632 38 523 -4 350 -4 c 0
 188 -4 62 28 115 361 c 0
EndSplineSet
Substitution2: "'c2sc' Capitals to Small Capitals in Latin lookup 17 subtable" o.smcp
EndChar

StartChar: S
Encoding: 83 83 33
Width: 571
VWidth: 0
Flags: HW
HStem: -8 74<92.8931 433.346> 322 74<213.832 483.127> 664 74<255.623 595.737>
DStem2: 132 494 206 494 0.149805 0.988716<-65.5739 159.504> 478 156 552 156 0.159689 0.987167<-62.5184 145.394>
LayerCount: 2
Fore
SplineSet
79 16 m 1
 88 76 l 1
 131 70 242 66 335 66 c 0
 376 66 465 71 478 156 c 2
 489 224 l 2
 498 281 497 322 421 322 c 2
 282 322 l 2
 125 322 120 419 132 494 c 2
 142 560 l 1
 167 716 260 742 368 738 c 0
 421 736 559 722 613 714 c 1
 604 655 l 1
 554 655 356 664 356 664 c 1
 280 668 231 656 216 560 c 2
 206 494 l 2
 189 387 241 396 294 396 c 2
 433 396 l 2
 556 396 576 306 563 224 c 2
 552 156 l 2
 528 4 405 -8 323 -8 c 0
 247 -8 114 9 79 16 c 1
EndSplineSet
Substitution2: "'c2sc' Capitals to Small Capitals in Latin lookup 17 subtable" s.smcp
EndChar

StartChar: G
Encoding: 71 71 34
Width: 609
VWidth: 0
Flags: HW
HStem: -7 74<249.439 416.552> 0 21G<504.491 568.161> 314 75<392.191 541> 314 50<380 493.182> 665 74<320.576 607.63>
VStem: 508 57<0 39.9>
LayerCount: 2
Fore
SplineSet
117 367 m 0
 156 601 220 739 419 739 c 1
 468 740 582 723 650 710 c 1
 642 651 l 1
 582 660 456 664 410 665 c 0
 351 666 239 670 194 365 c 1
 168 202 196 66 313 67 c 0
 391 67 507 122 507 122 c 1
 541 314 l 1
 372 314 l 1
 380 364 l 1
 422 375 478 389 559 389 c 0
 580 389 602 388 626 386 c 1
 565 0 l 1
 508 0 l 1
 498 57 l 1
 466 28 381 -7 305 -7 c 0
 119 -6 89 197 117 367 c 0
EndSplineSet
Substitution2: "'c2sc' Capitals to Small Capitals in Latin lookup 17 subtable" g.smcp
EndChar

StartChar: Q
Encoding: 81 81 35
Width: 671
VWidth: 0
Flags: HW
HStem: -4 74<233.318 479.03> 663 74<314.127 575.177>
LayerCount: 2
Fore
SplineSet
309 -33 m 1
 361 -33 l 1
 416 -77 465 -74 526 -53 c 1
 513 -133 l 1
 437 -160 309 -133 309 -33 c 1
193 361 m 0
 152 104 206 70 356 70 c 0
 498 70 572 112 611 361 c 0
 658 660 574 663 450 663 c 0
 317 663 240 660 193 361 c 0
119 361 m 0
 173 704 277 737 452 737 c 0
 626 737 735 692 685 361 c 0
 636 38 527 -4 354 -4 c 0
 192 -4 66 28 119 361 c 0
EndSplineSet
Substitution2: "'c2sc' Capitals to Small Capitals in Latin lookup 17 subtable" q.smcp
EndChar

StartChar: M
Encoding: 77 77 36
Width: 802
VWidth: 0
Flags: HW
HStem: 0 21G<71 149.515 375.689 464.516 688 763.639> 712 20G<230.519 334.35 711.542 822>
DStem2: 71 0 145 0 0.218624 0.975809<16.1782 629.226> 331 732 280 598 0.165187 -0.986262<123.735 617.483> 433 123 455 0 0.427512 0.90401<0 561.555> 688 0 762 0 0.0816932 0.996658<6.0453 601.246>
LayerCount: 2
Fore
SplineSet
71 0 m 1
 235 732 l 1
 331 732 l 1
 433 123 l 1
 721 732 l 1
 822 732 l 1
 762 0 l 1
 688 0 l 1
 740 599 l 1
 455 0 l 1
 379 0 l 1
 280 598 l 1
 145 0 l 1
 71 0 l 1
EndSplineSet
AlternateSubs2: "'salt' Access All Alternates in Latin lookup 4-1" M.salt
Substitution2: "'c2sc' Capitals to Small Capitals in Latin lookup 17 subtable" m.smcp
EndChar

StartChar: I
Encoding: 73 73 37
Width: 225
VWidth: 0
Flags: HW
HStem: 0 21G<90 167.169> 712 20G<202.831 280>
VStem: 90 190
DStem2: 90 0 164 0 0.156517 0.987675<11.5822 741.134>
LayerCount: 2
Fore
SplineSet
90 0 m 1
 206 732 l 1
 280 732 l 1
 164 0 l 1
 90 0 l 1
EndSplineSet
Substitution2: "'c2sc' Capitals to Small Capitals in Latin lookup 17 subtable" i.smcp
EndChar

StartChar: J
Encoding: 74 74 38
Width: 360
VWidth: 0
Flags: HW
HStem: 21 54<51 90.2588> 712 20G<337.825 415>
DStem2: 251 165 325 165 0.156768 0.987636<-80.1479 574.098>
LayerCount: 2
Fore
SplineSet
38 21 m 1
 51 75 l 1
 122 57 230 31 251 165 c 2
 341 732 l 1
 415 732 l 1
 325 165 l 2
 318 118 305 50 250 18 c 0
 192 -16 85 -13 38 21 c 1
EndSplineSet
Substitution2: "'c2sc' Capitals to Small Capitals in Latin lookup 17 subtable" j.smcp
EndChar

StartChar: H
Encoding: 72 72 39
Width: 644
VWidth: 0
Flags: HW
HStem: 0 21G<85 162.218 509 586.169> 317 74<220 560> 712 20G<197.831 275 621.774 699>
DStem2: 85 0 159 0 0.156517 0.987675<11.5822 332.658 407.311 741.134> 509 0 583 0 0.156517 0.987675<11.5822 321.075 395.729 741.134>
LayerCount: 2
Fore
SplineSet
85 0 m 1
 201 732 l 1
 275 732 l 1
 220 391 l 1
 570 391 l 1
 625 732 l 1
 699 732 l 1
 583 0 l 1
 509 0 l 1
 560 317 l 1
 210 317 l 1
 159 0 l 1
 85 0 l 1
EndSplineSet
Substitution2: "'c2sc' Capitals to Small Capitals in Latin lookup 17 subtable" h.smcp
EndChar

StartChar: E
Encoding: 69 69 40
Width: 567
VWidth: 0
Flags: HW
HStem: 14 57<396.353 524> 323 79<216 435> 333 59<314.4 534> 658 58<497.625 626>
DStem2: 98 123 172 123 0.156704 0.987646<-28.7677 214.14 294.044 549.424>
LayerCount: 2
Fore
SplineSet
98 123 m 2
 174 602 l 2
 190 700 245 736 321 732 c 2
 635 716 l 1
 626 658 l 1
 309 658 l 2
 261 658 252 629 248 602 c 2
 216 402 l 1
 544 392 l 1
 534 333 l 1
 204 323 l 1
 172 123 l 1
 165 70 198 71 227 71 c 2
 534 71 l 1
 524 14 l 1
 214 -3 l 2
 148 -7 83 29 98 123 c 2
EndSplineSet
Substitution2: "'c2sc' Capitals to Small Capitals in Latin lookup 17 subtable" e.smcp
EndChar

StartChar: L
Encoding: 76 76 41
Width: 535
VWidth: 0
Flags: HW
HStem: 0 74<175.18 523> 712 20G<193.766 270>
DStem2: 99 126 173 126 0.159642 0.987175<-28.6394 613.873>
LayerCount: 2
Fore
SplineSet
99 126 m 2
 197 732 l 1
 270 732 l 1
 173 126 l 2
 165 73 199 74 228 74 c 2
 534 74 l 1
 523 0 l 1
 215 0 l 2
 148 0 84 32 99 126 c 2
EndSplineSet
Substitution2: "'c2sc' Capitals to Small Capitals in Latin lookup 17 subtable" l.smcp
EndChar

StartChar: F
Encoding: 70 70 42
Width: 568
VWidth: 0
Flags: HW
HStem: 0 21G<80 157.158> 323 79<218 436.7> 333 59<316.1 536> 658 58<498.625 627>
DStem2: 80 0 154 0 0.155878 0.987776<11.535 338.537 418.597 673.875>
LayerCount: 2
Fore
SplineSet
80 0 m 1
 175 602 l 2
 191 700 246 736 322 732 c 2
 636 716 l 1
 627 658 l 1
 310 658 l 2
 262 658 253 629 249 602 c 2
 218 402 l 1
 545 392 l 1
 536 333 l 1
 205 323 l 1
 154 0 l 1
 80 0 l 1
EndSplineSet
Substitution2: "'c2sc' Capitals to Small Capitals in Latin lookup 17 subtable" f.smcp
EndChar

StartChar: K
Encoding: 75 75 43
Width: 572
VWidth: 0
Flags: HW
HStem: 0 21G<80 158.152 456.758 556> 330 74<218 298> 712 20G<192.831 270 563.232 672>
DStem2: 80 0 155 0 0.156517 0.987675<11.7388 345.81 420.62 741.134> 368 362 298 330 0.46089 -0.887457<0 366.888> 305 404 368 362 0.634829 0.772653<7.54277 428.008>
LayerCount: 2
Fore
SplineSet
80 0 m 1
 196 732 l 1
 270 732 l 1
 218 404 l 1
 305 404 l 1
 580 732 l 1
 672 732 l 1
 368 362 l 1
 556 0 l 1
 467 0 l 1
 298 330 l 1
 207 330 l 1
 155 0 l 1
 80 0 l 1
EndSplineSet
Substitution2: "'c2sc' Capitals to Small Capitals in Latin lookup 17 subtable" k.smcp
EndChar

StartChar: T
Encoding: 84 84 44
Width: 579
VWidth: 0
Flags: HW
HStem: 0 21G<249 326.161> 658 74<151 353 427 647>
DStem2: 249 0 323 0 0.156117 0.987739<11.5526 666.168>
LayerCount: 2
Fore
SplineSet
139 658 m 1
 151 732 l 1
 659 732 l 1
 647 658 l 1
 427 658 l 1
 323 0 l 1
 249 0 l 1
 353 658 l 1
 139 658 l 1
EndSplineSet
Substitution2: "'c2sc' Capitals to Small Capitals in Latin lookup 17 subtable" t.smcp
EndChar

StartChar: P
Encoding: 80 80 45
Width: 595
VWidth: 0
Flags: HW
HStem: 0 21G<75 152.238> 298 74<209.635 508.147> 315 57<208 422.459> 657 75<253 547.846>
DStem2: 75 0 149 0 0.156517 0.987675<11.5822 331.094 388.232 676.763>
LayerCount: 2
Fore
SplineSet
208 372 m 1
 439 372 l 2
 491 372 543 387 564 520 c 1
 583 651 524 657 485 657 c 2
 253 657 l 1
 208 372 l 1
75 0 m 1
 191 732 l 1
 497 732 l 2
 576 732 661 684 639 520 c 0
 608 295 503 298 429 298 c 0
 389 298 205 312 200 315 c 1
 149 0 l 1
 75 0 l 1
EndSplineSet
Substitution2: "'c2sc' Capitals to Small Capitals in Latin lookup 17 subtable" p.smcp
EndChar

StartChar: R
Encoding: 82 82 46
Width: 610
VWidth: 0
Flags: HW
HStem: 0 21G<75 152.182 496.265 584> 308 64<209 301> 657 75<254 548.387>
DStem2: 75 0 149 0 0.156517 0.987675<11.5822 323.456 388.388 676.919> 478 302 404 294 0.331185 -0.943566<0 293.236>
LayerCount: 2
Fore
SplineSet
209 372 m 1
 441 372 l 2
 496 372 553 404 562 512 c 0
 573 644 543 657 491 657 c 2
 254 657 l 1
 209 372 l 1
75 0 m 1
 191 732 l 1
 503 732 l 2
 588 732 654 679 637 512 c 0
 618 320 507 306 478 302 c 1
 584 0 l 1
 503 0 l 1
 404 294 l 1
 198 308 l 1
 149 0 l 1
 75 0 l 1
EndSplineSet
Substitution2: "'c2sc' Capitals to Small Capitals in Latin lookup 17 subtable" r.smcp
EndChar

StartChar: U
Encoding: 85 85 47
Width: 656
VWidth: 0
Flags: HW
HStem: -5 74<242.067 453.486> 712 20G<191.837 270 633.837 712>
DStem2: 127 302 202 302 0.156198 0.987726<-133.035 435.344> 569 302 644 302 0.156198 0.987726<-146.371 435.344>
LayerCount: 2
Fore
SplineSet
127 302 m 2
 195 732 l 1
 270 732 l 1
 202 302 l 2
 172 112 224 69 344 69 c 0
 474 69 541 124 569 302 c 2
 637 732 l 1
 712 732 l 1
 644 302 l 2
 621 159 581 -5 338 -5 c 0
 174 -5 92 81 127 302 c 2
EndSplineSet
Substitution2: "'c2sc' Capitals to Small Capitals in Latin lookup 17 subtable" u.smcp
EndChar

StartChar: B
Encoding: 66 66 48
Width: 597
VWidth: 0
Flags: HW
HStem: 0 74<167 455.875> 347 74<222 483.726> 658 74<260 543.995>
DStem2: 80 0 167 74 0.156517 0.987675<86.7049 363.071 438.037 678.063>
LayerCount: 2
Fore
SplineSet
222 421 m 1
 430 421 l 2
 505 421 552 460 565 542 c 0
 580 639 533 658 469 658 c 2
 260 658 l 1
 222 421 l 1
167 74 m 1
 375 74 l 2
 423 74 496 87 515 206 c 0
 527 280 502 347 418 347 c 2
 210 347 l 1
 167 74 l 1
80 0 m 1
 196 732 l 1
 479 732 l 2
 625 732 650 623 640 539 c 0
 628 439 578 396 521 380 c 1
 550 375 604 316 590 201 c 0
 576 87 517 0 363 0 c 2
 80 0 l 1
EndSplineSet
Substitution2: "'c2sc' Capitals to Small Capitals in Latin lookup 17 subtable" b.smcp
EndChar

StartChar: N
Encoding: 78 78 49
Width: 660
VWidth: 0
Flags: HW
HStem: 0 21G<80 158.165 519.572 602.169> 712 20G<192.831 277.394 637.835 715>
DStem2: 80 0 155 0 0.156517 0.987675<11.7388 613.13> 268 732 249 594 0.426384 -0.904542<116.726 656.259> 547 138 599 0 0.156517 0.987675<0 601.392>
LayerCount: 2
Fore
SplineSet
80 0 m 1
 196 732 l 1
 268 732 l 1
 547 138 l 1
 641 732 l 1
 715 732 l 1
 599 0 l 1
 529 0 l 1
 249 594 l 1
 155 0 l 1
 80 0 l 1
EndSplineSet
AlternateSubs2: "'salt' Access All Alternates in Latin lookup 4-1" N.salt
Substitution2: "'c2sc' Capitals to Small Capitals in Latin lookup 17 subtable" n.smcp
EndChar

StartChar: X
Encoding: 88 88 50
Width: 601
VWidth: 0
Flags: HW
HStem: 0 21G<38 142.172 466.172 553> 712 20G<151 237.845 576.884 681>
DStem2: 38 0 127 0 0.60348 0.797378<53.7097 417.715 538.206 918.009> 229 732 151 732 0.404747 -0.914429<0 331.308 451.938 768.93>
LayerCount: 2
Fore
SplineSet
38 0 m 1
 314 364 l 1
 151 732 l 1
 229 732 l 1
 363 429 l 1
 592 732 l 1
 681 732 l 1
 396 355 l 1
 553 0 l 1
 475 0 l 1
 347 290 l 1
 127 0 l 1
 38 0 l 1
EndSplineSet
AlternateSubs2: "'salt' Access All Alternates in Latin lookup 4-1" X.salt
Substitution2: "'c2sc' Capitals to Small Capitals in Latin lookup 17 subtable" x.smcp
EndChar

StartChar: Z
Encoding: 90 90 51
Width: 564
VWidth: 0
Flags: HW
HStem: 0 74<144 528> 658 74<151 535>
DStem2: 47 74 144 74 0.641218 0.767359<62.1981 761.052>
LayerCount: 2
Fore
SplineSet
35 0 m 1
 47 74 l 1
 535 658 l 1
 139 658 l 1
 151 732 l 1
 644 732 l 1
 632 658 l 1
 144 74 l 1
 540 74 l 1
 528 0 l 1
 35 0 l 1
EndSplineSet
Substitution2: "'c2sc' Capitals to Small Capitals in Latin lookup 17 subtable" z.smcp
EndChar

StartChar: Y
Encoding: 89 89 52
Width: 630
VWidth: 0
Flags: HW
HStem: 0 21G<267 344.154> 712 20G<150 234.719 608.037 710>
DStem2: 228 732 150 732 0.317433 -0.948281<0 401.926> 267 0 341 0 0.155767 0.987794<11.5268 263.213> 356 351 382 260 0.570657 0.821189<0 464.668>
LayerCount: 2
Fore
SplineSet
150 732 m 1
 228 732 l 1
 356 351 l 1
 622 732 l 1
 710 732 l 1
 382 260 l 1
 341 0 l 1
 267 0 l 1
 308 260 l 1
 150 732 l 1
EndSplineSet
Substitution2: "'c2sc' Capitals to Small Capitals in Latin lookup 17 subtable" y.smcp
EndChar

StartChar: Agrave
Encoding: 192 192 53
Width: 660
VWidth: 0
Flags: HW
HStem: 0 21<45 136.588 566.176 645> 204 74<273 517> 712 20<419.481 507.852> 797 133
VStem: 318.959 193
DStem2: 45 0 126 0 0.465497 0.885049<37.7053 268.529 352.177 746.199> 504 732 454 628 0.189146 -0.981949<92.6654 448.264 523.576 731.27>
LayerCount: 2
Fore
SplineSet
318.959 930 m 1
 405.959 930 l 1
 511.959 797 l 1
 442.959 797 l 1
 318.959 930 l 1
273 278 m 1
 517 278 l 1
 454 628 l 1
 273 278 l 1
45 0 m 1
 430 732 l 1
 504 732 l 1
 645 0 l 1
 570 0 l 1
 531 204 l 1
 234 204 l 1
 126 0 l 1
 45 0 l 1
EndSplineSet
Substitution2: "'c2sc' Capitals to Small Capitals in Latin lookup 17 subtable" agrave.smcp
EndChar

StartChar: Aacute
Encoding: 193 193 54
Width: 660
VWidth: 0
Flags: HW
HStem: 0 21<45 136.588 566.176 645> 204 74<273 517> 712 20<419.481 507.852> 797 133
VStem: 442.959 223
DStem2: 45 0 126 0 0.465497 0.885049<37.7053 268.529 352.177 746.199> 504 732 454 628 0.189146 -0.981949<92.6654 448.264 523.576 731.27>
LayerCount: 2
Fore
SplineSet
442.959 797 m 1
 570.959 930 l 1
 665.959 930 l 1
 511.959 797 l 1
 442.959 797 l 1
273 278 m 1
 517 278 l 1
 454 628 l 1
 273 278 l 1
45 0 m 1
 430 732 l 1
 504 732 l 1
 645 0 l 1
 570 0 l 1
 531 204 l 1
 234 204 l 1
 126 0 l 1
 45 0 l 1
EndSplineSet
Substitution2: "'c2sc' Capitals to Small Capitals in Latin lookup 17 subtable" aacute.smcp
EndChar

StartChar: Acircumflex
Encoding: 194 194 55
Width: 660
VWidth: 0
Flags: HW
HStem: 0 21<45 136.588 566.176 645> 204 74<273 517> 712 20<419.481 507.852> 797 130
VStem: 331.459 292
DStem2: 45 0 126 0 0.465497 0.885049<37.7053 268.529 352.177 746.199> 331.459 797 411.459 797 0.72789 0.685694<58.2312 180.654> 504 732 454 628 0.189146 -0.981949<92.6654 448.264 523.576 731.27> 540.459 927 501.459 880 0.538133 -0.84286<18.6272 119.258>
LayerCount: 2
Fore
SplineSet
331.459 797 m 1
 469.459 927 l 1
 540.459 927 l 1
 623.459 797 l 1
 558.459 797 l 1
 501.459 880 l 1
 411.459 797 l 1
 331.459 797 l 1
273 278 m 1
 517 278 l 1
 454 628 l 1
 273 278 l 1
45 0 m 1
 430 732 l 1
 504 732 l 1
 645 0 l 1
 570 0 l 1
 531 204 l 1
 234 204 l 1
 126 0 l 1
 45 0 l 1
EndSplineSet
Substitution2: "'c2sc' Capitals to Small Capitals in Latin lookup 17 subtable" acircumflex.smcp
EndChar

StartChar: Atilde
Encoding: 195 195 56
Width: 660
VWidth: 0
Flags: HW
HStem: 0 21<45 136.588 566.176 645> 204 74<273 517> 712 20<419.481 507.852> 798 70<490.002 596.507> 832 70<376.157 481.908>
DStem2: 45 0 126 0 0.465497 0.885049<37.7053 268.529 352.177 746.199> 504 732 454 628 0.189146 -0.981949<92.6654 448.264 523.576 731.27>
LayerCount: 2
Fore
SplineSet
314.199 838 m 1
 359.199 871 401.199 902 442.199 902 c 1
 492.199 899 514.199 869 542.199 868 c 0
 566.199 867 636.199 898 642.199 902 c 1
 657.199 860 l 1
 614.199 833 575.199 797 531.199 798 c 0
 475.199 799 465.199 833 429.199 832 c 0
 385.199 831 361.199 811 329.199 797 c 1
 314.199 838 l 1
273 278 m 1
 517 278 l 1
 454 628 l 1
 273 278 l 1
45 0 m 1
 430 732 l 1
 504 732 l 1
 645 0 l 1
 570 0 l 1
 531 204 l 1
 234 204 l 1
 126 0 l 1
 45 0 l 1
EndSplineSet
Substitution2: "'c2sc' Capitals to Small Capitals in Latin lookup 17 subtable" atilde.smcp
EndChar

StartChar: Adieresis
Encoding: 196 196 57
Width: 660
VWidth: 0
Flags: HW
HStem: 0 21<45 136.588 566.176 645> 204 74<273 517> 712 20<419.481 507.852> 797 101<320.96 394.91 575.96 649.91>
VStem: 307.541 101<811.143 884.333> 562.541 101<811.143 884.333>
DStem2: 45 0 126 0 0.465497 0.885049<37.7053 268.529 352.177 746.199> 504 732 454 628 0.189146 -0.981949<92.6654 448.264 523.576 731.27>
LayerCount: 2
Fore
SplineSet
562.541 848 m 0
 566.541 876 593.541 898 621.541 898 c 0
 649.541 898 667.541 876 663.541 848 c 0
 659.541 820 633.541 797 605.541 797 c 0
 577.541 797 558.541 820 562.541 848 c 0
307.541 848 m 0
 311.541 876 338.541 898 366.541 898 c 0
 394.541 898 412.541 876 408.541 848 c 0
 404.541 820 378.541 797 350.541 797 c 0
 322.541 797 303.541 820 307.541 848 c 0
273 278 m 1
 517 278 l 1
 454 628 l 1
 273 278 l 1
45 0 m 1
 430 732 l 1
 504 732 l 1
 645 0 l 1
 570 0 l 1
 531 204 l 1
 234 204 l 1
 126 0 l 1
 45 0 l 1
EndSplineSet
Substitution2: "'c2sc' Capitals to Small Capitals in Latin lookup 17 subtable" adieresis.smcp
EndChar

StartChar: Aring
Encoding: 197 197 58
Width: 660
VWidth: 0
Flags: HW
HStem: 0 21<45 136.588 566.176 645> 204 74<273 517> 712 20<419.481 507.852> 730.167 48<438.722 525.344> 887.167 48<444.536 530.411>
VStem: 382.908 203
DStem2: 45 0 126 0 0.465497 0.885049<37.7053 268.529 352.177 746.199> 504 732 454 628 0.189146 -0.981949<92.6654 448.264 523.576 731.27>
LayerCount: 2
Fore
SplineSet
429.908 832.167 m 0
 427.283 802.167 450.183 778.167 480.183 778.167 c 0
 510.183 778.167 536.283 802.167 538.908 832.167 c 0
 541.533 862.167 519.719 887.167 489.719 887.167 c 0
 459.719 887.167 432.533 862.167 429.908 832.167 c 0
382.908 832.167 m 0
 387.894 889.167 437.919 935.167 493.919 935.167 c 0
 549.919 935.167 590.894 889.167 585.908 832.167 c 0
 581.511 781.907 542.943 740.977 495.492 732 c 1
 504 732 l 1
 645 0 l 1
 570 0 l 1
 531 204 l 1
 234 204 l 1
 126 0 l 1
 45 0 l 1
 430 732 l 1
 456.758 732 l 1
 410.695 740.977 378.511 781.907 382.908 832.167 c 0
273 278 m 1
 517 278 l 1
 454 628 l 1
 273 278 l 1
EndSplineSet
Substitution2: "'c2sc' Capitals to Small Capitals in Latin lookup 17 subtable" aring.smcp
EndChar

StartChar: AE
Encoding: 198 198 59
Width: 921
VWidth: 0
Flags: HW
HStem: 0 21G<30 128.13> 12 57<749.353 877> 230 74<313 467> 318 79<569 788.4> 328 59<667.4 888> 657 75<611.98 810.688> 657 59<850.312 980>
DStem2: 30 0 115 0 0.549569 0.835449<46.7133 321.851 409.504 809.427> 451 121 525 121 0.161623 0.986853<-28.7134 110.153 185.281 211.38 291.443 524.852>
LayerCount: 2
Fore
SplineSet
313 304 m 1
 480 304 l 1
 536 640 l 1
 313 304 l 1
30 0 m 1
 424 604 l 2
 519 748 589 732 672 732 c 1
 989 716 l 1
 980 657 l 1
 660 657 l 2
 612 657 608 631 602 604 c 1
 569 397 l 1
 897 387 l 1
 888 328 l 1
 556 318 l 1
 525 121 l 2
 517 68 551 69 580 69 c 2
 887 69 l 1
 877 12 l 1
 567 -5 l 2
 501 -9 437 27 451 121 c 2
 467 230 l 1
 266 230 l 1
 115 0 l 1
 30 0 l 1
EndSplineSet
EndChar

StartChar: Ccedilla
Encoding: 199 199 60
Width: 578
VWidth: 0
Flags: HW
HStem: -173 37<195 220.667> -6 74<245.692 538.96> 666 74<317.668 609.132>
VStem: 296 67<-104.495 -37>
LayerCount: 2
Fore
SplineSet
189 -173 m 1
 195 -136 l 1
 250 -121 l 2
 281 -113 290 -75 296 -37 c 1
 324 -38 363 -37 363 -37 c 1
 347 -139 320 -173 240 -173 c 2
 189 -173 l 1
115 368 m 0
 154 602 217 740 416 740 c 0
 468 740 588 723 656 710 c 1
 647 651 l 1
 625 654 502 668 407 666 c 0
 352 665 239 670 191 366 c 1
 163 204 189 77 306 68 c 0
 350 65 417 66 559 76 c 1
 551 17 l 1
 466 -6 367 -6 302 -6 c 0
 113 -6 87 198 115 368 c 0
EndSplineSet
Substitution2: "'c2sc' Capitals to Small Capitals in Latin lookup 17 subtable" ccedilla.smcp
EndChar

StartChar: Eth
Encoding: 208 208 61
Width: 668
VWidth: 0
Flags: HW
HStem: 0 77<165 441.148> 346 54<78 134 217 347> 658 74<257 539.51>
DStem2: 79 0 165 77 0.156726 0.987642<89.5269 350.344 416.685 677.766>
LayerCount: 2
Fore
SplineSet
165 77 m 1
 364 77 l 2
 494 77 572 215 596 364 c 0
 628 566 582 658 456 658 c 2
 257 658 l 1
 217 400 l 1
 356 400 l 1
 347 346 l 1
 208 346 l 1
 165 77 l 1
69 346 m 1
 78 400 l 1
 143 400 l 1
 195 731 l 2
 195 732 408 732 468 732 c 0
 693 732 693 485 671 363 c 0
 634 150 541 0 352 0 c 2
 79 0 l 1
 134 346 l 1
 69 346 l 1
EndSplineSet
Substitution2: "'c2sc' Capitals to Small Capitals in Latin lookup 17 subtable" eth.smcp
EndChar

StartChar: Egrave
Encoding: 200 200 62
Width: 567
VWidth: 0
Flags: HW
HStem: 14 57<396.353 524> 323 79<216 435> 333 59<314.4 534> 658 58<497.625 626> 792 133
VStem: 279 193
DStem2: 98 123 172 123 0.156704 0.987646<-28.7677 214.14 294.044 549.424>
LayerCount: 2
Fore
SplineSet
279 925 m 1
 366 925 l 1
 472 792 l 1
 403 792 l 1
 279 925 l 1
98 123 m 2
 174 602 l 2
 190 700 245 736 321 732 c 2
 635 716 l 1
 626 658 l 1
 309 658 l 2
 261 658 252 629 248 602 c 2
 216 402 l 1
 544 392 l 1
 534 333 l 1
 204 323 l 1
 172 123 l 1
 165 70 198 71 227 71 c 2
 534 71 l 1
 524 14 l 1
 214 -3 l 2
 148 -7 83 29 98 123 c 2
EndSplineSet
Substitution2: "'c2sc' Capitals to Small Capitals in Latin lookup 17 subtable" egrave.smcp
EndChar

StartChar: Eacute
Encoding: 201 201 63
Width: 567
VWidth: 0
Flags: HW
HStem: 14 57<396.353 524> 323 79<216 435> 333 59<314.4 534> 658 58<497.625 626> 792 133
VStem: 398 223
DStem2: 98 123 172 123 0.156704 0.987646<-28.7677 214.14 294.044 549.424>
LayerCount: 2
Fore
SplineSet
398 792 m 1
 526 925 l 1
 621 925 l 1
 467 792 l 1
 398 792 l 1
98 123 m 2
 174 602 l 2
 190 700 245 736 321 732 c 2
 635 716 l 1
 626 658 l 1
 309 658 l 2
 261 658 252 629 248 602 c 2
 216 402 l 1
 544 392 l 1
 534 333 l 1
 204 323 l 1
 172 123 l 1
 165 70 198 71 227 71 c 2
 534 71 l 1
 524 14 l 1
 214 -3 l 2
 148 -7 83 29 98 123 c 2
EndSplineSet
Substitution2: "'c2sc' Capitals to Small Capitals in Latin lookup 17 subtable" eacute.smcp
EndChar

StartChar: Ecircumflex
Encoding: 202 202 64
Width: 567
VWidth: 0
Flags: HW
HStem: 14 57<396.353 524> 323 79<216 435> 333 59<314.4 534> 658 58<497.625 626> 792 131
VStem: 285 292
DStem2: 98 123 172 123 0.156704 0.987646<-28.7677 214.14 294.044 549.424> 285 792 369 792 0.725262 0.688473<60.922 179.098> 494 923 456 872 0.535205 -0.844722<22.743 118.151>
LayerCount: 2
Fore
SplineSet
285 792 m 1
 423 923 l 1
 494 923 l 1
 577 792 l 1
 508 792 l 1
 456 872 l 1
 369 792 l 1
 285 792 l 1
98 123 m 2
 174 602 l 2
 190 700 245 736 321 732 c 2
 635 716 l 1
 626 658 l 1
 309 658 l 2
 261 658 252 629 248 602 c 2
 216 402 l 1
 544 392 l 1
 534 333 l 1
 204 323 l 1
 172 123 l 1
 165 70 198 71 227 71 c 2
 534 71 l 1
 524 14 l 1
 214 -3 l 2
 148 -7 83 29 98 123 c 2
EndSplineSet
Substitution2: "'c2sc' Capitals to Small Capitals in Latin lookup 17 subtable" ecircumflex.smcp
EndChar

StartChar: Edieresis
Encoding: 203 203 65
Width: 567
VWidth: 0
Flags: HW
HStem: 14 57<396.353 524> 323 79<216 435> 333 59<314.4 534> 658 58<497.625 626> 792 101<267.419 341.369 522.419 596.369>
VStem: 254 101<806.143 879.333> 509 101<806.143 879.333>
DStem2: 98 123 172 123 0.156704 0.987646<-28.7677 214.14 294.044 549.424>
LayerCount: 2
Fore
SplineSet
509 843 m 0
 513 871 540 893 568 893 c 0
 596 893 614 871 610 843 c 0
 606 815 580 792 552 792 c 0
 524 792 505 815 509 843 c 0
254 843 m 0
 258 871 285 893 313 893 c 0
 341 893 359 871 355 843 c 0
 351 815 325 792 297 792 c 0
 269 792 250 815 254 843 c 0
98 123 m 2
 174 602 l 2
 190 700 245 736 321 732 c 2
 635 716 l 1
 626 658 l 1
 309 658 l 2
 261 658 252 629 248 602 c 2
 216 402 l 1
 544 392 l 1
 534 333 l 1
 204 323 l 1
 172 123 l 1
 165 70 198 71 227 71 c 2
 534 71 l 1
 524 14 l 1
 214 -3 l 2
 148 -7 83 29 98 123 c 2
EndSplineSet
Substitution2: "'c2sc' Capitals to Small Capitals in Latin lookup 17 subtable" edieresis.smcp
EndChar

StartChar: Igrave
Encoding: 204 204 66
Width: 225
VWidth: 0
Flags: HW
HStem: 0 21<90 167.169> 712 20<202.831 280> 797 133
VStem: 90 190 94.959 193
DStem2: 90 0 164 0 0.156517 0.987675<11.5822 741.134>
LayerCount: 2
Fore
SplineSet
94.959 930 m 1
 181.959 930 l 1
 287.959 797 l 1
 218.959 797 l 1
 94.959 930 l 1
90 0 m 1
 206 732 l 1
 280 732 l 1
 164 0 l 1
 90 0 l 1
EndSplineSet
Substitution2: "'c2sc' Capitals to Small Capitals in Latin lookup 17 subtable" igrave.smcp
EndChar

StartChar: Iacute
Encoding: 205 205 67
Width: 225
VWidth: 0
Flags: HW
HStem: 0 21<90 167.169> 712 20<202.831 280> 797 133
VStem: 90 190 218.959 223
DStem2: 90 0 164 0 0.156517 0.987675<11.5822 741.134>
LayerCount: 2
Fore
SplineSet
218.959 797 m 1
 346.959 930 l 1
 441.959 930 l 1
 287.959 797 l 1
 218.959 797 l 1
90 0 m 1
 206 732 l 1
 280 732 l 1
 164 0 l 1
 90 0 l 1
EndSplineSet
Substitution2: "'c2sc' Capitals to Small Capitals in Latin lookup 17 subtable" iacute.smcp
EndChar

StartChar: Icircumflex
Encoding: 206 206 68
Width: 225
VWidth: 0
Flags: HW
HStem: 0 21<90 167.169> 712 20<202.831 280> 797 130
VStem: 90 190 107.459 292
DStem2: 90 0 164 0 0.156517 0.987675<11.5822 741.134> 107.459 797 187.459 797 0.72789 0.685694<58.2312 180.654> 316.459 927 277.459 880 0.538133 -0.84286<18.6272 119.258>
LayerCount: 2
Fore
SplineSet
107.459 797 m 1
 245.459 927 l 1
 316.459 927 l 1
 399.459 797 l 1
 334.459 797 l 1
 277.459 880 l 1
 187.459 797 l 1
 107.459 797 l 1
90 0 m 1
 206 732 l 1
 280 732 l 1
 164 0 l 1
 90 0 l 1
EndSplineSet
Substitution2: "'c2sc' Capitals to Small Capitals in Latin lookup 17 subtable" icircumflex.smcp
EndChar

StartChar: Idieresis
Encoding: 207 207 69
Width: 225
VWidth: 0
Flags: HW
HStem: 0 21<90 167.169> 712 20<202.831 280> 797 101<96.9601 170.91 351.96 425.91>
VStem: 83.541 101<811.143 884.333> 90 190 338.541 101<811.143 884.333>
DStem2: 90 0 164 0 0.156517 0.987675<11.5822 741.134>
LayerCount: 2
Fore
SplineSet
338.541 848 m 0
 342.541 876 369.541 898 397.541 898 c 0
 425.541 898 443.541 876 439.541 848 c 0
 435.541 820 409.541 797 381.541 797 c 0
 353.541 797 334.541 820 338.541 848 c 0
83.541 848 m 0
 87.541 876 114.541 898 142.541 898 c 0
 170.541 898 188.541 876 184.541 848 c 0
 180.541 820 154.541 797 126.541 797 c 0
 98.541 797 79.541 820 83.541 848 c 0
90 0 m 1
 206 732 l 1
 280 732 l 1
 164 0 l 1
 90 0 l 1
EndSplineSet
Substitution2: "'c2sc' Capitals to Small Capitals in Latin lookup 17 subtable" idieresis.smcp
EndChar

StartChar: Ntilde
Encoding: 209 209 70
Width: 660
VWidth: 0
Flags: HW
HStem: 0 21<80 158.165 519.572 602.169> 712 20<192.831 277.394 637.835 715> 793 70<470.803 577.308> 827 70<356.958 462.709>
DStem2: 80 0 155 0 0.156517 0.987675<11.7388 613.13> 268 732 249 594 0.426384 -0.904542<116.726 656.259> 547 138 599 0 0.156517 0.987675<0 601.392>
LayerCount: 2
Fore
SplineSet
295 833 m 1
 340 866 382 897 423 897 c 1
 473 894 495 864 523 863 c 0
 547 862 617 893 623 897 c 1
 638 855 l 1
 595 828 556 792 512 793 c 0
 456 794 446 828 410 827 c 0
 366 826 342 806 310 792 c 1
 295 833 l 1
80 0 m 1
 196 732 l 1
 268 732 l 1
 547 138 l 1
 641 732 l 1
 715 732 l 1
 599 0 l 1
 529 0 l 1
 249 594 l 1
 155 0 l 1
 80 0 l 1
EndSplineSet
AlternateSubs2: "'salt' Access All Alternates in Latin lookup 4-1" Ntilde.salt
Substitution2: "'c2sc' Capitals to Small Capitals in Latin lookup 17 subtable" ntilde.smcp
EndChar

StartChar: Ograve
Encoding: 210 210 71
Width: 667
VWidth: 0
Flags: HW
HStem: -4 74<229.318 475.03> 663 74<310.127 571.177> 797 133
VStem: 299.167 193
LayerCount: 2
Fore
SplineSet
299.167 930 m 1
 386.167 930 l 1
 492.167 797 l 1
 423.167 797 l 1
 299.167 930 l 1
189 361 m 0
 148 104 202 70 352 70 c 0
 494 70 568 112 607 361 c 0
 654 660 570 663 446 663 c 0
 313 663 236 660 189 361 c 0
115 361 m 0
 169 704 273 737 448 737 c 0
 622 737 731 692 681 361 c 0
 632 38 523 -4 350 -4 c 0
 188 -4 62 28 115 361 c 0
EndSplineSet
Substitution2: "'c2sc' Capitals to Small Capitals in Latin lookup 17 subtable" ograve.smcp
EndChar

StartChar: Oacute
Encoding: 211 211 72
Width: 667
VWidth: 0
Flags: HW
HStem: -4 74<229.318 475.03> 663 74<310.127 571.177> 797 133
VStem: 423.167 223
LayerCount: 2
Fore
SplineSet
423.167 797 m 1
 551.167 930 l 1
 646.167 930 l 1
 492.167 797 l 1
 423.167 797 l 1
189 361 m 0
 148 104 202 70 352 70 c 0
 494 70 568 112 607 361 c 0
 654 660 570 663 446 663 c 0
 313 663 236 660 189 361 c 0
115 361 m 0
 169 704 273 737 448 737 c 0
 622 737 731 692 681 361 c 0
 632 38 523 -4 350 -4 c 0
 188 -4 62 28 115 361 c 0
EndSplineSet
Substitution2: "'c2sc' Capitals to Small Capitals in Latin lookup 17 subtable" oacute.smcp
EndChar

StartChar: Ocircumflex
Encoding: 212 212 73
Width: 667
VWidth: 0
Flags: HW
HStem: -4 74<229.318 475.03> 663 74<310.127 571.177> 797 130
VStem: 311.667 292
DStem2: 311.667 797 391.667 797 0.72789 0.685694<58.2312 180.654> 520.667 927 481.667 880 0.538133 -0.84286<18.6272 119.258>
LayerCount: 2
Fore
SplineSet
311.667 797 m 1
 449.667 927 l 1
 520.667 927 l 1
 603.667 797 l 1
 538.667 797 l 1
 481.667 880 l 1
 391.667 797 l 1
 311.667 797 l 1
189 361 m 0
 148 104 202 70 352 70 c 0
 494 70 568 112 607 361 c 0
 654 660 570 663 446 663 c 0
 313 663 236 660 189 361 c 0
115 361 m 0
 169 704 273 737 448 737 c 0
 622 737 731 692 681 361 c 0
 632 38 523 -4 350 -4 c 0
 188 -4 62 28 115 361 c 0
EndSplineSet
Substitution2: "'c2sc' Capitals to Small Capitals in Latin lookup 17 subtable" ocircumflex.smcp
EndChar

StartChar: Otilde
Encoding: 213 213 74
Width: 667
VWidth: 0
Flags: HW
HStem: -4 74<229.318 475.03> 663 74<310.127 571.177> 798 70<470.21 576.715> 832 70<356.365 462.116>
LayerCount: 2
Fore
SplineSet
294.407 838 m 1
 339.407 871 381.407 902 422.407 902 c 1
 472.407 899 494.407 869 522.407 868 c 0
 546.407 867 616.407 898 622.407 902 c 1
 637.407 860 l 1
 594.407 833 555.407 797 511.407 798 c 0
 455.407 799 445.407 833 409.407 832 c 0
 365.407 831 341.407 811 309.407 797 c 1
 294.407 838 l 1
189 361 m 0
 148 104 202 70 352 70 c 0
 494 70 568 112 607 361 c 0
 654 660 570 663 446 663 c 0
 313 663 236 660 189 361 c 0
115 361 m 0
 169 704 273 737 448 737 c 0
 622 737 731 692 681 361 c 0
 632 38 523 -4 350 -4 c 0
 188 -4 62 28 115 361 c 0
EndSplineSet
Substitution2: "'c2sc' Capitals to Small Capitals in Latin lookup 17 subtable" otilde.smcp
EndChar

StartChar: Odieresis
Encoding: 214 214 75
Width: 667
VWidth: 0
Flags: HW
HStem: -4 74<229.318 475.03> 663 74<310.127 571.177> 797 101<301.168 375.118 556.168 630.118>
VStem: 287.749 101<811.143 884.333> 542.749 101<811.143 884.333>
LayerCount: 2
Fore
SplineSet
542.749 848 m 0
 546.749 876 573.749 898 601.749 898 c 0
 629.749 898 647.749 876 643.749 848 c 0
 639.749 820 613.749 797 585.749 797 c 0
 557.749 797 538.749 820 542.749 848 c 0
287.749 848 m 0
 291.749 876 318.749 898 346.749 898 c 0
 374.749 898 392.749 876 388.749 848 c 0
 384.749 820 358.749 797 330.749 797 c 0
 302.749 797 283.749 820 287.749 848 c 0
189 361 m 0
 148 104 202 70 352 70 c 0
 494 70 568 112 607 361 c 0
 654 660 570 663 446 663 c 0
 313 663 236 660 189 361 c 0
115 361 m 0
 169 704 273 737 448 737 c 0
 622 737 731 692 681 361 c 0
 632 38 523 -4 350 -4 c 0
 188 -4 62 28 115 361 c 0
EndSplineSet
Substitution2: "'c2sc' Capitals to Small Capitals in Latin lookup 17 subtable" odieresis.smcp
EndChar

StartChar: Oslash
Encoding: 216 216 76
Width: 667
VWidth: 0
Flags: HW
HStem: -4 74<226.571 472.03> 663 74<307.127 568.252>
DStem2: 69 0 130 0 0.624955 0.780661<38.1223 90.7529 184.285 797.908 889.254 937.667>
LayerCount: 2
Fore
SplineSet
211 102 m 1
 240 76 286 70 349 70 c 0
 491 70 565 112 604 361 c 0
 622 478 621 549 605 593 c 1
 211 102 l 1
186 361 m 0
 169 255 169 187 184 144 c 1
 577 635 l 1
 546 662 498 663 443 663 c 0
 310 663 233 660 186 361 c 0
69 0 m 1
 131 78 l 1
 99 131 89 219 112 361 c 0
 166 704 270 737 445 737 c 0
 519 737 582 729 625 694 c 1
 655 732 l 1
 716 732 l 1
 657 658 l 1
 691 603 701 512 678 361 c 0
 629 38 520 -4 347 -4 c 0
 274 -4 208 3 163 41 c 1
 130 0 l 1
 69 0 l 1
EndSplineSet
Substitution2: "'c2sc' Capitals to Small Capitals in Latin lookup 17 subtable" oslash.smcp
EndChar

StartChar: Ugrave
Encoding: 217 217 77
Width: 656
VWidth: 0
Flags: HW
HStem: -5 74<242.067 453.486> 712 20<191.837 270 633.837 712> 797 133
VStem: 305.459 193
DStem2: 127 302 202 302 0.156198 0.987726<-133.035 435.344> 569 302 644 302 0.156198 0.987726<-146.371 435.344>
LayerCount: 2
Fore
SplineSet
305.459 930 m 1
 392.459 930 l 1
 498.459 797 l 1
 429.459 797 l 1
 305.459 930 l 1
127 302 m 2
 195 732 l 1
 270 732 l 1
 202 302 l 2
 172 112 224 69 344 69 c 0
 474 69 541 124 569 302 c 2
 637 732 l 1
 712 732 l 1
 644 302 l 2
 621 159 581 -5 338 -5 c 0
 174 -5 92 81 127 302 c 2
EndSplineSet
Substitution2: "'c2sc' Capitals to Small Capitals in Latin lookup 17 subtable" ugrave.smcp
EndChar

StartChar: Uacute
Encoding: 218 218 78
Width: 656
VWidth: 0
Flags: HW
HStem: -5 74<242.067 453.486> 712 20<191.837 270 633.837 712> 797 133
VStem: 429.459 223
DStem2: 127 302 202 302 0.156198 0.987726<-133.035 435.344> 569 302 644 302 0.156198 0.987726<-146.371 435.344>
LayerCount: 2
Fore
SplineSet
429.459 797 m 1
 557.459 930 l 1
 652.459 930 l 1
 498.459 797 l 1
 429.459 797 l 1
127 302 m 2
 195 732 l 1
 270 732 l 1
 202 302 l 2
 172 112 224 69 344 69 c 0
 474 69 541 124 569 302 c 2
 637 732 l 1
 712 732 l 1
 644 302 l 2
 621 159 581 -5 338 -5 c 0
 174 -5 92 81 127 302 c 2
EndSplineSet
Substitution2: "'c2sc' Capitals to Small Capitals in Latin lookup 17 subtable" uacute.smcp
EndChar

StartChar: Ucircumflex
Encoding: 219 219 79
Width: 656
VWidth: 0
Flags: HW
HStem: -5 74<242.067 453.486> 712 20<191.837 270 633.837 712> 797 130
VStem: 317.959 292
DStem2: 127 302 202 302 0.156198 0.987726<-133.035 435.344> 317.959 797 397.959 797 0.72789 0.685694<58.2312 180.654> 526.959 927 487.959 880 0.538133 -0.84286<18.6272 119.258> 569 302 644 302 0.156198 0.987726<-146.371 435.344>
LayerCount: 2
Fore
SplineSet
317.959 797 m 1
 455.959 927 l 1
 526.959 927 l 1
 609.959 797 l 1
 544.959 797 l 1
 487.959 880 l 1
 397.959 797 l 1
 317.959 797 l 1
127 302 m 2
 195 732 l 1
 270 732 l 1
 202 302 l 2
 172 112 224 69 344 69 c 0
 474 69 541 124 569 302 c 2
 637 732 l 1
 712 732 l 1
 644 302 l 2
 621 159 581 -5 338 -5 c 0
 174 -5 92 81 127 302 c 2
EndSplineSet
Substitution2: "'c2sc' Capitals to Small Capitals in Latin lookup 17 subtable" ucircumflex.smcp
EndChar

StartChar: Udieresis
Encoding: 220 220 80
Width: 656
VWidth: 0
Flags: HW
HStem: -5 74<242.067 453.486> 712 20<191.837 270 633.837 712> 797 101<307.46 381.41 562.46 636.41>
VStem: 294.041 101<811.143 884.333> 549.041 101<811.143 884.333>
DStem2: 127 302 202 302 0.156198 0.987726<-133.035 435.344> 569 302 644 302 0.156198 0.987726<-146.371 435.344>
LayerCount: 2
Fore
SplineSet
549.041 848 m 0
 553.041 876 580.041 898 608.041 898 c 0
 636.041 898 654.041 876 650.041 848 c 0
 646.041 820 620.041 797 592.041 797 c 0
 564.041 797 545.041 820 549.041 848 c 0
294.041 848 m 0
 298.041 876 325.041 898 353.041 898 c 0
 381.041 898 399.041 876 395.041 848 c 0
 391.041 820 365.041 797 337.041 797 c 0
 309.041 797 290.041 820 294.041 848 c 0
127 302 m 2
 195 732 l 1
 270 732 l 1
 202 302 l 2
 172 112 224 69 344 69 c 0
 474 69 541 124 569 302 c 2
 637 732 l 1
 712 732 l 1
 644 302 l 2
 621 159 581 -5 338 -5 c 0
 174 -5 92 81 127 302 c 2
EndSplineSet
Substitution2: "'c2sc' Capitals to Small Capitals in Latin lookup 17 subtable" udieresis.smcp
EndChar

StartChar: Yacute
Encoding: 221 221 81
Width: 630
VWidth: 0
Flags: HW
HStem: 0 21<267 344.154> 712 20<150 234.719 608.037 710> 797 133
VStem: 405.959 223
DStem2: 228 732 150 732 0.317433 -0.948281<0 401.926> 267 0 341 0 0.155767 0.987794<11.5268 263.213> 356 351 382 260 0.570657 0.821189<0 464.668>
LayerCount: 2
Fore
SplineSet
405.959 797 m 1
 533.959 930 l 1
 628.959 930 l 1
 474.959 797 l 1
 405.959 797 l 1
150 732 m 1
 228 732 l 1
 356 351 l 1
 622 732 l 1
 710 732 l 1
 382 260 l 1
 341 0 l 1
 267 0 l 1
 308 260 l 1
 150 732 l 1
EndSplineSet
Substitution2: "'c2sc' Capitals to Small Capitals in Latin lookup 17 subtable" yacute.smcp
EndChar

StartChar: agrave
Encoding: 224 224 82
Width: 541
VWidth: 0
Flags: HW
HStem: -7 74<177.772 341.569> 0 21<436.333 495.923> 602.972 133
VStem: 201.719 193 440 53<0 38.1818>
DStem2: 486 452 563 479 0.144602 0.98949<-351.468 2.0042>
LayerCount: 2
Fore
SplineSet
201.719 735.972 m 1
 288.719 735.972 l 1
 394.719 602.972 l 1
 325.719 602.972 l 1
 201.719 735.972 l 1
161 251 m 0
 139 113 165 67 243 67 c 0
 320 67 366 86 434 115 c 1
 486 452 l 1
 426 468 355 476 314 468 c 0
 249 456 192 442 161 251 c 0
90 278 m 0
 126 495 224 531 306 541 c 0
 376 550 512 528 563 479 c 1
 493 0 l 1
 440 0 l 1
 429 60 l 1
 400 41 320 -7 243 -7 c 0
 129 -7 50 37 90 278 c 0
EndSplineSet
AlternateSubs2: "'salt' Access All Alternates in Latin lookup 4-1" agrave.salt
Substitution2: "'smcp' Lowercase to Small Capitals lookup 16-1" agrave.smcp
EndChar

StartChar: aacute
Encoding: 225 225 83
Width: 541
VWidth: 0
Flags: HW
HStem: -7 74<177.772 341.569> 0 21<436.333 495.923> 602.972 133
VStem: 335.719 223 440 53<0 38.1818>
DStem2: 486 452 563 479 0.144602 0.98949<-351.468 2.0042>
LayerCount: 2
Fore
SplineSet
335.719 602.972 m 1
 463.719 735.972 l 1
 558.719 735.972 l 1
 404.719 602.972 l 1
 335.719 602.972 l 1
161 251 m 0
 139 113 165 67 243 67 c 0
 320 67 366 86 434 115 c 1
 486 452 l 1
 426 468 355 476 314 468 c 0
 249 456 192 442 161 251 c 0
90 278 m 0
 126 495 224 531 306 541 c 0
 376 550 512 528 563 479 c 1
 493 0 l 1
 440 0 l 1
 429 60 l 1
 400 41 320 -7 243 -7 c 0
 129 -7 50 37 90 278 c 0
EndSplineSet
AlternateSubs2: "'salt' Access All Alternates in Latin lookup 4-1" aacute.salt
Substitution2: "'smcp' Lowercase to Small Capitals lookup 16-1" aacute.smcp
EndChar

StartChar: acircumflex
Encoding: 226 226 84
Width: 541
VWidth: 0
Flags: HW
HStem: -7 74<177.772 341.569> 0 21<436.333 495.923> 602.972 130
VStem: 214.219 292 440 53<0 38.1818>
DStem2: 214.219 602.972 294.219 602.972 0.72789 0.685694<58.2312 180.654> 423.219 732.972 384.219 685.972 0.538133 -0.84286<18.6272 119.258> 486 452 563 479 0.144602 0.98949<-351.468 2.0042>
LayerCount: 2
Fore
SplineSet
214.219 602.972 m 1
 352.219 732.972 l 1
 423.219 732.972 l 1
 506.219 602.972 l 1
 441.219 602.972 l 1
 384.219 685.972 l 1
 294.219 602.972 l 1
 214.219 602.972 l 1
161 251 m 0
 139 113 165 67 243 67 c 0
 320 67 366 86 434 115 c 1
 486 452 l 1
 426 468 355 476 314 468 c 0
 249 456 192 442 161 251 c 0
90 278 m 0
 126 495 224 531 306 541 c 0
 376 550 512 528 563 479 c 1
 493 0 l 1
 440 0 l 1
 429 60 l 1
 400 41 320 -7 243 -7 c 0
 129 -7 50 37 90 278 c 0
EndSplineSet
AlternateSubs2: "'salt' Access All Alternates in Latin lookup 4-1" acircumflex.salt
Substitution2: "'smcp' Lowercase to Small Capitals lookup 16-1" acircumflex.smcp
EndChar

StartChar: atilde
Encoding: 227 227 85
Width: 541
VWidth: 0
Flags: HW
HStem: -7 74<177.772 341.569> 0 21<436.333 495.923> 603.972 70<380.762 487.267> 637.972 70<266.917 372.668>
VStem: 440 53<0 38.1818>
DStem2: 486 452 563 479 0.144602 0.98949<-351.468 2.0042>
LayerCount: 2
Fore
SplineSet
204.959 643.972 m 1
 249.959 676.972 291.959 707.972 332.959 707.972 c 1
 382.959 704.972 404.959 674.972 432.959 673.972 c 0
 456.959 672.972 526.959 703.972 532.959 707.972 c 1
 547.959 665.972 l 1
 504.959 638.972 465.959 602.972 421.959 603.972 c 0
 365.959 604.972 355.959 638.972 319.959 637.972 c 0
 275.959 636.972 251.959 616.972 219.959 602.972 c 1
 204.959 643.972 l 1
161 251 m 0
 139 113 165 67 243 67 c 0
 320 67 366 86 434 115 c 1
 486 452 l 1
 426 468 355 476 314 468 c 0
 249 456 192 442 161 251 c 0
90 278 m 0
 126 495 224 531 306 541 c 0
 376 550 512 528 563 479 c 1
 493 0 l 1
 440 0 l 1
 429 60 l 1
 400 41 320 -7 243 -7 c 0
 129 -7 50 37 90 278 c 0
EndSplineSet
AlternateSubs2: "'salt' Access All Alternates in Latin lookup 4-1" atilde.salt
Substitution2: "'smcp' Lowercase to Small Capitals lookup 16-1" atilde.smcp
EndChar

StartChar: adieresis
Encoding: 228 228 86
Width: 541
VWidth: 0
Flags: HW
HStem: -7 74<177.772 341.569> 0 21<436.333 495.923> 602.972 101<203.72 277.67 458.72 532.67>
VStem: 190.301 101<617.115 690.306> 440 53<0 38.1818> 445.301 101<617.115 690.306>
DStem2: 486 452 563 479 0.144602 0.98949<-351.468 2.0042>
LayerCount: 2
Fore
SplineSet
445.301 653.972 m 0
 449.301 681.972 476.301 703.972 504.301 703.972 c 0
 532.301 703.972 550.301 681.972 546.301 653.972 c 0
 542.301 625.972 516.301 602.972 488.301 602.972 c 0
 460.301 602.972 441.301 625.972 445.301 653.972 c 0
190.301 653.972 m 0
 194.301 681.972 221.301 703.972 249.301 703.972 c 0
 277.301 703.972 295.301 681.972 291.301 653.972 c 0
 287.301 625.972 261.301 602.972 233.301 602.972 c 0
 205.301 602.972 186.301 625.972 190.301 653.972 c 0
161 251 m 0
 139 113 165 67 243 67 c 0
 320 67 366 86 434 115 c 1
 486 452 l 1
 426 468 355 476 314 468 c 0
 249 456 192 442 161 251 c 0
90 278 m 0
 126 495 224 531 306 541 c 0
 376 550 512 528 563 479 c 1
 493 0 l 1
 440 0 l 1
 429 60 l 1
 400 41 320 -7 243 -7 c 0
 129 -7 50 37 90 278 c 0
EndSplineSet
AlternateSubs2: "'salt' Access All Alternates in Latin lookup 4-1" adieresis.salt
Substitution2: "'smcp' Lowercase to Small Capitals lookup 16-1" adieresis.smcp
EndChar

StartChar: aring
Encoding: 229 229 87
Width: 541
VWidth: 0
Flags: HW
HStem: -7 74<177.772 341.569> 0 21<436.333 495.923> 602.972 48<340.989 427.611> 759.972 48<346.804 432.678>
VStem: 285.175 203 440 53<0 38.1818>
DStem2: 486 452 563 479 0.144602 0.98949<-351.468 2.0042>
LayerCount: 2
Fore
SplineSet
332.175 704.972 m 0
 329.55 674.972 352.45 650.972 382.45 650.972 c 0
 412.45 650.972 438.55 674.972 441.175 704.972 c 0
 443.8 734.972 421.986 759.972 391.986 759.972 c 0
 361.986 759.972 334.8 734.972 332.175 704.972 c 0
285.175 704.972 m 0
 290.161 761.972 340.186 807.972 396.186 807.972 c 0
 452.186 807.972 493.161 761.972 488.175 704.972 c 0
 483.188 647.972 434.251 602.972 378.251 602.972 c 0
 322.251 602.972 280.188 647.972 285.175 704.972 c 0
161 251 m 0
 139 113 165 67 243 67 c 0
 320 67 366 86 434 115 c 1
 486 452 l 1
 426 468 355 476 314 468 c 0
 249 456 192 442 161 251 c 0
90 278 m 0
 126 495 224 531 306 541 c 0
 376 550 512 528 563 479 c 1
 493 0 l 1
 440 0 l 1
 429 60 l 1
 400 41 320 -7 243 -7 c 0
 129 -7 50 37 90 278 c 0
EndSplineSet
AlternateSubs2: "'salt' Access All Alternates in Latin lookup 4-1" aring.salt
Substitution2: "'smcp' Lowercase to Small Capitals lookup 16-1" aring.smcp
EndChar

StartChar: ae
Encoding: 230 230 88
Width: 902
VWidth: 0
Flags: HW
HStem: -7 71<138.189 310.378 482.029 750.588> 467 74<563.246 774.618>
LayerCount: 2
Fore
SplineSet
480 281 m 1
 480 281 764 250 787 388 c 0
 799 459 755 467 666 467 c 0
 507 467 499 372 480 281 c 1
121 251 m 0
 99 113 116 68 203 67 c 0
 270 66 362 86 394 116 c 1
 389 159 394 213 406 278 c 0
 419 346 433 403 459 446 c 1
 399 462 314 476 274 468 c 0
 210 456 152 442 121 251 c 0
51 275 m 0
 92 503 184 531 266 541 c 0
 328 549 440 532 501 495 c 1
 538 525 592 541 670 541 c 0
 796 541 876 504 861 388 c 0
 833 169 509 212 472 227 c 1
 451 103 470 65 541 64 c 1
 617 58 713 67 791 78 c 1
 782 22 l 1
 698 -1 616 -7 533 -7 c 0
 469 -7 428 16 408 63 c 1
 370 32 273 -7 203 -7 c 0
 88 -7 10 47 51 275 c 0
EndSplineSet
Substitution2: "'smcp' Lowercase to Small Capitals lookup 16-1" ae.smcp
EndChar

StartChar: ccedilla
Encoding: 231 231 89
Width: 498
VWidth: 0
Flags: HW
HStem: -173 37<152 177.667> -6 73<178.112 437.842> 464 74<228.762 498.092>
VStem: 253 67<-101.281 -37>
LayerCount: 2
Fore
SplineSet
146 -173 m 1
 152 -136 l 1
 207 -121 l 1
 237 -109 247 -75 253 -37 c 1
 281 -38 320 -37 320 -37 c 1
 304 -139 277 -173 197 -173 c 2
 146 -173 l 1
91 266 m 0
 135 519 215 538 309 538 c 0
 361 538 464 523 532 510 c 1
 524 456 l 1
 524 456 386 464 297 464 c 0
 238 464 200 456 164 262 c 0
 137 113 169 67 234 67 c 0
 326 67 471 78 471 78 c 1
 462 22 l 1
 377 -1 315 -7 232 -6 c 0
 130 -5 56 65 91 266 c 0
EndSplineSet
Substitution2: "'smcp' Lowercase to Small Capitals lookup 16-1" ccedilla.smcp
EndChar

StartChar: egrave
Encoding: 232 232 90
Width: 525
VWidth: 0
Flags: HW
HStem: -7 71<166.51 433.545> 467 74<246.536 457.618> 601 133
VStem: 204.167 193
LayerCount: 2
Fore
SplineSet
204.167 734 m 1
 291.167 734 l 1
 397.167 601 l 1
 328.167 601 l 1
 204.167 734 l 1
163 281 m 1
 163 281 447 250 470 388 c 0
 482 459 438 467 349 467 c 0
 190 467 182 372 163 281 c 1
89 278 m 0
 120 441 158 541 353 541 c 0
 479 541 559 504 544 388 c 0
 516 169 192 212 155 227 c 1
 134 103 153 65 224 64 c 1
 300 58 395 67 473 78 c 1
 465 22 l 1
 381 -1 298 -7 215 -7 c 0
 87 -7 53 84 89 278 c 0
EndSplineSet
Substitution2: "'smcp' Lowercase to Small Capitals lookup 16-1" egrave.smcp
EndChar

StartChar: eacute
Encoding: 233 233 91
Width: 525
VWidth: 0
Flags: HW
HStem: -7 71<166.51 433.545> 467 74<246.536 457.618> 601 133
VStem: 328.167 223
LayerCount: 2
Fore
SplineSet
328.167 601 m 1
 456.167 734 l 1
 551.167 734 l 1
 397.167 601 l 1
 328.167 601 l 1
163 281 m 1
 163 281 447 250 470 388 c 0
 482 459 438 467 349 467 c 0
 190 467 182 372 163 281 c 1
89 278 m 0
 120 441 158 541 353 541 c 0
 479 541 559 504 544 388 c 0
 516 169 192 212 155 227 c 1
 134 103 153 65 224 64 c 1
 300 58 395 67 473 78 c 1
 465 22 l 1
 381 -1 298 -7 215 -7 c 0
 87 -7 53 84 89 278 c 0
EndSplineSet
Substitution2: "'smcp' Lowercase to Small Capitals lookup 16-1" eacute.smcp
EndChar

StartChar: ecircumflex
Encoding: 234 234 92
Width: 525
VWidth: 0
Flags: HW
HStem: -7 71<166.51 433.545> 467 74<246.536 457.618> 601 130
VStem: 216.667 292
DStem2: 216.667 601 296.667 601 0.72789 0.685694<58.2312 180.654> 425.667 731 386.667 684 0.538133 -0.84286<18.6272 119.258>
LayerCount: 2
Fore
SplineSet
216.667 601 m 1
 354.667 731 l 1
 425.667 731 l 1
 508.667 601 l 1
 443.667 601 l 1
 386.667 684 l 1
 296.667 601 l 1
 216.667 601 l 1
163 281 m 1
 163 281 447 250 470 388 c 0
 482 459 438 467 349 467 c 0
 190 467 182 372 163 281 c 1
89 278 m 0
 120 441 158 541 353 541 c 0
 479 541 559 504 544 388 c 0
 516 169 192 212 155 227 c 1
 134 103 153 65 224 64 c 1
 300 58 395 67 473 78 c 1
 465 22 l 1
 381 -1 298 -7 215 -7 c 0
 87 -7 53 84 89 278 c 0
EndSplineSet
Substitution2: "'smcp' Lowercase to Small Capitals lookup 16-1" ecircumflex.smcp
EndChar

StartChar: edieresis
Encoding: 235 235 93
Width: 525
VWidth: 0
Flags: HW
HStem: -7 71<166.51 433.545> 467 74<246.536 457.618> 601 101<206.168 280.118 461.168 535.118>
VStem: 192.749 101<615.143 688.333> 447.749 101<615.143 688.333>
LayerCount: 2
Fore
SplineSet
447.749 652 m 0
 451.749 680 478.749 702 506.749 702 c 0
 534.749 702 552.749 680 548.749 652 c 0
 544.749 624 518.749 601 490.749 601 c 0
 462.749 601 443.749 624 447.749 652 c 0
192.749 652 m 0
 196.749 680 223.749 702 251.749 702 c 0
 279.749 702 297.749 680 293.749 652 c 0
 289.749 624 263.749 601 235.749 601 c 0
 207.749 601 188.749 624 192.749 652 c 0
163 281 m 1
 163 281 447 250 470 388 c 0
 482 459 438 467 349 467 c 0
 190 467 182 372 163 281 c 1
89 278 m 0
 120 441 158 541 353 541 c 0
 479 541 559 504 544 388 c 0
 516 169 192 212 155 227 c 1
 134 103 153 65 224 64 c 1
 300 58 395 67 473 78 c 1
 465 22 l 1
 381 -1 298 -7 215 -7 c 0
 87 -7 53 84 89 278 c 0
EndSplineSet
Substitution2: "'smcp' Lowercase to Small Capitals lookup 16-1" edieresis.smcp
EndChar

StartChar: igrave
Encoding: 236 236 94
Width: 195
VWidth: 0
Flags: HW
HStem: 0 21<60 137.164> 511 20<140.836 218> 596 133
VStem: 32.959 193 60 158
DStem2: 60 0 134 0 0.156249 0.987718<11.5624 537.603>
LayerCount: 2
Fore
SplineSet
32.959 729 m 1
 119.959 729 l 1
 225.959 596 l 1
 156.959 596 l 1
 32.959 729 l 1
60 0 m 1
 144 531 l 1
 218 531 l 1
 134 0 l 1
 60 0 l 1
EndSplineSet
Substitution2: "'smcp' Lowercase to Small Capitals lookup 16-1" igrave.smcp
EndChar

StartChar: iacute
Encoding: 237 237 95
Width: 195
VWidth: 0
Flags: HW
HStem: 0 21<60 137.164> 511 20<140.836 218> 596 133
VStem: 60 158 154.959 223
DStem2: 60 0 134 0 0.156249 0.987718<11.5624 537.603>
LayerCount: 2
Fore
SplineSet
154.959 596 m 1
 282.959 729 l 1
 377.959 729 l 1
 223.959 596 l 1
 154.959 596 l 1
60 0 m 1
 144 531 l 1
 218 531 l 1
 134 0 l 1
 60 0 l 1
EndSplineSet
Substitution2: "'smcp' Lowercase to Small Capitals lookup 16-1" iacute.smcp
EndChar

StartChar: icircumflex
Encoding: 238 238 96
Width: 195
VWidth: 0
Flags: HW
HStem: 0 21<60 137.164> 511 20<140.836 218> 596 130
VStem: 41.459 292 60 158
DStem2: 41.459 596 121.459 596 0.72789 0.685694<58.2312 180.654> 60 0 134 0 0.156249 0.987718<11.5624 537.603> 250.459 726 211.459 679 0.538133 -0.84286<18.6272 119.258>
LayerCount: 2
Fore
SplineSet
41.459 596 m 1
 179.459 726 l 1
 250.459 726 l 1
 333.459 596 l 1
 268.459 596 l 1
 211.459 679 l 1
 121.459 596 l 1
 41.459 596 l 1
60 0 m 1
 144 531 l 1
 218 531 l 1
 134 0 l 1
 60 0 l 1
EndSplineSet
Substitution2: "'smcp' Lowercase to Small Capitals lookup 16-1" icircumflex.smcp
EndChar

StartChar: idieresis
Encoding: 239 239 97
Width: 195
VWidth: 0
Flags: HW
HStem: 0 21<60 137.164> 511 20<140.836 218> 596 101<26.9601 100.91 281.96 355.91>
VStem: 13.541 101<610.143 683.333> 60 158 268.541 101<610.143 683.333>
DStem2: 60 0 134 0 0.156249 0.987718<11.5624 537.603>
LayerCount: 2
Fore
SplineSet
268.541 647 m 0
 272.541 675 299.541 697 327.541 697 c 0
 355.541 697 373.541 675 369.541 647 c 0
 365.541 619 339.541 596 311.541 596 c 0
 283.541 596 264.541 619 268.541 647 c 0
13.541 647 m 0
 17.541 675 44.541 697 72.541 697 c 0
 100.541 697 118.541 675 114.541 647 c 0
 110.541 619 84.541 596 56.541 596 c 0
 28.541 596 9.54102 619 13.541 647 c 0
60 0 m 1
 144 531 l 1
 218 531 l 1
 134 0 l 1
 60 0 l 1
EndSplineSet
Substitution2: "'smcp' Lowercase to Small Capitals lookup 16-1" idieresis.smcp
EndChar

StartChar: eth
Encoding: 240 240 98
Width: 537
VWidth: 0
Flags: HW
HStem: 0 74<166.965 394.367> 457 74<224.587 453.926> 718 65<246 357.042>
DStem2: 246 650 261 590 0.937506 0.34797<0 124.061 237.451 340.916>
LayerCount: 2
Fore
SplineSet
153 258 m 0
 126 96 168 72 223 74 c 1
 331 74 l 1
 385 73 437 96 463 258 c 0
 487 408 473 457 389 457 c 2
 289 457 l 2
 223 457 181 424 153 258 c 0
79 258 m 0
 111 446 162 531 297 531 c 2
 400 531 l 2
 406 531 456 531 468 516 c 1
 461 562 446 611 415 648 c 1
 261 590 l 1
 246 650 l 1
 362 694 l 1
 323 717 273 720 236 718 c 1
 246 783 l 1
 338 783 400 764 446 724 c 1
 571 771 l 1
 587 711 l 1
 490 675 l 1
 571 552 552 354 537 258 c 0
 509 83 458 0 321 0 c 2
 213 0 l 2
 76 0 56 125 79 258 c 0
EndSplineSet
Substitution2: "'smcp' Lowercase to Small Capitals lookup 16-1" eth.smcp
EndChar

StartChar: ograve
Encoding: 242 242 99
Width: 564
VWidth: 0
Flags: HW
HStem: -5 74<188.54 403.394> 462 74<245.365 458.217> 596 133
VStem: 215.167 193
LayerCount: 2
Fore
SplineSet
215.167 729 m 1
 302.167 729 l 1
 408.167 596 l 1
 339.167 596 l 1
 215.167 729 l 1
163 258 m 0
 134 86 190 69 293 69 c 0
 398 69 453 83 483 258 c 0
 512 429 473 462 356 462 c 0
 244 462 194 442 163 258 c 0
89 258 m 0
 123 475 190 536 364 536 c 0
 532 536 588 445 557 258 c 0
 524 61 467 -5 292 -5 c 0
 120 -5 59 68 89 258 c 0
EndSplineSet
Substitution2: "'smcp' Lowercase to Small Capitals lookup 16-1" ograve.smcp
EndChar

StartChar: oacute
Encoding: 243 243 100
Width: 564
VWidth: 0
Flags: HW
HStem: -5 74<188.54 403.394> 462 74<245.365 458.217> 596 133
VStem: 339.167 223
LayerCount: 2
Fore
SplineSet
339.167 596 m 1
 467.167 729 l 1
 562.167 729 l 1
 408.167 596 l 1
 339.167 596 l 1
163 258 m 0
 134 86 190 69 293 69 c 0
 398 69 453 83 483 258 c 0
 512 429 473 462 356 462 c 0
 244 462 194 442 163 258 c 0
89 258 m 0
 123 475 190 536 364 536 c 0
 532 536 588 445 557 258 c 0
 524 61 467 -5 292 -5 c 0
 120 -5 59 68 89 258 c 0
EndSplineSet
Substitution2: "'smcp' Lowercase to Small Capitals lookup 16-1" oacute.smcp
EndChar

StartChar: ocircumflex
Encoding: 244 244 101
Width: 564
VWidth: 0
Flags: HW
HStem: -5 74<188.54 403.394> 462 74<245.365 458.217> 596 130
VStem: 227.667 292
DStem2: 227.667 596 307.667 596 0.72789 0.685694<58.2312 180.654> 436.667 726 397.667 679 0.538133 -0.84286<18.6272 119.258>
LayerCount: 2
Fore
SplineSet
227.667 596 m 1
 365.667 726 l 1
 436.667 726 l 1
 519.667 596 l 1
 454.667 596 l 1
 397.667 679 l 1
 307.667 596 l 1
 227.667 596 l 1
163 258 m 0
 134 86 190 69 293 69 c 0
 398 69 453 83 483 258 c 0
 512 429 473 462 356 462 c 0
 244 462 194 442 163 258 c 0
89 258 m 0
 123 475 190 536 364 536 c 0
 532 536 588 445 557 258 c 0
 524 61 467 -5 292 -5 c 0
 120 -5 59 68 89 258 c 0
EndSplineSet
Substitution2: "'smcp' Lowercase to Small Capitals lookup 16-1" ocircumflex.smcp
EndChar

StartChar: otilde
Encoding: 245 245 102
Width: 564
VWidth: 0
Flags: HW
HStem: -5 74<188.54 403.394> 462 74<245.365 458.217> 597 70<386.21 492.715> 631 70<272.365 378.116>
LayerCount: 2
Fore
SplineSet
210.407 637 m 1
 255.407 670 297.407 701 338.407 701 c 1
 388.407 698 410.407 668 438.407 667 c 0
 462.407 666 532.407 697 538.407 701 c 1
 553.407 659 l 1
 510.407 632 471.407 596 427.407 597 c 0
 371.407 598 361.407 632 325.407 631 c 0
 281.407 630 257.407 610 225.407 596 c 1
 210.407 637 l 1
163 258 m 0
 134 86 190 69 293 69 c 0
 398 69 453 83 483 258 c 0
 512 429 473 462 356 462 c 0
 244 462 194 442 163 258 c 0
89 258 m 0
 123 475 190 536 364 536 c 0
 532 536 588 445 557 258 c 0
 524 61 467 -5 292 -5 c 0
 120 -5 59 68 89 258 c 0
EndSplineSet
Substitution2: "'smcp' Lowercase to Small Capitals lookup 16-1" otilde.smcp
EndChar

StartChar: odieresis
Encoding: 246 246 103
Width: 564
VWidth: 0
Flags: HW
HStem: -5 74<188.54 403.394> 462 74<245.365 458.217> 596 101<217.168 291.118 472.168 546.118>
VStem: 203.749 101<610.143 683.333> 458.749 101<610.143 683.333>
LayerCount: 2
Fore
SplineSet
458.749 647 m 0
 462.749 675 489.749 697 517.749 697 c 0
 545.749 697 563.749 675 559.749 647 c 0
 555.749 619 529.749 596 501.749 596 c 0
 473.749 596 454.749 619 458.749 647 c 0
203.749 647 m 0
 207.749 675 234.749 697 262.749 697 c 0
 290.749 697 308.749 675 304.749 647 c 0
 300.749 619 274.749 596 246.749 596 c 0
 218.749 596 199.749 619 203.749 647 c 0
163 258 m 0
 134 86 190 69 293 69 c 0
 398 69 453 83 483 258 c 0
 512 429 473 462 356 462 c 0
 244 462 194 442 163 258 c 0
89 258 m 0
 123 475 190 536 364 536 c 0
 532 536 588 445 557 258 c 0
 524 61 467 -5 292 -5 c 0
 120 -5 59 68 89 258 c 0
EndSplineSet
Substitution2: "'smcp' Lowercase to Small Capitals lookup 16-1" odieresis.smcp
EndChar

StartChar: ntilde
Encoding: 241 241 104
Width: 544
VWidth: 0
Flags: HW
HStem: 0 21<60 137.178 420 497.189> 466 74<309.154 462.151> 511 20<140.836 199.871> 601 70<384.893 491.398> 635 70<271.048 376.799>
VStem: 144 55<503.444 531>
DStem2: 420 0 494 0 0.15747 0.987524<11.6528 438.112>
LayerCount: 2
Fore
SplineSet
209.09 641 m 1
 254.09 674 296.09 705 337.09 705 c 1
 387.09 702 409.09 672 437.09 671 c 0
 461.09 670 531.09 701 537.09 705 c 1
 552.09 663 l 1
 509.09 636 470.09 600 426.09 601 c 0
 370.09 602 360.09 636 324.09 635 c 0
 280.09 634 256.09 614 224.09 600 c 1
 209.09 641 l 1
60 0 m 1
 144 531 l 1
 196 531 l 1
 208 469 l 1
 275 504 335 540 416 540 c 0
 522 540 567 458 553 370 c 2
 494 0 l 1
 420 0 l 1
 479 370 l 2
 489 436 455 466 404 466 c 0
 324 466 282 446 199 409 c 1
 134 0 l 1
 60 0 l 1
EndSplineSet
AlternateSubs2: "'salt' Access All Alternates in Latin lookup 4-1" ntilde.salt
Substitution2: "'smcp' Lowercase to Small Capitals lookup 16-1" ntilde.smcp
EndChar

StartChar: oslash
Encoding: 248 248 105
Width: 568
VWidth: 0
Flags: HW
HStem: -5 74<192.929 404.973> 462 74<247.057 448.274>
DStem2: 51 0 112 0 0.669042 0.743225<40.8116 87.4441 169.991 595.235 671.192 711.109>
LayerCount: 2
Fore
SplineSet
192 89 m 1
 216 72 251 69 295 69 c 0
 400 69 455 83 485 258 c 0
 498 333 497 381 483 412 c 1
 192 89 l 1
164 127 m 1
 449 447 l 1
 427 458 396 462 357 462 c 0
 245 462 196 442 165 258 c 0
 155 197 155 155 164 127 c 1
51 0 m 1
 109 65 l 1
 82 107 77 170 91 258 c 0
 125 475 192 536 366 536 c 0
 423 536 468 525 500 504 c 1
 524 531 l 1
 590 531 l 1
 535 470 l 1
 568 424 575 353 559 258 c 0
 526 61 468 -5 293 -5 c 0
 225 -5 175 7 141 32 c 1
 112 0 l 1
 51 0 l 1
EndSplineSet
Substitution2: "'smcp' Lowercase to Small Capitals lookup 16-1" oslash.smcp
EndChar

StartChar: thorn
Encoding: 254 254 106
Width: 550
VWidth: 0
Flags: HW
HStem: -10 74<198.005 404.69> 762 20G<190.825 268>
DStem2: 27 -270 101 -270 0.156782 0.987633<11.6019 314.273 372.655 717.332 761.782 1065.17>
LayerCount: 2
Fore
SplineSet
158 89 m 1
 236 66 290 67 343 64 c 1
 400 64 459 103 481 269 c 0
 497 394 470 472 410 467 c 1
 344 463 276 440 210 416 c 1
 158 89 l 1
27 -270 m 1
 194 782 l 1
 268 782 l 1
 218 471 l 1
 247 490 356 540 424 540 c 0
 542 540 574 388 556 267 c 0
 541 167 515 -10 337 -10 c 0
 292 -10 208 3 148 29 c 1
 101 -270 l 1
 27 -270 l 1
EndSplineSet
Substitution2: "'smcp' Lowercase to Small Capitals lookup 16-1" thorn.smcp
EndChar

StartChar: ugrave
Encoding: 249 249 107
Width: 543
VWidth: 0
Flags: HW
HStem: -9 74<163.132 319.608> 0 21<428.129 487.164> 511 20<130.865 208 490.87 568> 596 133
VStem: 202.959 193 432 52<0 36.1667>
DStem2: 76 161 150 161 0.154866 0.987935<-58.2599 374.518> 430 122 484 0 0.156249 0.987718<-13.322 413.976>
LayerCount: 2
Fore
SplineSet
202.959 729 m 1
 289.959 729 l 1
 395.959 596 l 1
 326.959 596 l 1
 202.959 729 l 1
76 161 m 2
 134 531 l 1
 208 531 l 1
 150 161 l 2
 138 85 174 65 225 65 c 0
 305 65 347 85 430 122 c 1
 494 531 l 1
 568 531 l 1
 484 0 l 1
 432 0 l 1
 420 62 l 1
 353 27 294 -9 213 -9 c 0
 107 -9 61 66 76 161 c 2
EndSplineSet
AlternateSubs2: "'salt' Access All Alternates in Latin lookup 4-1" ugrave.salt
Substitution2: "'smcp' Lowercase to Small Capitals lookup 16-1" ugrave.smcp
EndChar

StartChar: uacute
Encoding: 250 250 108
Width: 543
VWidth: 0
Flags: HW
HStem: -9 74<163.132 319.608> 0 21<428.129 487.164> 511 20<130.865 208 490.87 568> 596 133
VStem: 326.959 223 432 52<0 36.1667>
DStem2: 76 161 150 161 0.154866 0.987936<-58.2599 374.518> 430 122 484 0 0.156249 0.987718<-13.322 413.976>
LayerCount: 2
Fore
SplineSet
326.959 596 m 1
 454.959 729 l 1
 549.959 729 l 1
 395.959 596 l 1
 326.959 596 l 1
76 161 m 2
 134 531 l 1
 208 531 l 1
 150 161 l 2
 138 85 174 65 225 65 c 0
 305 65 347 85 430 122 c 1
 494 531 l 1
 568 531 l 1
 484 0 l 1
 432 0 l 1
 420 62 l 1
 353 27 294 -9 213 -9 c 0
 107 -9 61 66 76 161 c 2
EndSplineSet
AlternateSubs2: "'salt' Access All Alternates in Latin lookup 4-1" uacute.salt
Substitution2: "'smcp' Lowercase to Small Capitals lookup 16-1" uacute.smcp
EndChar

StartChar: ucircumflex
Encoding: 251 251 109
Width: 543
VWidth: 0
Flags: HW
HStem: -9 74<163.132 319.608> 0 21<428.129 487.164> 511 20<130.865 208 490.87 568> 596 130
VStem: 215.459 292 432 52<0 36.1667>
DStem2: 76 161 150 161 0.154866 0.987935<-58.2599 374.518> 215.459 596 295.459 596 0.72789 0.685694<58.2312 180.654> 424.459 726 385.459 679 0.538133 -0.84286<18.6272 119.258> 430 122 484 0 0.156249 0.987718<-13.322 413.976>
LayerCount: 2
Fore
SplineSet
215.459 596 m 1
 353.459 726 l 1
 424.459 726 l 1
 507.459 596 l 1
 442.459 596 l 1
 385.459 679 l 1
 295.459 596 l 1
 215.459 596 l 1
76 161 m 2
 134 531 l 1
 208 531 l 1
 150 161 l 2
 138 85 174 65 225 65 c 0
 305 65 347 85 430 122 c 1
 494 531 l 1
 568 531 l 1
 484 0 l 1
 432 0 l 1
 420 62 l 1
 353 27 294 -9 213 -9 c 0
 107 -9 61 66 76 161 c 2
EndSplineSet
AlternateSubs2: "'salt' Access All Alternates in Latin lookup 4-1" ucircumflex.salt
Substitution2: "'smcp' Lowercase to Small Capitals lookup 16-1" ucircumflex.smcp
EndChar

StartChar: udieresis
Encoding: 252 252 110
Width: 543
VWidth: 0
Flags: HW
HStem: -9 74<163.132 319.608> 0 21<428.129 487.164> 511 20<130.865 208 490.87 568> 596 101<204.96 278.91 459.96 533.91>
VStem: 191.541 101<610.143 683.333> 432 52<0 36.1667> 446.541 101<610.143 683.333>
DStem2: 76 161 150 161 0.154866 0.987935<-58.2599 374.518> 430 122 484 0 0.156249 0.987718<-13.322 413.976>
LayerCount: 2
Fore
SplineSet
446.541 647 m 0
 450.541 675 477.541 697 505.541 697 c 0
 533.541 697 551.541 675 547.541 647 c 0
 543.541 619 517.541 596 489.541 596 c 0
 461.541 596 442.541 619 446.541 647 c 0
191.541 647 m 0
 195.541 675 222.541 697 250.541 697 c 0
 278.541 697 296.541 675 292.541 647 c 0
 288.541 619 262.541 596 234.541 596 c 0
 206.541 596 187.541 619 191.541 647 c 0
76 161 m 2
 134 531 l 1
 208 531 l 1
 150 161 l 2
 138 85 174 65 225 65 c 0
 305 65 347 85 430 122 c 1
 494 531 l 1
 568 531 l 1
 484 0 l 1
 432 0 l 1
 420 62 l 1
 353 27 294 -9 213 -9 c 0
 107 -9 61 66 76 161 c 2
EndSplineSet
AlternateSubs2: "'salt' Access All Alternates in Latin lookup 4-1" udieresis.salt
Substitution2: "'smcp' Lowercase to Small Capitals lookup 16-1" udieresis.smcp
EndChar

StartChar: yacute
Encoding: 253 253 111
Width: 549
VWidth: 0
Flags: HW
HStem: -269 53<98 123.168> 511 20<94 174.084> 591 133
VStem: 314 223
DStem2: 171 531 94 531 0.147996 -0.988988<0 455.994> 265 0 352 1 0.454279 0.890859<-187.811 0 75.4853 589.465>
LayerCount: 2
Fore
SplineSet
314 591 m 1
 442 724 l 1
 537 724 l 1
 383 591 l 1
 314 591 l 1
94 531 m 1
 171 531 l 1
 235 116 l 2
 243 67 303 77 303 77 c 1
 496 453 l 2
 510 480 515 496 521 533 c 1
 582 533 l 1
 593 500 589 468 573 437 c 2
 352 1 l 2
 272 -155 209 -247 98 -269 c 1
 98 -216 l 1
 179 -163 228 -71 265 0 c 1
 240 0 172 10 157 110 c 2
 94 531 l 1
EndSplineSet
Substitution2: "'smcp' Lowercase to Small Capitals lookup 16-1" yacute.smcp
EndChar

StartChar: ydieresis
Encoding: 255 255 112
Width: 549
VWidth: 0
Flags: HW
HStem: -269 53<98 123.168> 511 20<94 174.084> 591 101<192.419 266.369 447.419 521.369>
VStem: 179 101<605.143 678.333> 434 101<605.143 678.333>
DStem2: 171 531 94 531 0.147996 -0.988988<0 455.994> 265 0 352 1 0.454279 0.890859<-187.811 0 75.4853 589.465>
LayerCount: 2
Fore
SplineSet
434 642 m 0
 438 670 465 692 493 692 c 0
 521 692 539 670 535 642 c 0
 531 614 505 591 477 591 c 0
 449 591 430 614 434 642 c 0
179 642 m 0
 183 670 210 692 238 692 c 0
 266 692 284 670 280 642 c 0
 276 614 250 591 222 591 c 0
 194 591 175 614 179 642 c 0
94 531 m 1
 171 531 l 1
 235 116 l 2
 243 67 303 77 303 77 c 1
 496 453 l 2
 510 480 515 496 521 533 c 1
 582 533 l 1
 593 500 589 468 573 437 c 2
 352 1 l 2
 272 -155 209 -247 98 -269 c 1
 98 -216 l 1
 179 -163 228 -71 265 0 c 1
 240 0 172 10 157 110 c 2
 94 531 l 1
EndSplineSet
Substitution2: "'smcp' Lowercase to Small Capitals lookup 16-1" ydieresis.smcp
EndChar

StartChar: Thorn
Encoding: 222 222 113
Width: 555
VWidth: 0
Flags: HW
HStem: 0 21G<60 137.218> 154 74<170.927 436.559> 513 75<227 471.056>
DStem2: 60 0 134 0 0.155823 0.987785<11.5309 187.769 242.356 530.886 606.84 738.015>
LayerCount: 2
Fore
SplineSet
170 228 m 1
 367 228 l 2
 427 228 469 244 490 377 c 1
 509 508 442 513 412 513 c 2
 215 513 l 1
 170 228 l 1
60 0 m 1
 98 243 137 486 175 729 c 1
 249 729 l 1
 227 588 l 1
 424 588 l 2
 485 588 588 555 566 375 c 0
 541 165 446 154 359 154 c 0
 319 154 224 153 162 174 c 1
 134 0 l 1
 60 0 l 1
EndSplineSet
Substitution2: "'c2sc' Capitals to Small Capitals in Latin lookup 17 subtable" thorn.smcp
EndChar

StartChar: uni00B5
Encoding: 181 181 114
Width: 594
VWidth: 0
Flags: HW
HStem: -9 74<205.008 358.846> 0 21G<468.129 527.164> 511 20G<170.811 248 530.822 608>
VStem: 472 52<0 36.1667>
DStem2: 47 -270 121 -270 0.156596 0.987663<11.5881 301.106 382.379 811.006> 469 122 524 0 0.156249 0.987718<-13.322 414.133>
LayerCount: 2
Fore
SplineSet
47 -270 m 1
 115 161 l 1
 174 531 l 1
 248 531 l 1
 189 161 l 2
 179 95 213 65 264 65 c 0
 344 65 386 85 469 122 c 1
 534 531 l 1
 608 531 l 1
 524 0 l 1
 472 0 l 1
 460 62 l 1
 393 27 333 -9 252 -9 c 0
 216 -9 188 0 166 16 c 1
 121 -270 l 1
 47 -270 l 1
EndSplineSet
EndChar

StartChar: germandbls
Encoding: 223 223 115
Width: 570
VWidth: 0
Flags: HW
HStem: -8 74<229.14 464.911> 0 21G<60 137.18> 703 74<297.492 511.136>
DStem2: 60 0 134 0 0.157038 0.987593<11.6208 672.641> 492 132 569 124 0.147311 0.98909<-47.1476 70.5513>
LayerCount: 2
Fore
SplineSet
60 0 m 1
 150 566 l 2
 168 682 239 777 406 777 c 0
 701 777 623 516 512 453 c 0
 469 429 410 411 400 352 c 0
 383 253 600 321 576 171 c 1
 569 124 l 2
 553 15 454 -8 391 -8 c 0
 323 -8 258 7 221 11 c 1
 230 71 l 1
 270 71 337 66 406 66 c 0
 448 66 484 92 492 132 c 2
 499 169 l 1
 512 251 299 194 322 348 c 0
 333 424 348 446 466 510 c 0
 504 531 529 568 535 612 c 0
 545 692 488 703 404 703 c 0
 316 703 242 680 224 566 c 2
 134 0 l 1
 60 0 l 1
EndSplineSet
Substitution2: "'smcp' Lowercase to Small Capitals lookup 16-1" germandbls.smcp
EndChar

StartChar: asciitilde
Encoding: 126 126 116
Width: 438
VWidth: 0
Flags: HW
HStem: 531 74<312.864 420.223> 566 74<200.918 309.968>
LayerCount: 2
Fore
SplineSet
140 572 m 1
 185 605 215 640 268 640 c 0
 312 640 328 605 368 605 c 0
 407 605 439 629 468 645 c 1
 483 603 l 1
 452 578 410 531 357 531 c 0
 312 531 292 566 253 566 c 0
 214 566 193 545 155 531 c 1
 140 572 l 1
EndSplineSet
EndChar

StartChar: asciicircum
Encoding: 94 94 117
Width: 392
VWidth: 0
Flags: HW
HStem: 531 131
VStem: 134 292
DStem2: 134 531 218 531 0.725262 0.688473<60.922 179.098> 343 662 305 611 0.535205 -0.844722<22.743 118.151>
LayerCount: 2
Fore
SplineSet
134 531 m 1
 272 662 l 1
 343 662 l 1
 426 531 l 1
 357 531 l 1
 305 611 l 1
 218 531 l 1
 134 531 l 1
EndSplineSet
EndChar

StartChar: grave
Encoding: 96 96 118
Width: 254
VWidth: 0
Flags: HW
HStem: 531 133
VStem: 125 193
LayerCount: 2
Fore
SplineSet
125 664 m 1
 212 664 l 1
 318 531 l 1
 249 531 l 1
 125 664 l 1
EndSplineSet
Substitution2: "'smcp' Lowercase to Small Capitals lookup 16-1" grave.smcp
EndChar

StartChar: dieresis
Encoding: 168 168 119
Width: 456
VWidth: 0
Flags: HW
HStem: 531 101<155.419 229.369 410.419 484.369>
VStem: 142 101<545.143 618.333> 397 101<545.143 618.333>
LayerCount: 2
Fore
SplineSet
397 582 m 0
 401 610 428 632 456 632 c 0
 484 632 502 610 498 582 c 0
 494 554 468 531 440 531 c 0
 412 531 393 554 397 582 c 0
142 582 m 0
 146 610 173 632 201 632 c 0
 229 632 247 610 243 582 c 0
 239 554 213 531 185 531 c 0
 157 531 138 554 142 582 c 0
EndSplineSet
Substitution2: "'smcp' Lowercase to Small Capitals lookup 16-1" dieresis.smcp
EndChar

StartChar: acute
Encoding: 180 180 120
Width: 242
VWidth: 0
Flags: HW
HStem: 531 133
VStem: 104 223
LayerCount: 2
Fore
SplineSet
104 531 m 1
 232 664 l 1
 327 664 l 1
 173 531 l 1
 104 531 l 1
EndSplineSet
Substitution2: "'smcp' Lowercase to Small Capitals lookup 16-1" acute.smcp
EndChar

StartChar: cedilla
Encoding: 184 184 121
Width: 251
VWidth: 0
Flags: HW
HStem: -173 37<28 53.6667>
VStem: 129 67<-101.281 -37>
LayerCount: 2
Fore
SplineSet
22 -173 m 1
 28 -136 l 1
 83 -121 l 1
 113 -109 123 -75 129 -37 c 1
 196 -37 l 1
 180 -139 153 -173 73 -173 c 2
 22 -173 l 1
EndSplineSet
EndChar

StartChar: exclam
Encoding: 33 33 122
Width: 265
VWidth: 0
Flags: HW
HStem: 0 105<94.6143 186.578> 711 20G<196.1 288>
VStem: 122 75<200 240.846>
DStem2: 94 80 196 80 0.158969 0.987284<-67.9834 28.4818 286.406 659.413>
LayerCount: 2
Fore
SplineSet
122 200 m 1
 199 731 l 1
 288 731 l 1
 197 200 l 1
 122 200 l 1
85 23 m 2
 94 80 l 2
 96 95 106 105 122 105 c 2
 177 105 l 2
 192 105 198 94 196 80 c 2
 187 23 l 2
 185 8 175 0 161 0 c 2
 106 0 l 2
 92 0 83 9 85 23 c 2
EndSplineSet
Substitution2: "'smcp' Lowercase to Small Capitals lookup 16-1" exclam.smcp
EndChar

StartChar: degree
Encoding: 176 176 123
Width: 300
VWidth: 0
Flags: HW
HStem: 530 48<205.98 292.492> 687 48<207.507 292.098>
VStem: 148 47<589.6 674.795> 304 47<589.206 675.2>
LayerCount: 2
Fore
SplineSet
195 632 m 0
 195 602 220 578 250 578 c 0
 280 578 304 602 304 632 c 0
 304 662 280 687 250 687 c 0
 220 687 195 662 195 632 c 0
148 632 m 0
 148 689 194 735 250 735 c 0
 306 735 351 689 351 632 c 0
 351 575 306 530 250 530 c 0
 194 530 148 575 148 632 c 0
EndSplineSet
Substitution2: "'smcp' Lowercase to Small Capitals lookup 16-1" degree.smcp
EndChar

StartChar: period
Encoding: 46 46 124
Width: 271
VWidth: 0
Flags: HW
HStem: 0 105<97.6143 189.297>
VStem: 88 111
LayerCount: 2
Fore
SplineSet
88 23 m 2
 97 80 l 2
 99 95 109 105 125 105 c 2
 178 105 l 2
 196 105 202 96 199 80 c 2
 190 23 l 2
 187 5 176 0 162 0 c 2
 109 0 l 2
 95 0 86 9 88 23 c 2
EndSplineSet
EndChar

StartChar: periodcentered
Encoding: 183 183 125
Width: 271
VWidth: 0
Flags: HW
HStem: 331 105<149.614 241.297>
VStem: 140 111
LayerCount: 2
Fore
SplineSet
140 354 m 2
 149 411 l 2
 151 426 161 436 177 436 c 2
 230 436 l 2
 248 436 254 427 251 411 c 2
 242 354 l 2
 239 336 228 331 214 331 c 2
 161 331 l 2
 147 331 138 340 140 354 c 2
EndSplineSet
Substitution2: "'smcp' Lowercase to Small Capitals lookup 16-1" periodcentered.smcp
EndChar

StartChar: comma
Encoding: 44 44 126
Width: 268
VWidth: 0
Flags: HW
HStem: -88 32<81 112.31>
VStem: 76 121
DStem2: 89 25 183 -11 0.124766 0.992186<-20.7008 83.5181>
LayerCount: 2
Fore
SplineSet
76 -88 m 1
 81 -56 l 1
 111 -57 115 -36 117 -25 c 2
 121 0 l 1
 110 0 l 2
 96 0 86 8 89 25 c 2
 97 79 l 2
 100 97 111 106 127 106 c 2
 178 106 l 2
 196 106 199 94 197 79 c 2
 183 -11 l 2
 168 -106 76 -88 76 -88 c 1
EndSplineSet
EndChar

StartChar: bullet
Encoding: 256 8226 127
Width: 310
VWidth: 0
Flags: HW
HStem: 309 147<155.075 277.906>
VStem: 139 154
LayerCount: 2
Fore
SplineSet
139 341 m 2
 151 421 l 2
 154 442 168 456 190 456 c 2
 264 456 l 2
 289 456 296 443 293 421 c 2
 281 341 l 2
 277 317 260 309 240 309 c 2
 166 309 l 2
 146 309 136 321 139 341 c 2
EndSplineSet
Substitution2: "'smcp' Lowercase to Small Capitals lookup 16-1" bullet.smcp
EndChar

StartChar: quoteleft
Encoding: 257 8216 128
Width: 270
VWidth: 0
Flags: HW
HStem: 695 35<261.579 296>
VStem: 168 134
LayerCount: 2
Fore
SplineSet
168 547 m 2
 183 646 l 1
 200 750 302 730 302 730 c 1
 296 695 l 1
 263 696 258 673 256 661 c 2
 252 633 l 1
 264 633 l 2
 279 633 290 625 287 606 c 2
 278 547 l 2
 275 527 263 517 245 517 c 2
 189 517 l 2
 169 517 165 531 168 547 c 2
EndSplineSet
Substitution2: "'smcp' Lowercase to Small Capitals lookup 16-1" quoteleft.smcp
EndChar

StartChar: quoteright
Encoding: 258 8217 129
Width: 270
VWidth: 0
Flags: HW
HStem: 518 36<175 209.037> 712 20G<216 291>
VStem: 169 134
LayerCount: 2
Fore
SplineSet
169 518 m 1
 175 554 l 1
 208 553 212 576 214 588 c 2
 218 615 l 1
 206 615 l 2
 191 615 180 624 183 643 c 2
 193 702 l 2
 196 722 207 732 225 732 c 2
 281 732 l 2
 301 732 306 718 303 702 c 2
 287 603 l 2
 270 499 169 518 169 518 c 1
EndSplineSet
Substitution2: "'smcp' Lowercase to Small Capitals lookup 16-1" quoteright.smcp
EndChar

StartChar: quotesinglbase
Encoding: 259 8218 130
Width: 269
VWidth: 0
Flags: HW
HStem: -98 35<76 109.762>
VStem: 70 134
DStem2: 84 27 188 -13 0.129339 0.9916<-23.1174 91.4815>
LayerCount: 2
Fore
SplineSet
70 -98 m 1
 76 -63 l 1
 109 -64 113 -40 115 -28 c 2
 119 -1 l 1
 107 -1 l 2
 92 -1 81 8 84 27 c 2
 94 86 l 2
 97 106 108 116 126 116 c 2
 182 116 l 2
 202 116 207 102 204 86 c 2
 188 -13 l 2
 171 -117 70 -98 70 -98 c 1
EndSplineSet
Substitution2: "'smcp' Lowercase to Small Capitals lookup 16-1" quotesinglbase.smcp
EndChar

StartChar: quotedblleft
Encoding: 260 8220 131
Width: 414
VWidth: 0
Flags: HW
HStem: 517 116<245 268.946 405 428.946> 695 35<254.207 289 414.207 449>
VStem: 161 293
LayerCount: 2
Fore
SplineSet
321 547 m 2
 336 646 l 1
 353 750 454 730 454 730 c 1
 449 695 l 1
 416 696 411 673 409 661 c 2
 405 633 l 1
 417 633 l 2
 432 633 443 625 440 606 c 2
 431 547 l 2
 428 527 416 517 398 517 c 2
 342 517 l 2
 322 517 318 531 321 547 c 2
161 547 m 2
 176 646 l 1
 193 750 294 730 294 730 c 1
 289 695 l 1
 256 696 251 673 249 661 c 2
 245 633 l 1
 257 633 l 2
 272 633 283 625 280 606 c 2
 271 547 l 2
 268 527 256 517 238 517 c 2
 182 517 l 2
 162 517 158 531 161 547 c 2
EndSplineSet
Substitution2: "'smcp' Lowercase to Small Capitals lookup 16-1" quotedblleft.smcp
EndChar

StartChar: quotedblright
Encoding: 261 8221 132
Width: 415
VWidth: 0
Flags: HW
HStem: 518 36<167 201.037 327 361.037> 712 20G<208 283 368 443>
VStem: 161 294
LayerCount: 2
Fore
SplineSet
321 518 m 1
 327 554 l 1
 360 553 364 576 366 588 c 2
 370 615 l 1
 358 615 l 2
 343 615 332 624 335 643 c 2
 345 702 l 2
 348 722 359 732 377 732 c 2
 433 732 l 2
 453 732 458 718 455 702 c 2
 439 603 l 2
 422 499 321 518 321 518 c 1
161 518 m 1
 167 554 l 1
 200 553 204 576 206 588 c 2
 210 615 l 1
 198 615 l 2
 183 615 172 624 175 643 c 2
 185 702 l 2
 188 722 199 732 217 732 c 2
 273 732 l 2
 293 732 298 718 295 702 c 2
 279 603 l 2
 262 499 161 518 161 518 c 1
EndSplineSet
Substitution2: "'smcp' Lowercase to Small Capitals lookup 16-1" quotedblright.smcp
EndChar

StartChar: quotedblbase
Encoding: 262 8222 133
Width: 414
VWidth: 0
Flags: HW
HStem: -97 35<68 101.762 228 261.762>
VStem: 62 294
LayerCount: 2
Fore
SplineSet
222 -97 m 1
 228 -62 l 1
 261 -63 265 -39 267 -27 c 2
 271 0 l 1
 259 0 l 2
 244 0 233 9 236 28 c 2
 246 87 l 2
 249 107 260 117 278 117 c 2
 334 117 l 2
 354 117 359 103 356 87 c 2
 340 -12 l 2
 323 -116 222 -97 222 -97 c 1
62 -97 m 1
 68 -62 l 1
 101 -63 105 -39 107 -27 c 2
 111 0 l 1
 99 0 l 2
 84 0 73 9 76 28 c 2
 86 87 l 2
 89 107 100 117 118 117 c 2
 174 117 l 2
 194 117 199 103 196 87 c 2
 180 -12 l 2
 163 -116 62 -97 62 -97 c 1
EndSplineSet
Substitution2: "'smcp' Lowercase to Small Capitals lookup 16-1" quotedblbase.smcp
EndChar

StartChar: colon
Encoding: 58 58 134
Width: 272
VWidth: 0
Flags: HW
HStem: 0 105<97.6143 189.297> 427 105<165.7 257.297>
VStem: 88 179
DStem2: 97 80 199 80 0.157115 0.98758<-67.9882 28.6769 364.362 460.633>
LayerCount: 2
Fore
SplineSet
156 450 m 2
 165 507 l 2
 167 522 177 532 193 532 c 2
 246 532 l 2
 264 532 270 523 267 507 c 2
 258 450 l 2
 255 432 243 427 229 427 c 2
 176 427 l 2
 162 427 154 436 156 450 c 2
88 23 m 2
 97 80 l 2
 99 95 109 105 125 105 c 2
 178 105 l 2
 196 105 202 96 199 80 c 2
 190 23 l 2
 187 5 176 0 162 0 c 2
 109 0 l 2
 95 0 86 9 88 23 c 2
EndSplineSet
EndChar

StartChar: semicolon
Encoding: 59 59 135
Width: 272
VWidth: 0
Flags: HW
HStem: -88 32<81 112.31> 428 105<167.614 259.297>
VStem: 76 193
DStem2: 89 25 183 -11 0.150935 0.988544<-19.6863 84.9633 419.415 516.344>
LayerCount: 2
Fore
SplineSet
158 451 m 2
 167 508 l 2
 169 523 179 533 195 533 c 2
 248 533 l 2
 266 533 272 524 269 508 c 2
 260 451 l 2
 257 433 246 428 232 428 c 2
 179 428 l 2
 165 428 156 437 158 451 c 2
76 -88 m 1
 81 -56 l 1
 111 -57 115 -36 117 -25 c 2
 121 0 l 1
 110 0 l 2
 96 0 87 13 89 25 c 2
 97 79 l 2
 99 93 112 106 127 106 c 2
 178 106 l 2
 193 106 199 94 197 79 c 2
 183 -11 l 2
 168 -106 76 -88 76 -88 c 1
EndSplineSet
EndChar

StartChar: quotedbl
Encoding: 34 34 136
Width: 381
VWidth: 0
Flags: HW
HStem: 531 201<201 234 336 369>
VStem: 180 231
LayerCount: 2
Fore
SplineSet
315 531 m 1
 325 665 l 1
 336 732 l 1
 411 732 l 1
 400 665 l 1
 369 531 l 1
 315 531 l 1
180 531 m 1
 190 665 l 1
 201 732 l 1
 276 732 l 1
 265 665 l 1
 234 531 l 1
 180 531 l 1
EndSplineSet
Substitution2: "'smcp' Lowercase to Small Capitals lookup 16-1" quotedbl.smcp
EndChar

StartChar: exclamdown
Encoding: 161 161 137
Width: 271
VWidth: 0
Flags: HW
HStem: 360 102<155.297 242.813>
VStem: 45 207
LayerCount: 2
Fore
SplineSet
147 385 m 1
 155 439 l 2
 157 453 169 461 183 462 c 1
 232 462 l 1
 244 461 254 450 252 436 c 2
 244 385 l 1
 241 373 234 364 220 360 c 1
 164 360 l 1
 151 361 146 371 147 385 c 1
45 -269 m 1
 140 262 l 1
 215 262 l 1
 142 -269 l 1
 45 -269 l 1
EndSplineSet
Substitution2: "'smcp' Lowercase to Small Capitals lookup 16-1" exclamdown.smcp
Substitution2: "'case' Case-Sensitive Forms lookup 1-1" exclamdown.alt
EndChar

StartChar: zero
Encoding: 48 48 138
Width: 642
VWidth: 0
Flags: HW
HStem: 0 74<177.125 486.047> 658 74<270.574 575.884>
DStem2: 95 162 169 162 0.15733 0.987546<-54.7638 489.68> 524 162 598 162 0.15733 0.987546<-66.5489 475.868>
LayerCount: 2
Fore
SplineSet
169 162 m 2
 155 71 205 74 253 74 c 2
 417 74 l 2
 481 74 515 108 524 162 c 2
 589 570 l 2
 598 627 584 658 510 658 c 2
 346 658 l 2
 267 658 241 616 234 570 c 2
 169 162 l 2
95 162 m 2
 160 570 l 2
 178 685 248 732 357 732 c 2
 521 732 l 2
 642 732 676 649 663 570 c 2
 598 162 l 2
 579 43 513 0 405 0 c 2
 241 0 l 2
 150 0 76 42 95 162 c 2
EndSplineSet
Substitution2: "'dnom' Denominators lookup 0 subtable" zero.denominator
Substitution2: "'sups' Superscript lookup 2 subtable" zerosuperior
Substitution2: "'onum' Oldstyle Figures in Latin lookup 5-1" zero.oldstyle
Substitution2: "'tnum' Tabular Numbers in Latin lookup 7-1" zero.tnum
Substitution2: "'numr' Numerators lookup 9 subtable" zero.numerator
Substitution2: "'zero' Slashed Zero lookup 20-1" uni0338
Substitution2: "'sinf' Scientific Inferiors lookup 3-1" zeroinferior
Substitution2: "'frac' Diagonal Fractions lookup 13-1" zero.numerator
Substitution2: "'smcp' Lowercase to Small Capitals lookup 16-1" zero.smcp
EndChar

StartChar: one
Encoding: 49 49 139
Width: 361
VWidth: 0
Flags: HW
HStem: 0 21G<208 285.115> 594 53<142 232.363> 712 20G<281.176 396>
VStem: 134 262
DStem2: 208 0 282 0 0.153883 0.988089<11.3873 645.109>
LayerCount: 2
Fore
SplineSet
134 594 m 1
 142 647 l 1
 242 647 324 732 324 732 c 1
 396 732 l 1
 282 0 l 1
 208 0 l 1
 310 637 l 1
 289 621 230 594 134 594 c 1
EndSplineSet
Substitution2: "'dnom' Denominators lookup 0 subtable" one.denominator
Substitution2: "'sups' Superscript lookup 2 subtable" onesuperior
Substitution2: "'onum' Oldstyle Figures in Latin lookup 5-1" one.oldstyle
Substitution2: "'tnum' Tabular Numbers in Latin lookup 7-1" one.tnum
Substitution2: "'numr' Numerators lookup 9 subtable" one.numerator
Substitution2: "'sinf' Scientific Inferiors lookup 3-1" oneinferior
Substitution2: "'frac' Diagonal Fractions lookup 13-1" one.numerator
Substitution2: "'smcp' Lowercase to Small Capitals lookup 16-1" one.smcp
EndChar

StartChar: two
Encoding: 50 50 140
Width: 595
VWidth: 0
Flags: HW
HStem: 0 74<214 542> 667 75<220.974 523.733> 667 55<154 371.97>
LayerCount: 2
Fore
SplineSet
47 0 m 1
 58 68 l 1
 197 153 531 368 557 534 c 0
 569 614 541 667 448 667 c 2
 145 667 l 1
 154 722 l 1
 258 735 351 742 462 742 c 0
 597 742 641 638 631 532 c 0
 614 345 302 131 214 74 c 1
 554 74 l 1
 542 0 l 1
 47 0 l 1
EndSplineSet
Substitution2: "'dnom' Denominators lookup 0 subtable" two.denominator
Substitution2: "'sups' Superscript lookup 2 subtable" twosuperior
Substitution2: "'onum' Oldstyle Figures in Latin lookup 5-1" two.oldstyle
Substitution2: "'tnum' Tabular Numbers in Latin lookup 7-1" two.tnum
Substitution2: "'numr' Numerators lookup 9 subtable" two.numerator
Substitution2: "'sinf' Scientific Inferiors lookup 3-1" twoinferior
Substitution2: "'frac' Diagonal Fractions lookup 13-1" two.numerator
Substitution2: "'smcp' Lowercase to Small Capitals lookup 16-1" two.smcp
EndChar

StartChar: three
Encoding: 51 51 141
Width: 594
VWidth: 0
Flags: HW
HStem: -7 75<110.678 430.375> 21 47<57 146.11> 326 75<243.2 475.109> 333 58<170 340.8> 660 74<233.859 528.145>
DStem2: 478 161 554 161 0.162045 0.986783<-62.5115 137.207 272.871 474.76>
LayerCount: 2
Fore
SplineSet
49 21 m 1
 57 68 l 1
 355 68 l 2
 403 68 467 94 478 161 c 2
 488 220 l 2
 504 320 456 324 402 326 c 2
 160 333 l 1
 170 391 l 1
 414 401 l 2
 483 404 524 439 534 500 c 2
 545 569 l 2
 557 645 507 660 455 660 c 2
 144 660 l 1
 151 706 l 1
 244 737 357 736 474 734 c 0
 570 732 634 664 619 569 c 2
 608 500 l 2
 595 419 560 375 520 364 c 1
 557 343 576 296 564 220 c 2
 554 161 l 1
 537 52 472 -7 350 -7 c 0
 236 -7 132 -10 49 21 c 1
EndSplineSet
Substitution2: "'dnom' Denominators lookup 0 subtable" three.denominator
Substitution2: "'sups' Superscript lookup 2 subtable" threesuperior
Substitution2: "'onum' Oldstyle Figures in Latin lookup 5-1" three.oldstyle
Substitution2: "'tnum' Tabular Numbers in Latin lookup 7-1" three.tnum
Substitution2: "'numr' Numerators lookup 9 subtable" three.numerator
Substitution2: "'sinf' Scientific Inferiors lookup 3-1" threeinferior
Substitution2: "'frac' Diagonal Fractions lookup 13-1" three.numerator
Substitution2: "'smcp' Lowercase to Small Capitals lookup 16-1" three.smcp
EndChar

StartChar: four
Encoding: 52 52 142
Width: 603
VWidth: 0
Flags: HW
HStem: 2 21G<416 496.135> 187 78<181 445> 206 59<580.737 615> 712 20G<440.213 549>
DStem2: 55 224 181 265 0.619594 0.784922<110.251 647.198> 416 2 493 2 0.155869 0.987778<12.002 187.259 278.178 475.79>
LayerCount: 2
Fore
SplineSet
55 224 m 1
 456 732 l 1
 549 732 l 1
 181 265 l 1
 457 265 l 1
 490 472 l 1
 542 547 l 1
 579 547 l 1
 534 265 l 1
 624 265 l 1
 615 206 l 1
 522 187 l 1
 493 2 l 1
 416 2 l 1
 445 187 l 1
 83 187 l 1
 55 224 l 1
EndSplineSet
Substitution2: "'dnom' Denominators lookup 0 subtable" four.denominator
Substitution2: "'sups' Superscript lookup 2 subtable" foursuperior
Substitution2: "'onum' Oldstyle Figures in Latin lookup 5-1" four.oldstyle
Substitution2: "'tnum' Tabular Numbers in Latin lookup 7-1" four.tnum
Substitution2: "'numr' Numerators lookup 9 subtable" four.numerator
Substitution2: "'sinf' Scientific Inferiors lookup 3-1" fourinferior
Substitution2: "'frac' Diagonal Fractions lookup 13-1" four.numerator
Substitution2: "'smcp' Lowercase to Small Capitals lookup 16-1" four.smcp
EndChar

StartChar: five
Encoding: 53 53 143
Width: 603
VWidth: 0
Flags: HW
HStem: -5 79<134.28 455.224> 19 55<88 242.598> 372 75<234.727 497.628> 658 74<274 626>
DStem2: 124 297 193 297 0.159791 0.987151<11.0256 68.0348 133.29 277.467> 495 167 569 165 0.152732 0.988268<-68.1487 176.993>
LayerCount: 2
Fore
SplineSet
79 19 m 1
 88 74 l 1
 392 74 l 2
 461 74 489 129 495 167 c 2
 512 273 l 2
 517 302 525 372 439 372 c 2
 288 372 l 2
 249 372 202 351 193 297 c 1
 124 297 l 1
 215 732 l 1
 638 732 l 1
 626 658 l 1
 274 658 l 1
 223 416 l 1
 241 435 275 444 312 447 c 0
 364 452 421 446 450 446 c 0
 541 446 601 375 586 275 c 2
 569 165 l 2
 547 28 471 -4 379 -5 c 0
 253 -6 209 -4 79 19 c 1
EndSplineSet
Substitution2: "'dnom' Denominators lookup 0 subtable" five.denominator
Substitution2: "'sups' Superscript lookup 2 subtable" fivesuperior
Substitution2: "'onum' Oldstyle Figures in Latin lookup 5-1" five.oldstyle
Substitution2: "'tnum' Tabular Numbers in Latin lookup 7-1" five.tnum
Substitution2: "'numr' Numerators lookup 9 subtable" five.numerator
Substitution2: "'sinf' Scientific Inferiors lookup 3-1" fiveinferior
Substitution2: "'frac' Diagonal Fractions lookup 13-1" five.numerator
Substitution2: "'smcp' Lowercase to Small Capitals lookup 16-1" five.smcp
EndChar

StartChar: six
Encoding: 54 54 144
Width: 621
VWidth: 0
Flags: HW
HStem: 0 71<213.917 477.277> 354 74<231.129 527.148> 664 74<305.041 591.618> 664 55<429.375 642>
DStem2: 513 154 585 148 0.150923 0.988546<-60.2723 184.308>
LayerCount: 2
Fore
SplineSet
193 354 m 1
 175 240 161 71 261 71 c 2
 410 71 l 2
 443 71 502 83 513 154 c 2
 532 279 l 2
 542 340 519 354 456 354 c 2
 193 354 l 1
124 384 m 0
 166 649 269 738 352 738 c 0
 453 738 566 732 651 719 c 1
 642 664 l 1
 353 664 l 2
 267 664 217 491 202 407 c 1
 289 417 394 427 468 428 c 0
 603 430 614 335 605 279 c 2
 585 148 l 2
 567 36 494 0 400 0 c 2
 253 0 l 2
 158 0 74 69 124 384 c 0
EndSplineSet
Substitution2: "'dnom' Denominators lookup 0 subtable" six.denominator
Substitution2: "'sups' Superscript lookup 2 subtable" sixsuperior
Substitution2: "'onum' Oldstyle Figures in Latin lookup 5-1" six.oldstyle
Substitution2: "'tnum' Tabular Numbers in Latin lookup 7-1" six.tnum
Substitution2: "'numr' Numerators lookup 9 subtable" six.numerator
Substitution2: "'sinf' Scientific Inferiors lookup 3-1" sixinferior
Substitution2: "'frac' Diagonal Fractions lookup 13-1" six.numerator
Substitution2: "'smcp' Lowercase to Small Capitals lookup 16-1" six.smcp
EndChar

StartChar: seven
Encoding: 55 55 145
Width: 546
VWidth: 0
Flags: HW
HStem: 0 21G<163 261.906> 658 74<146 525>
DStem2: 163 0 251 0 0.478762 0.877945<42.1311 751>
LayerCount: 2
Fore
SplineSet
134 658 m 1
 146 732 l 1
 605 732 l 1
 624 684 l 1
 251 0 l 1
 163 0 l 1
 525 658 l 1
 134 658 l 1
EndSplineSet
Substitution2: "'dnom' Denominators lookup 0 subtable" seven.denominator
Substitution2: "'sups' Superscript lookup 2 subtable" sevensuperior
Substitution2: "'onum' Oldstyle Figures in Latin lookup 5-1" seven.oldstyle
Substitution2: "'tnum' Tabular Numbers in Latin lookup 7-1" seven.tnum
Substitution2: "'numr' Numerators lookup 9 subtable" seven.numerator
Substitution2: "'sinf' Scientific Inferiors lookup 3-1" seveninferior
Substitution2: "'frac' Diagonal Fractions lookup 13-1" seven.numerator
Substitution2: "'smcp' Lowercase to Small Capitals lookup 16-1" seven.smcp
EndChar

StartChar: percent
Encoding: 37 37 146
Width: 962
VWidth: 0
Flags: HW
HStem: 0 65<648.245 862.502> 318 65<681.364 897.009> 349 65<181.138 395.309> 667 65<213.364 429.009>
DStem2: 115 474 180 474 0.155963 0.987763<-39.2821 202.414> 225 0 296 0 0.60348 0.797378<42.8471 918.009> 407 474 472 474 0.155963 0.987763<-56.4135 186.706> 583 125 648 125 0.155963 0.987763<-39.2943 202.414> 875 125 940 125 0.155963 0.987763<-56.4436 186.706>
LayerCount: 2
Fore
SplineSet
648 125 m 2
 640 76 653 65 700 65 c 2
 801 65 l 2
 856 65 867 77 875 125 c 2
 896 258 l 2
 904 307 899 318 843 318 c 2
 742 318 l 2
 684 318 676 303 669 258 c 2
 648 125 l 2
583 125 m 2
 604 258 l 2
 617 341 642 383 753 383 c 2
 854 383 l 2
 940 383 975 349 961 258 c 2
 940 125 l 2
 925 32 895 0 791 0 c 2
 690 0 l 2
 615 0 570 41 583 125 c 2
225 0 m 1
 779 732 l 1
 850 732 l 1
 296 0 l 1
 225 0 l 1
180 474 m 2
 172 425 186 414 233 414 c 2
 334 414 l 2
 389 414 399 426 407 474 c 2
 428 607 l 2
 436 656 432 667 376 667 c 2
 275 667 l 2
 217 667 208 652 201 607 c 2
 180 474 l 2
115 474 m 2
 136 607 l 2
 149 690 174 732 285 732 c 2
 386 732 l 2
 472 732 507 698 493 607 c 2
 472 474 l 2
 457 381 428 349 324 349 c 2
 223 349 l 2
 148 349 102 390 115 474 c 2
EndSplineSet
Substitution2: "'smcp' Lowercase to Small Capitals lookup 16-1" percent.smcp
EndChar

StartChar: nine
Encoding: 57 57 147
Width: 620
VWidth: 0
Flags: HW
HStem: 0 74<146.732 431.959> 19 55<95 305.057> 310 74<209.852 505.871> 667 71<259.723 523.083>
DStem2: 132 459 205 459 0.150923 0.988546<-46.8545 197.725>
LayerCount: 2
Fore
SplineSet
205 459 m 2
 195 398 218 384 281 384 c 2
 544 384 l 1
 562 498 576 667 476 667 c 2
 327 667 l 2
 294 667 235 655 224 584 c 2
 205 459 l 2
86 19 m 1
 95 74 l 1
 384 74 l 2
 470 74 520 247 535 331 c 1
 448 321 343 311 269 310 c 0
 134 308 123 403 132 459 c 2
 152 590 l 2
 170 702 243 738 337 738 c 2
 484 738 l 2
 579 738 663 669 613 354 c 0
 571 89 468 0 385 0 c 0
 284 0 186 0 86 19 c 1
EndSplineSet
Substitution2: "'dnom' Denominators lookup 0 subtable" nine.denominator
Substitution2: "'sups' Superscript lookup 2 subtable" ninesuperior
Substitution2: "'onum' Oldstyle Figures in Latin lookup 5-1" nine.oldstyle
Substitution2: "'tnum' Tabular Numbers in Latin lookup 7-1" nine.tnum
Substitution2: "'numr' Numerators lookup 9 subtable" nine.numerator
Substitution2: "'sinf' Scientific Inferiors lookup 3-1" nineinferior
Substitution2: "'frac' Diagonal Fractions lookup 13-1" nine.numerator
Substitution2: "'smcp' Lowercase to Small Capitals lookup 16-1" nine.smcp
EndChar

StartChar: eight
Encoding: 56 56 148
Width: 632
VWidth: 0
Flags: HW
HStem: 0 74<193.658 485.219> 337 73<253.606 520.684> 663 74<284.075 573.678>
DStem2: 109 154 182 151 0.156209 0.987724<-45.5946 176.092 301.656 506.38> 518 151 593 154 0.156209 0.987724<-59.025 161.046 281.99 494.483>
LayerCount: 2
Fore
SplineSet
236 494 m 2
 225 427 280 410 314 410 c 2
 473 410 l 2
 546 410 566 458 572 494 c 2
 583 562 l 2
 596 642 575 663 511 663 c 2
 365 663 l 2
 282 663 258 632 247 562 c 2
 236 494 l 2
182 151 m 2
 173 93 199 74 272 74 c 2
 417 74 l 2
 456 74 509 91 518 151 c 2
 535 256 l 2
 544 313 506 337 462 337 c 2
 303 337 l 2
 257 337 209 318 199 256 c 2
 182 151 l 2
109 154 m 2
 124 252 l 2
 136 326 188 359 236 364 c 1
 170 386 155 451 163 499 c 2
 174 564 l 1
 195 699 264 737 377 737 c 2
 523 737 l 2
 622 737 675 674 658 564 c 1
 647 499 l 1
 645 477 623 396 549 381 c 1
 603 363 616 295 608 252 c 1
 593 154 l 1
 570 12 482 0 405 0 c 2
 260 0 l 2
 92 0 103 117 109 154 c 2
EndSplineSet
Substitution2: "'dnom' Denominators lookup 0 subtable" eight.denominator
Substitution2: "'sups' Superscript lookup 2 subtable" eightsuperior
Substitution2: "'onum' Oldstyle Figures in Latin lookup 5-1" eight.oldstyle
Substitution2: "'tnum' Tabular Numbers in Latin lookup 7-1" eight.tnum
Substitution2: "'numr' Numerators lookup 9 subtable" eight.numerator
Substitution2: "'sinf' Scientific Inferiors lookup 3-1" eightinferior
Substitution2: "'frac' Diagonal Fractions lookup 13-1" eight.numerator
Substitution2: "'smcp' Lowercase to Small Capitals lookup 16-1" eight.smcp
EndChar

StartChar: quotesingle
Encoding: 39 39 149
Width: 186
VWidth: 0
Flags: HW
HStem: 531 201<171 204>
VStem: 150 96
LayerCount: 2
Fore
SplineSet
150 531 m 1
 160 665 l 1
 171 732 l 1
 246 732 l 1
 235 665 l 1
 204 531 l 1
 150 531 l 1
EndSplineSet
Substitution2: "'smcp' Lowercase to Small Capitals lookup 16-1" quotesingle.smcp
EndChar

StartChar: onesuperior
Encoding: 185 185 150
Width: 277
VWidth: 100
Flags: HW
HStem: 725 42<122 200.118>
VStem: 115 212
DStem2: 189 356 251 356 0.157023 0.987595<9.73545 408.207>
LayerCount: 2
Fore
SplineSet
115 725 m 1
 122 767 l 1
 202 767 267 834 267 834 c 1
 327 834 l 1
 251 356 l 1
 189 356 l 1
 254 759 l 1
 237 746 192 725 115 725 c 1
EndSplineSet
EndChar

StartChar: twosuperior
Encoding: 178 178 151
Width: 385
VWidth: 100
Flags: HW
HStem: 356 62<202 384> 776 62<149.125 368.935> 776 47<144.203 327.644>
LayerCount: 2
Fore
SplineSet
75 356 m 1
 84 414 l 1
 160 468 356 586 374 699 c 0
 382 752 369 776 311 776 c 2
 139 776 l 2
 137 776 145 824 146 823 c 1
 213 831 259 838 331 838 c 0
 422 838 448 744 440 702 c 1
 418 552 231 448 202 418 c 1
 394 418 l 1
 384 356 l 1
 75 356 l 1
EndSplineSet
EndChar

StartChar: threesuperior
Encoding: 179 179 152
Width: 405
VWidth: 99
Flags: HW
HStem: 352 62<85.5818 322.131> 572 48<156 334.452> 772 61<145.813 378.856>
DStem2: 342 475 404 471 0.157204 0.987566<-50.0347 74.53 163.369 289.087>
LayerCount: 2
Fore
SplineSet
76 370 m 1
 84 413 l 1
 116 413 261 414 261 414 c 2
 299 414 335 431 342 475 c 2
 346 498 l 2
 354 549 324 566 289 567 c 2
 148 572 l 1
 156 620 l 1
 299 626 l 2
 344 628 372 650 378 690 c 2
 381 712 l 1
 388 754 375 772 322 772 c 2
 136 772 l 1
 143 815 l 1
 203 835 264 834 340 833 c 0
 417 832 452 776 443 716 c 1
 437 681 l 2
 429 634 405 597 377 587 c 1
 401 570 414 536 408 499 c 2
 404 471 l 2
 393 400 360 351 259 352 c 0
 185 352 130 350 76 370 c 1
EndSplineSet
EndChar

StartChar: ordmasculine
Encoding: 186 186 153
Width: 388
VWidth: 0
Flags: HW
HStem: 271 58<92 390> 372 62<186.126 343.212> 676 62<218.804 379.037>
LayerCount: 2
Fore
SplineSet
178 550 m 0
 160 435 200 435 262 434 c 0
 317 433 365 432 384 550 c 0
 403 673 373 675 300 676 c 0
 232 677 197 672 178 550 c 0
116 550 m 0
 138 687 174 737 304 738 c 0
 413 739 469 696 446 550 c 0
 426 424 391 372 254 372 c 0
 142 372 96 424 116 550 c 0
83 271 m 1
 92 329 l 1
 399 329 l 1
 390 271 l 1
 83 271 l 1
EndSplineSet
Ligature2: "'ordn' Ordinals lookup 21-1" o
Substitution2: "'smcp' Lowercase to Small Capitals lookup 16-1" ordmasculine.smcp
EndChar

StartChar: ordfeminine
Encoding: 170 170 154
Width: 370
VWidth: 0
Flags: HW
HStem: 268 58<81 376> 377 63<181.332 298.647>
VStem: 361 34<381 420.2>
DStem2: 378 659 440 687 0.150993 0.988535<-189.515 1.61051>
LayerCount: 2
Fore
SplineSet
172 546 m 0
 158 456 196 440 229 440 c 0
 275 440 310 462 355 492 c 1
 378 659 l 1
 339 669 288 676 262 669 c 0
 229 660 187 646 172 546 c 0
112 560 m 0
 134 704 216 726 264 732 c 0
 306 737 407 719 440 687 c 1
 395 381 l 1
 361 381 l 1
 351 437 l 1
 328 412 273 377 223 377 c 0
 165 377 90 412 112 560 c 0
72 268 m 1
 81 326 l 1
 385 326 l 1
 376 268 l 1
 72 268 l 1
EndSplineSet
Ligature2: "'ordn' Ordinals lookup 21-1" a
Substitution2: "'smcp' Lowercase to Small Capitals lookup 16-1" ordfeminine.smcp
EndChar

StartChar: slash
Encoding: 47 47 155
Width: 400
VWidth: 0
Flags: HW
DStem2: 8 -72 87 -72 0.441235 0.897391<34.8576 938.275>
LayerCount: 2
Fore
SplineSet
8 -72 m 1
 422 770 l 1
 501 770 l 1
 87 -72 l 1
 8 -72 l 1
EndSplineSet
Substitution2: "'numr' Numerators lookup 9 subtable" fraction
Substitution2: "'frac' Diagonal Fractions lookup 12-1" fraction
EndChar

StartChar: backslash
Encoding: 92 92 156
Width: 391
VWidth: 0
Flags: HW
VStem: 141 219
DStem2: 212 770 141 770 0.173118 -0.984901<0 842.617>
LayerCount: 2
Fore
SplineSet
141 770 m 1
 212 770 l 1
 360 -72 l 1
 289 -72 l 1
 141 770 l 1
EndSplineSet
EndChar

StartChar: bar
Encoding: 124 124 157
Width: 245
VWidth: 0
Flags: HW
VStem: 74 207
DStem2: 74 -72 148 -72 0.156023 0.987753<11.5457 852.439>
LayerCount: 2
Fore
SplineSet
74 -72 m 1
 207 770 l 1
 281 770 l 1
 148 -72 l 1
 74 -72 l 1
EndSplineSet
EndChar

StartChar: underscore
Encoding: 95 95 158
Width: 673
VWidth: 0
Flags: HW
HStem: -1 74<31 653>
LayerCount: 2
Fore
SplineSet
19 -1 m 1
 31 73 l 1
 665 73 l 1
 653 -1 l 1
 19 -1 l 1
EndSplineSet
EndChar

StartChar: hyphen
Encoding: 45 45 159
Width: 355
VWidth: 0
Flags: HW
HStem: 253 74<72 374>
VStem: 60 326
LayerCount: 2
Fore
SplineSet
60 253 m 1
 72 327 l 1
 386 327 l 1
 374 253 l 1
 60 253 l 1
EndSplineSet
Substitution2: "'case' Case-Sensitive Forms lookup 1-1" hyphen.alt
Substitution2: "'c2sc' Capitals to Small Capitals in Latin lookup 17 subtable" hyphen.smcp
Substitution2: "'smcp' Lowercase to Small Capitals lookup 16-1" hyphen.smcp
EndChar

StartChar: numbersign
Encoding: 35 35 160
Width: 687
VWidth: 0
Flags: HW
HStem: 0 21G<140 198.379 358 416.407> 231 52<72 214 283 432 500 661> 449 52<142 283 352 500 570 729> 712 20G<366.68 425 583.766 642>
DStem2: 140 0 192 0 0.303311 0.952892<15.7722 243.516 313.995 471.222 541.701 768.188> 358 0 410 0 0.302128 0.953267<15.7107 242.562 312.677 470.919 541.638 767.885>
LayerCount: 2
Fore
SplineSet
283 284 m 1
 448 283 l 1
 500 449 l 1
 335 449 l 1
 283 284 l 1
56 232 m 1
 72 284 l 1
 231 284 l 1
 283 449 l 1
 124 449 l 1
 142 501 l 1
 300 501 l 1
 373 732 l 1
 425 732 l 1
 352 501 l 1
 518 501 l 1
 590 732 l 1
 642 732 l 1
 570 501 l 1
 747 501 l 1
 729 449 l 1
 552 449 l 1
 500 283 l 1
 677 283 l 1
 661 231 l 1
 484 231 l 1
 410 0 l 1
 358 0 l 1
 432 231 l 1
 266 232 l 1
 192 0 l 1
 140 0 l 1
 214 232 l 1
 56 232 l 1
EndSplineSet
Substitution2: "'smcp' Lowercase to Small Capitals lookup 16-1" numbersign.smcp
EndChar

StartChar: dollar
Encoding: 36 36 161
Width: 574
VWidth: 0
Flags: HW
HStem: -3 67<91.9223 243 300 417.888> 322 74<221.477 475.648>
DStem2: 133 494 207 494 0.149805 0.988716<-59.7415 152.394> 229 -90 287 -90 0.156684 0.987649<9.08767 88.119 844.424 925.43> 470 156 544 156 0.159689 0.987167<-57.668 149.383>
LayerCount: 2
Fore
SplineSet
80 17 m 1
 90 70 l 1
 130 70 235 64 328 64 c 0
 369 64 458 79 470 156 c 2
 481 224 l 2
 490 281 499 322 413 322 c 2
 283 322 l 2
 145 322 120 415 133 494 c 1
 143 560 l 1
 167 701 252 736 360 738 c 1
 374 824 l 1
 432 824 l 1
 418 735 l 1
 480 730 566 718 605 714 c 1
 596 656 l 1
 546 656 358 665 358 665 c 2
 288 668 231 646 217 560 c 2
 207 494 l 2
 197 427 213 396 295 396 c 2
 425 396 l 2
 563 396 568 306 555 224 c 2
 544 156 l 2
 522 18 406 -14 300 -8 c 1
 287 -90 l 1
 229 -90 l 1
 243 -3 l 1
 181 4 105 14 80 17 c 1
EndSplineSet
Substitution2: "'smcp' Lowercase to Small Capitals lookup 16-1" dollar.smcp
EndChar

StartChar: zerosuperior
Encoding: 263 8304 162
Width: 450
VWidth: 100
Flags: HW
HStem: 355 62<151.663 363.38> 768 62<202.983 415.783>
DStem2: 89 465 152 469 0.154968 0.98792<-31.8714 312.724> 375 469 436 465 0.154968 0.98792<-48.0152 293.159>
LayerCount: 2
Fore
SplineSet
152 469 m 2
 145 425 153 417 202 417 c 2
 311 417 l 2
 357 417 369 434 375 469 c 2
 414 716 l 2
 420 751 420 768 367 768 c 2
 258 768 l 2
 211 768 196 747 191 716 c 2
 152 469 l 2
89 465 m 2
 129 720 l 2
 142 804 197 830 264 830 c 2
 381 830 l 2
 456 830 487 787 476 720 c 2
 436 465 l 2
 421 369 375 355 305 355 c 2
 188 355 l 2
 149 355 74 370 89 465 c 2
EndSplineSet
EndChar

StartChar: foursuperior
Encoding: 264 8308 163
Width: 468
VWidth: 100
Flags: HW
HStem: 476 65<225 377> 489 52<466.692 499>
DStem2: 115 500 225 541 0.620338 0.784335<100.395 420.739> 357 356 420 356 0.156249 0.987718<9.84369 121.651 197.103 309.898>
LayerCount: 2
Fore
SplineSet
115 500 m 1
 376 830 l 1
 449 830 l 1
 225 541 l 1
 387 541 l 1
 406 662 l 1
 442 710 l 1
 476 710 l 1
 449 541 l 1
 507 541 l 1
 499 489 l 1
 439 476 l 1
 420 356 l 1
 357 356 l 1
 377 476 l 1
 133 476 l 1
 115 500 l 1
EndSplineSet
EndChar

StartChar: fivesuperior
Encoding: 265 8309 164
Width: 409
VWidth: 100
Flags: HW
HStem: 351 62<87 342.94> 365 48<87 291.976> 587 62<190.63 363.717> 768 62<219 453>
VStem: 106 56<538 570.968>
DStem2: 357 469 418 465 0.169391 0.985549<-52.3655 108.412>
LayerCount: 2
Fore
SplineSet
79 365 m 1
 87 413 l 1
 298 413 l 2
 333 413 352 436 357 469 c 2
 366 525 l 2
 369 547 378 587 325 587 c 2
 214 587 l 2
 189 587 168 573 162 538 c 1
 106 538 l 1
 168 830 l 1
 463 830 l 1
 453 768 l 1
 219 768 l 1
 189 630 l 1
 223 659 307 649 339 649 c 0
 401 649 440 600 429 529 c 1
 418 465 l 2
 403 373 359 350 292 351 c 0
 211 352 164 350 79 365 c 1
EndSplineSet
EndChar

StartChar: sixsuperior
Encoding: 266 8310 165
Width: 405
VWidth: 100
Flags: HW
HStem: 356 62<168.89 354.484> 573 62<171.639 374.328> 774 62<214.407 459> 774 50<256.097 459>
DStem2: 365 469 426 461 0.149003 0.988837<-49.7074 97.6697>
LayerCount: 2
Fore
SplineSet
162 573 m 1
 157 540 138 418 201 418 c 2
 310 418 l 2
 343 418 359 433 365 469 c 2
 375 530 l 2
 381 566 365 573 335 573 c 2
 162 573 l 1
105 606 m 0
 137 803 199 836 253 836 c 0
 319 836 389 836 467 824 c 1
 459 774 l 1
 255 774 l 2
 196 774 179 676 169 621 c 1
 225 627 300 634 348 635 c 0
 416 636 444 576 437 534 c 2
 426 461 l 2
 415 389 376 356 304 356 c 2
 194 356 l 2
 134 356 73 409 105 606 c 0
EndSplineSet
EndChar

StartChar: sevensuperior
Encoding: 267 8311 166
Width: 408
VWidth: 100
Flags: HW
HStem: 770 62<134 379>
DStem2: 142 356 212 356 0.494244 0.869323<34.5971 477.036>
LayerCount: 2
Fore
SplineSet
124 770 m 1
 134 832 l 1
 452 832 l 1
 465 801 l 1
 212 356 l 1
 142 356 l 1
 379 770 l 1
 124 770 l 1
EndSplineSet
EndChar

StartChar: eightsuperior
Encoding: 268 8312 167
Width: 405
VWidth: 100
Flags: HW
HStem: 354 63<187.046 387.949> 564 63<222.497 402.18> 773 62<237.118 435.47>
DStem2: 122 458 185 462 0.159471 0.987203<-22.013 114.846 191.791 325.583> 396 462 457 458 0.155767 0.987794<-42.1518 93.4191 170.932 306.737>
LayerCount: 2
Fore
SplineSet
220 682 m 2
 213 638 238 627 260 627 c 2
 371 627 l 2
 418 627 426 659 430 682 c 2
 435 714 l 2
 443 762 431 773 393 773 c 2
 291 773 l 2
 249 773 232 760 225 714 c 2
 220 682 l 2
185 462 m 2
 180 430 187 417 234 417 c 2
 341 417 l 2
 369 417 391 428 396 462 c 2
 403 512 l 2
 409 549 395 564 366 564 c 2
 250 564 l 2
 220 564 199 552 193 512 c 2
 185 462 l 2
122 458 m 1
 132 516 l 2
 140 564 175 580 202 588 c 1
 163 609 152 648 157 678 c 2
 164 718 l 1
 179 810 230 835 297 835 c 2
 411 835 l 2
 465 835 510 792 498 718 c 2
 492 678 l 2
 490 664 476 612 428 602 c 1
 463 588 470 544 466 516 c 2
 457 458 l 2
 443 367 397 354 335 354 c 2
 220 354 l 2
 142 354 114 405 122 458 c 1
EndSplineSet
EndChar

StartChar: ninesuperior
Encoding: 269 8313 168
Width: 457
VWidth: 100
Flags: HW
HStem: 356 62<128 372.593> 368 50<128 330.892> 557 62<212.672 415.361> 774 62<232.516 418.164>
DStem2: 150 658 213 662 0.149003 0.988837<-22.6671 124.71>
LayerCount: 2
Fore
SplineSet
213 662 m 2
 207 626 223 619 253 619 c 2
 426 619 l 1
 431 652 449 774 386 774 c 2
 277 774 l 2
 244 774 228 759 222 723 c 2
 213 662 l 2
120 368 m 1
 128 418 l 1
 332 418 l 2
 391 418 408 516 418 571 c 1
 362 565 287 558 239 557 c 0
 171 556 143 616 150 658 c 2
 161 731 l 2
 172 803 211 836 283 836 c 2
 393 836 l 2
 453 836 515 783 483 586 c 0
 451 389 388 356 334 356 c 0
 268 356 183 354 120 368 c 1
EndSplineSet
EndChar

StartChar: zeroinferior
Encoding: 270 8320 169
Width: 457
VWidth: 0
Flags: HW
HStem: -201 62<167.663 379.38> 212 62<218.983 431.783>
DStem2: 105 -91 168 -87 0.154968 0.98792<-31.8714 312.724> 391 -87 452 -91 0.154968 0.98792<-48.0152 293.159>
LayerCount: 2
Fore
SplineSet
168 -87 m 2
 161 -131 169 -139 218 -139 c 2
 327 -139 l 2
 373 -139 385 -122 391 -87 c 2
 430 160 l 2
 436 195 436 212 383 212 c 2
 274 212 l 2
 227 212 212 191 207 160 c 2
 168 -87 l 2
105 -91 m 2
 145 164 l 2
 158 248 213 274 280 274 c 2
 397 274 l 2
 472 274 503 231 492 164 c 2
 452 -91 l 2
 437 -187 391 -201 321 -201 c 2
 204 -201 l 2
 165 -201 90 -186 105 -91 c 2
EndSplineSet
EndChar

StartChar: oneinferior
Encoding: 271 8321 170
Width: 287
VWidth: 0
Flags: HW
HStem: 169 42<50 128.118>
VStem: 43 212
DStem2: 117 -200 179 -200 0.157023 0.987595<9.73545 408.207>
LayerCount: 2
Fore
SplineSet
43 169 m 1
 50 211 l 1
 130 211 195 278 195 278 c 1
 255 278 l 1
 179 -200 l 1
 117 -200 l 1
 182 203 l 1
 165 190 120 169 43 169 c 1
EndSplineSet
EndChar

StartChar: twoinferior
Encoding: 272 8322 171
Width: 430
VWidth: 0
Flags: HW
HStem: -200 62<170 352> 220 62<117.125 336.935> 220 47<112.203 295.644>
LayerCount: 2
Fore
SplineSet
43 -200 m 1
 52 -142 l 1
 128 -88 324 30 342 143 c 0
 350 196 337 220 279 220 c 2
 107 220 l 2
 105 220 113 268 114 267 c 1
 181 275 227 282 299 282 c 0
 390 282 416 188 408 146 c 1
 386 -4 199 -108 170 -138 c 1
 362 -138 l 1
 352 -200 l 1
 43 -200 l 1
EndSplineSet
EndChar

StartChar: threeinferior
Encoding: 273 8323 172
Width: 386
VWidth: 0
Flags: HW
HStem: -204 62<11.5825 249.131> 16 48<83 261.452> 216 61<72.8133 305.856>
DStem2: 269 -81 331 -85 0.157204 0.987566<-50.0347 74.53 163.369 289.087>
LayerCount: 2
Fore
SplineSet
3 -186 m 1
 10 -143 l 1
 42 -143 188 -142 188 -142 c 2
 226 -142 262 -125 269 -81 c 2
 273 -58 l 2
 281 -7 251 10 216 11 c 2
 75 16 l 1
 83 64 l 1
 226 70 l 2
 271 72 299 94 305 134 c 2
 308 156 l 1
 315 198 302 216 249 216 c 2
 63 216 l 1
 70 259 l 1
 130 279 191 278 267 277 c 0
 344 276 379 220 370 160 c 1
 364 125 l 2
 356 78 332 41 304 31 c 1
 328 14 341 -20 335 -57 c 2
 331 -85 l 2
 320 -156 287 -205 186 -204 c 0
 112 -204 57 -206 3 -186 c 1
EndSplineSet
EndChar

StartChar: fourinferior
Encoding: 274 8324 173
Width: 428
VWidth: 0
Flags: HW
HStem: -80 65<114 266> -67 52<355.692 388>
DStem2: 4 -56 114 -15 0.620338 0.784335<100.395 420.739> 246 -200 309 -200 0.156249 0.987718<9.84369 121.651 197.103 309.898>
LayerCount: 2
Fore
SplineSet
4 -56 m 1
 265 274 l 1
 338 274 l 1
 114 -15 l 1
 276 -15 l 1
 295 106 l 1
 331 154 l 1
 365 154 l 1
 338 -15 l 1
 396 -15 l 1
 388 -67 l 1
 328 -80 l 1
 309 -200 l 1
 246 -200 l 1
 266 -80 l 1
 22 -80 l 1
 4 -56 l 1
EndSplineSet
EndChar

StartChar: fiveinferior
Encoding: 275 8325 174
Width: 408
VWidth: 0
Flags: HW
HStem: -205 62<15 270.94> -191 48<15 219.976> 31 62<118.63 291.717> 212 62<147 381>
VStem: 34 56<-18 14.9677>
DStem2: 285 -87 346 -91 0.169391 0.985549<-52.3655 108.412>
LayerCount: 2
Fore
SplineSet
7 -191 m 1
 15 -143 l 1
 226 -143 l 2
 261 -143 280 -120 285 -87 c 2
 294 -31 l 2
 297 -9 306 31 253 31 c 2
 142 31 l 2
 117 31 96 17 90 -18 c 1
 34 -18 l 1
 96 274 l 1
 391 274 l 1
 381 212 l 1
 147 212 l 1
 117 74 l 1
 151 103 235 93 267 93 c 0
 329 93 368 44 357 -27 c 1
 346 -91 l 2
 331 -183 287 -206 220 -205 c 0
 139 -204 92 -206 7 -191 c 1
EndSplineSet
EndChar

StartChar: sixinferior
Encoding: 276 8326 175
Width: 404
VWidth: 0
Flags: HW
HStem: -200 62<96.8896 282.484> 17 62<99.6387 302.328> 218 62<142.407 387> 218 50<184.104 387>
DStem2: 293 -87 354 -95 0.149003 0.988837<-49.7074 97.6697>
LayerCount: 2
Fore
SplineSet
90 17 m 1
 85 -16 66 -138 129 -138 c 2
 238 -138 l 2
 271 -138 287 -123 293 -87 c 2
 303 -26 l 2
 309 10 293 17 263 17 c 2
 90 17 l 1
33 50 m 0
 65 247 127 280 181 280 c 0
 247 280 327 280 395 268 c 1
 387 218 l 1
 183 218 l 2
 124 218 107 120 97 65 c 1
 153 71 228 78 276 79 c 0
 344 80 372 20 365 -22 c 2
 354 -95 l 2
 343 -167 304 -200 232 -200 c 2
 122 -200 l 2
 62 -200 1 -147 33 50 c 0
EndSplineSet
EndChar

StartChar: seveninferior
Encoding: 277 8327 176
Width: 407
VWidth: 0
Flags: HW
HStem: 214 62<62 307>
DStem2: 70 -200 140 -200 0.494244 0.869323<34.5971 477.036>
LayerCount: 2
Fore
SplineSet
52 214 m 1
 62 276 l 1
 380 276 l 1
 393 245 l 1
 140 -200 l 1
 70 -200 l 1
 307 214 l 1
 52 214 l 1
EndSplineSet
EndChar

StartChar: eightinferior
Encoding: 278 8328 177
Width: 406
VWidth: 0
Flags: HW
HStem: -202 63<115.046 315.949> 8 63<150.497 330.18> 217 62<165.118 363.47>
DStem2: 50 -98 113 -94 0.159471 0.987203<-22.013 114.846 191.791 325.583> 324 -94 385 -98 0.155767 0.987794<-42.1518 93.4191 170.932 306.737>
LayerCount: 2
Fore
SplineSet
148 126 m 2
 141 82 166 71 188 71 c 2
 299 71 l 2
 346 71 354 103 358 126 c 2
 363 158 l 2
 371 206 359 217 321 217 c 2
 219 217 l 2
 177 217 160 204 153 158 c 2
 148 126 l 2
113 -94 m 2
 108 -126 115 -139 162 -139 c 2
 269 -139 l 2
 297 -139 319 -128 324 -94 c 2
 331 -44 l 2
 337 -7 323 8 294 8 c 2
 178 8 l 2
 148 8 127 -4 121 -44 c 2
 113 -94 l 2
50 -98 m 1
 60 -40 l 2
 68 8 103 24 130 32 c 1
 91 53 80 92 85 122 c 2
 92 162 l 1
 107 254 158 279 225 279 c 2
 339 279 l 2
 393 279 438 236 426 162 c 2
 420 122 l 2
 418 108 404 56 356 46 c 1
 391 32 398 -12 394 -40 c 2
 385 -98 l 2
 371 -189 325 -202 263 -202 c 2
 148 -202 l 2
 70 -202 42 -151 50 -98 c 1
EndSplineSet
EndChar

StartChar: nineinferior
Encoding: 279 8329 178
Width: 456
VWidth: 0
Flags: HW
HStem: -200 62<56 300.593> -188 50<56 258.887> 1 62<140.672 343.361> 218 62<160.516 346.164>
DStem2: 78 102 141 106 0.149003 0.988837<-22.6671 124.71>
LayerCount: 2
Fore
SplineSet
141 106 m 2
 135 70 151 63 181 63 c 2
 354 63 l 1
 359 96 377 218 314 218 c 2
 205 218 l 2
 172 218 156 203 150 167 c 2
 141 106 l 2
48 -188 m 1
 56 -138 l 1
 260 -138 l 2
 319 -138 336 -40 346 15 c 1
 290 9 215 2 167 1 c 0
 99 0 71 60 78 102 c 2
 89 175 l 2
 100 247 139 280 211 280 c 2
 321 280 l 2
 381 280 443 227 411 30 c 0
 379 -167 316 -200 262 -200 c 0
 196 -200 104 -202 48 -188 c 1
EndSplineSet
EndChar

StartChar: zero.oldstyle
Encoding: 280 -1 179
Width: 623
VWidth: 0
Flags: HW
HStem: 0 74<175.125 484.047> 558 74<252.574 557.884>
DStem2: 93 162 167 162 0.157115 0.98758<-54.7652 388.406> 522 162 596 162 0.157115 0.98758<-66.5624 374.582>
LayerCount: 2
Fore
SplineSet
167 162 m 2
 153 71 203 74 251 74 c 2
 415 74 l 2
 479 74 513 108 522 162 c 2
 571 470 l 2
 580 527 566 558 492 558 c 2
 328 558 l 2
 249 558 223 516 216 470 c 2
 167 162 l 2
93 162 m 2
 142 470 l 2
 160 585 230 632 339 632 c 2
 503 632 l 2
 624 632 658 549 645 470 c 2
 596 162 l 2
 577 43 511 0 403 0 c 2
 239 0 l 2
 148 0 74 42 93 162 c 2
EndSplineSet
Substitution2: "'tnum' Tabular Numbers in Latin lookup 7-1" zero.tosf
Substitution2: "'lnum' Lining Figures lookup 19-1" zero
EndChar

StartChar: one.oldstyle
Encoding: 281 -1 180
Width: 349
VWidth: 0
Flags: HW
HStem: 0 21G<202 279.165> 497 53<120 210.093>
VStem: 112 264
DStem2: 202 0 276 0 0.156284 0.987712<11.565 547.949>
LayerCount: 2
Fore
SplineSet
112 497 m 1
 120 550 l 1
 220 550 302 635 302 635 c 1
 376 632 l 1
 276 0 l 1
 202 0 l 1
 289 541 l 1
 265 522 208 497 112 497 c 1
EndSplineSet
Substitution2: "'tnum' Tabular Numbers in Latin lookup 7-1" one.tosf
Substitution2: "'lnum' Lining Figures lookup 19-1" one
EndChar

StartChar: two.oldstyle
Encoding: 282 -1 181
Width: 574
VWidth: 0
Flags: HW
HStem: 0 74<230 542> 564 74<208.448 520.857>
LayerCount: 2
Fore
SplineSet
47 0 m 1
 58 68 l 1
 217 152 517 306 540 453 c 0
 552 526 530 566 434 564 c 1
 384 564 129 563 129 563 c 1
 139 618 l 1
 241 632 325 638 445 638 c 0
 606 638 626 539 618 451 c 0
 603 275 292 104 230 74 c 1
 554 74 l 1
 542 0 l 1
 47 0 l 1
EndSplineSet
Substitution2: "'tnum' Tabular Numbers in Latin lookup 7-1" two.tosf
Substitution2: "'lnum' Lining Figures lookup 19-1" two
EndChar

StartChar: three.oldstyle
Encoding: 283 -1 182
Width: 595
VWidth: 0
Flags: HW
HStem: -101 75<108.678 428.375> -73 47<55 144.11> 232 75<241.2 473.109> 239 58<168 338.8> 566 74<231.859 526.145>
DStem2: 476 67 552 67 0.162045 0.986783<-62.5115 137.207 272.871 474.76>
LayerCount: 2
Fore
SplineSet
47 -73 m 1
 55 -26 l 1
 353 -26 l 2
 401 -26 465 0 476 67 c 2
 486 126 l 2
 502 226 454 230 400 232 c 2
 158 239 l 1
 168 297 l 1
 412 307 l 2
 481 310 522 345 532 406 c 2
 543 475 l 2
 555 551 505 566 453 566 c 2
 142 566 l 1
 149 612 l 1
 242 643 355 642 472 640 c 0
 568 638 632 570 617 475 c 2
 606 406 l 2
 593 325 558 281 518 270 c 1
 555 249 574 202 562 126 c 2
 552 67 l 1
 535 -42 470 -101 348 -101 c 0
 234 -101 130 -104 47 -73 c 1
EndSplineSet
Substitution2: "'tnum' Tabular Numbers in Latin lookup 7-1" three.tosf
Substitution2: "'lnum' Lining Figures lookup 19-1" three
EndChar

StartChar: four.oldstyle
Encoding: 284 -1 183
Width: 603
VWidth: 0
Flags: HW
HStem: 87 78<180 444> 106 59<579.737 614>
DStem2: 54 124 180 165 0.619594 0.784922<110.251 647.198> 415 -98 492 -98 0.155869 0.987778<12.002 187.259 278.178 475.79>
LayerCount: 2
Fore
SplineSet
54 124 m 1
 455 632 l 1
 548 632 l 1
 180 165 l 1
 456 165 l 1
 489 372 l 1
 541 447 l 1
 578 447 l 1
 533 165 l 1
 623 165 l 1
 614 106 l 1
 521 87 l 1
 492 -98 l 1
 415 -98 l 1
 444 87 l 1
 82 87 l 1
 54 124 l 1
EndSplineSet
Substitution2: "'tnum' Tabular Numbers in Latin lookup 7-1" four.tosf
Substitution2: "'lnum' Lining Figures lookup 19-1" four
EndChar

StartChar: five.oldstyle
Encoding: 285 -1 184
Width: 592
VWidth: 0
Flags: HW
HStem: -79 55<48 174.634> 272 75<196.19 457.714> 558 74<235 586>
DStem2: 84 197 154 197 0.160919 0.986968<11.2643 68.2974 133.541 280.511> 455 69 529 67 0.155493 0.987837<-68.1199 175.259>
LayerCount: 2
Fore
SplineSet
39 -79 m 1
 48 -24 l 1
 352 -24 l 2
 421 -24 449 31 455 69 c 2
 472 173 l 2
 477 202 485 272 399 272 c 2
 249 272 l 2
 210 272 163 251 154 197 c 1
 84 197 l 1
 175 632 l 1
 598 632 l 1
 586 558 l 1
 235 558 l 1
 184 316 l 1
 203 335 237 344 274 347 c 0
 325 351 382 346 410 346 c 0
 501 346 562 275 546 175 c 2
 529 67 l 2
 507 -70 430 -98 339 -103 c 0
 214 -110 169 -102 39 -79 c 1
EndSplineSet
Substitution2: "'tnum' Tabular Numbers in Latin lookup 7-1" five.tosf
Substitution2: "'lnum' Lining Figures lookup 19-1" five
EndChar

StartChar: six.oldstyle
Encoding: 286 -1 185
Width: 621
VWidth: 0
Flags: HW
HStem: 0 71<213.917 477.277> 354 74<231.129 527.148> 664 74<305.041 590.655> 664 55<432.099 642>
DStem2: 513 154 585 148 0.150923 0.988546<-60.2723 184.308>
LayerCount: 2
Fore
SplineSet
193 354 m 1
 175 240 161 71 261 71 c 2
 410 71 l 2
 443 71 502 83 513 154 c 2
 532 279 l 2
 542 340 519 354 456 354 c 2
 193 354 l 1
124 384 m 0
 166 649 269 738 352 738 c 0
 453 738 552 726 651 719 c 1
 642 664 l 1
 353 664 l 2
 267 664 217 491 202 407 c 1
 289 417 394 427 468 428 c 0
 603 430 614 335 605 279 c 2
 585 148 l 2
 567 36 494 0 400 0 c 2
 253 0 l 2
 158 0 74 69 124 384 c 0
EndSplineSet
Substitution2: "'tnum' Tabular Numbers in Latin lookup 7-1" six.tosf
Substitution2: "'lnum' Lining Figures lookup 19-1" six
EndChar

StartChar: seven.oldstyle
Encoding: 287 -1 186
Width: 546
VWidth: 0
Flags: HW
HStem: 558 74<141 520>
DStem2: 158 -100 246 -100 0.478762 0.877945<42.1311 751>
LayerCount: 2
Fore
SplineSet
129 558 m 1
 141 632 l 1
 600 632 l 1
 619 584 l 1
 246 -100 l 1
 158 -100 l 1
 520 558 l 1
 129 558 l 1
EndSplineSet
Substitution2: "'tnum' Tabular Numbers in Latin lookup 7-1" seven.tosf
Substitution2: "'lnum' Lining Figures lookup 19-1" seven
EndChar

StartChar: eight.oldstyle
Encoding: 288 -1 187
Width: 633
VWidth: 0
Flags: HW
HStem: 0 74<193.658 485.219> 337 73<253.606 520.684> 663 74<284.075 573.678>
DStem2: 109 154 182 151 0.156209 0.987724<-45.5946 176.092 301.656 506.38> 518 151 593 154 0.156209 0.987724<-59.025 161.046 281.99 494.483>
LayerCount: 2
Fore
SplineSet
236 494 m 2
 225 427 280 410 314 410 c 2
 473 410 l 2
 546 410 566 458 572 494 c 2
 583 562 l 2
 596 642 575 663 511 663 c 2
 365 663 l 2
 282 663 258 632 247 562 c 2
 236 494 l 2
182 151 m 2
 173 93 199 74 272 74 c 2
 417 74 l 2
 456 74 509 91 518 151 c 2
 535 256 l 2
 544 313 506 337 462 337 c 2
 303 337 l 2
 257 337 209 318 199 256 c 2
 182 151 l 2
109 154 m 2
 124 252 l 2
 136 326 188 359 236 364 c 1
 170 386 155 451 163 499 c 2
 174 564 l 1
 195 699 264 737 377 737 c 2
 523 737 l 2
 622 737 675 674 658 564 c 1
 647 499 l 1
 645 477 623 396 549 381 c 1
 603 363 616 295 608 252 c 1
 593 154 l 1
 570 12 482 0 405 0 c 2
 260 0 l 2
 92 0 103 117 109 154 c 2
EndSplineSet
Substitution2: "'tnum' Tabular Numbers in Latin lookup 7-1" eight.tosf
Substitution2: "'lnum' Lining Figures lookup 19-1" eight
EndChar

StartChar: nine.oldstyle
Encoding: 289 -1 188
Width: 619
VWidth: 0
Flags: HW
HStem: -106 74<156.345 441.959> -87 55<105 314.901> 204 74<219.852 515.871> 561 71<269.723 533.083>
DStem2: 142 353 215 353 0.150923 0.988546<-46.8545 197.725>
LayerCount: 2
Fore
SplineSet
215 353 m 2
 205 292 228 278 291 278 c 2
 554 278 l 1
 572 392 586 561 486 561 c 2
 337 561 l 2
 304 561 245 549 234 478 c 2
 215 353 l 2
96 -87 m 1
 105 -32 l 1
 394 -32 l 2
 480 -32 530 141 545 225 c 1
 458 215 353 205 279 204 c 0
 144 202 133 297 142 353 c 2
 162 484 l 2
 180 596 253 632 347 632 c 2
 494 632 l 2
 589 632 673 563 623 248 c 0
 581 -17 478 -106 395 -106 c 0
 294 -106 195 -94 96 -87 c 1
EndSplineSet
Substitution2: "'tnum' Tabular Numbers in Latin lookup 7-1" nine.tosf
Substitution2: "'lnum' Lining Figures lookup 19-1" nine
EndChar

StartChar: ampersand
Encoding: 38 38 189
Width: 626
VWidth: 0
Flags: HW
HStem: 0 21G<509.288 597> 662 48<370.647 575>
DStem2: 170 366 214 308 0.792934 0.609307<-105.321 107.956> 282 540 216 524 0.503871 -0.863779<-72.9263 78.6759 152.457 374.088 458.235 586.866> 336 97 382 44 0.74385 0.668347<-68.2912 98.6189 178.465 230.406>
LayerCount: 2
Fore
SplineSet
155 116 m 0
 196 57 279 46 336 97 c 2
 420 172 l 1
 300 374 l 1
 214 308 l 1
 124 241 116 172 155 116 c 0
94 79 m 0
 31 176 67 287 170 366 c 2
 265 439 l 1
 216 524 l 2
 151 636 237 720 320 727 c 0
 425 736 486 732 583 710 c 1
 575 662 l 1
 372 662 l 2
 286 662 228 634 282 540 c 2
 469 216 l 1
 602 336 l 1
 626 316 l 1
 555 198 l 1
 507 152 l 1
 597 0 l 1
 521 0 l 1
 456 111 l 1
 382 44 l 2
 305 -25 162 -27 94 79 c 0
EndSplineSet
AlternateSubs2: "'salt' Access All Alternates in Latin lookup 4-1" ampersand.salt
Substitution2: "'smcp' Lowercase to Small Capitals lookup 16-1" ampersand.smcp
EndChar

StartChar: asterisk
Encoding: 42 42 190
Width: 440
VWidth: 0
Flags: HW
HStem: 561 74<254.241 282> 566 40<145 179.759> 713 20G<289 339.661>
LayerCount: 2
Fore
SplineSet
341 571 m 1
 473 647 l 1
 486 612 l 1
 380 515 l 1
 341 571 l 1
289 717 m 1
 330 733 l 1
 387 615 l 1
 314 584 l 1
 289 717 l 1
283 476 m 1
 334 538 l 1
 429 447 l 1
 403 415 l 1
 283 476 l 1
183 414 m 1
 228 549 l 1
 298 532 l 1
 218 402 l 1
 183 414 l 1
139 566 m 1
 145 606 l 1
 289 635 l 1
 282 561 l 1
 139 566 l 1
EndSplineSet
Substitution2: "'smcp' Lowercase to Small Capitals lookup 16-1" asterisk.smcp
EndChar

StartChar: Euro
Encoding: 290 8364 191
Width: 718
VWidth: 0
Flags: HW
HStem: -6 74<269.516 548.175> 255 47<77 157 241 466> 410 60<266 492> 418 43<103 172.125 317.778 492> 666 74<360.044 661.144>
DStem2: 157 248 231 248 0.155734 0.987799<-99.1207 0 73.3374 164.073 236.266 368.741>
LayerCount: 2
Fore
SplineSet
70 255 m 1
 77 302 l 1
 167 309 l 1
 183 410 l 1
 96 418 l 1
 103 461 l 1
 192 470 l 1
 203 542 225 740 469 740 c 0
 521 740 641 723 709 710 c 1
 700 651 l 1
 700 651 539 666 457 666 c 0
 308 666 284 570 266 470 c 1
 499 463 l 1
 492 417 l 1
 257 410 l 1
 241 309 l 1
 473 302 l 1
 466 255 l 1
 466 255 228 250 231 248 c 1
 206 103 268 68 362 68 c 0
 459 68 614 85 614 85 c 1
 605 29 l 1
 520 6 434 -6 351 -6 c 0
 274 -6 121 22 157 248 c 1
 70 255 l 1
EndSplineSet
Substitution2: "'smcp' Lowercase to Small Capitals lookup 16-1" Euro.smcp
EndChar

StartChar: parenleft
Encoding: 40 40 192
Width: 335
VWidth: 60
Flags: HW
LayerCount: 2
Fore
SplineSet
127 326 m 0
 179 630 364 860 364 860 c 1
 452 860 l 1
 452 860 259 629 201 326 c 0
 140 8 282 -210 282 -210 c 1
 201 -210 l 1
 201 -210 74 18 127 326 c 0
EndSplineSet
Substitution2: "'smcp' Lowercase to Small Capitals lookup 16-1" parenleft.smcp
Substitution2: "'case' Case-Sensitive Forms lookup 1-1" parenleft.alt
Substitution2: "'c2sc' Capitals to Small Capitals in Latin lookup 17 subtable" parenleft.smcp
EndChar

StartChar: parenright
Encoding: 41 41 193
Width: 337
VWidth: 60
Flags: HW
LayerCount: 2
Fore
SplineSet
-13 -210 m 1
 -13 -210 180 21 238 324 c 0
 299 642 157 860 157 860 c 1
 238 860 l 1
 238 860 365 632 312 324 c 0
 260 20 75 -210 75 -210 c 1
 -13 -210 l 1
EndSplineSet
Substitution2: "'smcp' Lowercase to Small Capitals lookup 16-1" parenright.smcp
Substitution2: "'case' Case-Sensitive Forms lookup 1-1" parenright.alt
Substitution2: "'c2sc' Capitals to Small Capitals in Latin lookup 17 subtable" parenright.smcp
EndChar

StartChar: plus
Encoding: 43 43 194
Width: 516
VWidth: 0
Flags: HW
HStem: 319 74<112 270 356 516>
DStem2: 243 148 317 148 0.156694 0.987647<11.5954 173.118 259.68 421.203>
LayerCount: 2
Fore
SplineSet
100 319 m 1
 112 393 l 1
 282 393 l 1
 309 564 l 1
 383 564 l 1
 356 393 l 1
 528 393 l 1
 516 319 l 1
 344 319 l 1
 317 148 l 1
 243 148 l 1
 270 319 l 1
 100 319 l 1
EndSplineSet
EndChar

StartChar: endash
Encoding: 291 8211 195
Width: 457
VWidth: 0
Flags: HW
HStem: 250 75<72 533>
LayerCount: 2
Fore
SplineSet
60 250 m 1
 72 325 l 1
 545 325 l 1
 533 250 l 1
 60 250 l 1
EndSplineSet
Substitution2: "'case' Case-Sensitive Forms lookup 1-1" endash.alt
Substitution2: "'c2sc' Capitals to Small Capitals in Latin lookup 17 subtable" endash.smcp
Substitution2: "'smcp' Lowercase to Small Capitals lookup 16-1" endash.smcp
EndChar

StartChar: emdash
Encoding: 292 8212 196
Width: 736
VWidth: 0
Flags: HW
HStem: 252 75<71 755>
LayerCount: 2
Fore
SplineSet
59 252 m 1
 71 327 l 1
 767 327 l 1
 755 252 l 1
 59 252 l 1
EndSplineSet
Substitution2: "'case' Case-Sensitive Forms lookup 1-1" emdash.alt
Substitution2: "'c2sc' Capitals to Small Capitals in Latin lookup 17 subtable" emdash.smcp
Substitution2: "'smcp' Lowercase to Small Capitals lookup 16-1" emdash.smcp
EndChar

StartChar: less
Encoding: 60 60 197
Width: 474
VWidth: 0
Flags: HW
DStem2: 190 350 99 314 0.893911 -0.448244<0 300.975> 112 394 190 350 0.92687 0.375382<55.779 390.407>
LayerCount: 2
Fore
SplineSet
99 314 m 1
 112 394 l 1
 512 556 l 1
 500 476 l 1
 190 350 l 1
 459 215 l 1
 446 140 l 1
 99 314 l 1
EndSplineSet
EndChar

StartChar: equal
Encoding: 61 61 198
Width: 467
VWidth: 0
Flags: HW
HStem: 212 74<66 480> 421 74<98 512>
LayerCount: 2
Fore
SplineSet
85 421 m 1
 98 495 l 1
 525 495 l 1
 512 421 l 1
 85 421 l 1
53 212 m 1
 66 286 l 1
 493 286 l 1
 480 212 l 1
 53 212 l 1
EndSplineSet
EndChar

StartChar: greater
Encoding: 62 62 199
Width: 475
VWidth: 0
Flags: HW
DStem2: 85 222 72 140 0.918081 0.396392<0 342.437> 138 556 125 486 0.907044 -0.421035<17.6809 323.602>
LayerCount: 2
Fore
SplineSet
72 140 m 1
 85 222 l 1
 401 354 l 1
 125 486 l 1
 138 556 l 1
 487 394 l 1
 475 314 l 1
 72 140 l 1
EndSplineSet
EndChar

StartChar: multiply
Encoding: 215 215 200
Width: 459
VWidth: 0
Flags: HW
HStem: 511 20G<410.825 450.667>
DStem2: 93 237 138 183 0.757372 0.652984<0 183.211 257.389 449.062> 188 524 132 476 0.644776 -0.764372<0.582378 155.438 226.956 384.567>
LayerCount: 2
Fore
SplineSet
93 237 m 1
 232 357 l 1
 132 476 l 1
 188 524 l 1
 288 405 l 1
 434 531 l 1
 479 477 l 1
 334 351 l 1
 436 230 l 1
 379 182 l 1
 278 303 l 1
 138 183 l 1
 93 237 l 1
EndSplineSet
EndChar

StartChar: divide
Encoding: 247 247 201
Width: 517
VWidth: 0
Flags: HW
HStem: 150 102<248.614 335.578> 316 74<112 516> 449 102<295.755 383.543>
DStem2: 248 227 345 227 0.156681 0.987649<-65.9563 28.4356 236.835 331.107>
LayerCount: 2
Fore
SplineSet
287 472 m 2
 295 526 l 2
 297 541 307 551 323 551 c 2
 373 551 l 2
 388 551 394 540 392 526 c 2
 384 472 l 2
 382 457 371 449 357 449 c 2
 307 449 l 2
 293 449 285 458 287 472 c 2
239 173 m 2
 248 227 l 2
 250 242 260 252 276 252 c 2
 326 252 l 2
 341 252 347 241 345 227 c 2
 336 173 l 2
 334 158 324 150 310 150 c 2
 260 150 l 2
 246 150 237 159 239 173 c 2
100 316 m 1
 112 390 l 1
 528 390 l 1
 516 316 l 1
 100 316 l 1
EndSplineSet
EndChar

StartChar: question
Encoding: 63 63 202
Width: 540
VWidth: 0
Flags: HW
HStem: 0 105<184.614 276.297> 296 61<305 450.524> 668 71<184.772 490.624> 668 51<134 350.055>
VStem: 214 75<195 240.36>
DStem2: 500 453 573 453 0.156465 0.987684<-63.9083 178.961>
LayerCount: 2
Fore
SplineSet
175 23 m 2
 184 80 l 2
 186 95 196 105 212 105 c 2
 265 105 l 2
 283 105 289 96 286 80 c 2
 277 23 l 2
 274 5 263 0 249 0 c 2
 196 0 l 2
 182 0 173 9 175 23 c 2
125 668 m 1
 134 719 l 1
 238 732 305 744 419 739 c 1
 553 739 605 652 589 554 c 2
 573 453 l 2
 549 301 437 275 305 296 c 1
 305 293 288 201 289 195 c 1
 214 195 l 1
 239 357 l 1
 297 356 323 355 381 357 c 0
 430 359 489 386 500 453 c 2
 516 554 l 2
 529 638 498 668 396 668 c 2
 125 668 l 1
EndSplineSet
Substitution2: "'smcp' Lowercase to Small Capitals lookup 16-1" question.smcp
EndChar

StartChar: bracketleft
Encoding: 91 91 203
Width: 321
VWidth: 60
Flags: HW
HStem: -210 74<151.072 267> 768 74<291.329 422>
DStem2: 78 -38 152 -38 0.156452 0.987686<-75.3363 818.229>
LayerCount: 2
Fore
SplineSet
78 -38 m 2
 193 688 l 2
 207 775 233 842 354 842 c 2
 434 842 l 1
 422 768 l 1
 342 768 l 2
 304 768 278 754 267 688 c 2
 152 -38 l 2
 139 -122 149 -136 199 -136 c 2
 279 -136 l 1
 267 -210 l 1
 187 -210 l 2
 64 -210 69 -95 78 -38 c 2
EndSplineSet
EndChar

StartChar: bracketright
Encoding: 93 93 204
Width: 322
VWidth: 60
Flags: HW
HStem: -210 74<-1 129.671> 768 74<154 269.928>
DStem2: 154 -56 228 -56 0.156452 0.987686<-71.6001 821.965>
LayerCount: 2
Fore
SplineSet
-13 -210 m 1
 -1 -136 l 1
 79 -136 l 2
 117 -136 143 -122 154 -56 c 2
 269 670 l 2
 282 754 272 768 222 768 c 2
 142 768 l 1
 154 842 l 1
 234 842 l 2
 357 842 352 727 343 670 c 2
 228 -56 l 2
 214 -143 188 -210 67 -210 c 2
 -13 -210 l 1
EndSplineSet
EndChar

StartChar: braceleft
Encoding: 123 123 205
Width: 320
VWidth: 60
Flags: HW
HStem: -210 74<201.788 266> 310 67<78 133.105> 768 74<337.158 421>
DStem2: 108 3 182 3 0.158757 0.987318<-84.656 287.077 382.631 755.716>
LayerCount: 2
Fore
SplineSet
67 310 m 1
 78 377 l 1
 112 378 168 369 176 420 c 2
 213 656 l 2
 232 773 303 842 433 842 c 1
 421 768 l 1
 353 769 301 743 287 656 c 2
 250 420 l 2
 242 372 200 345 151 336 c 1
 198 329 229 293 222 251 c 2
 182 3 l 2
 164 -108 206 -140 278 -136 c 1
 266 -210 l 1
 123 -210 91 -99 108 3 c 2
 148 247 l 2
 155 289 107 313 67 310 c 1
EndSplineSet
EndChar

StartChar: braceright
Encoding: 125 125 206
Width: 315
VWidth: 60
Flags: HW
HStem: -210 74<-1 82.6494> 255 67<286.895 342> 768 74<154 218.212>
DStem2: 132 -24 206 -24 0.16023 0.98708<-82.5539 290.631 387.77 758.042>
LayerCount: 2
Fore
SplineSet
-13 -210 m 1
 -1 -136 l 1
 67 -137 118 -111 132 -24 c 2
 170 212 l 2
 178 260 219 287 268 296 c 1
 221 303 191 339 198 381 c 2
 238 629 l 2
 256 740 214 772 142 768 c 1
 154 842 l 1
 297 842 329 731 312 629 c 2
 272 385 l 2
 265 343 313 319 353 322 c 1
 342 255 l 1
 308 254 252 263 244 212 c 2
 206 -24 l 2
 187 -141 117 -210 -13 -210 c 1
EndSplineSet
EndChar

StartChar: at
Encoding: 64 64 207
Width: 868
VWidth: 0
Flags: HW
HStem: -179 74<157.358 548.236> -152 47<433.118 601> -4 74<347.427 503.75> 3 74<641 706.667> 471 73<408.865 620.479> 624 75<266.51 784.612>
DStem2: 64 9 138 9 0.15626 0.987716<-65.171 603.535> 572 130 641 77 0.154282 0.988027<-20.0928 330.651> 738 167 812 167 0.148067 0.988977<-74.4091 439.669>
LayerCount: 2
Fore
SplineSet
329 254 m 0
 311 109 332 71 410 70 c 0
 465 69 507 81 572 130 c 1
 623 455 l 1
 563 471 516 471 474 471 c 0
 422 471 352 439 329 254 c 0
64 9 m 2
 145 521 l 2
 160 613 212 699 350 699 c 2
 725 699 l 2
 836 699 882 634 865 521 c 2
 812 167 l 2
 805 120 787 3 643 3 c 2
 589 3 l 1
 566 63 l 1
 535 29 483 -3 410 -4 c 0
 299 -6 224 48 258 275 c 0
 292 496 399 544 473 544 c 0
 544 544 649 531 700 482 c 1
 641 77 l 1
 689 77 725 86 738 167 c 2
 791 521 l 2
 807 629 760 624 720 624 c 2
 338 624 l 2
 243 624 224 552 219 521 c 2
 138 9 l 2
 129 -48 137 -105 223 -105 c 2
 609 -105 l 1
 601 -152 l 1
 551 -162 435 -179 309 -179 c 2
 211 -179 l 2
 107 -179 47 -98 64 9 c 2
EndSplineSet
Substitution2: "'case' Case-Sensitive Forms lookup 1-1" at.alt
Substitution2: "'smcp' Lowercase to Small Capitals lookup 16-1" at.smcp
EndChar

StartChar: breve
Encoding: 293 728 208
Width: 255
VWidth: 0
Flags: HW
HStem: 530 46<116.401 220.069>
VStem: 59 46<587.24 644> 240 46<597.577 644>
LayerCount: 2
Fore
SplineSet
59 644 m 1
 105 644 l 1
 99 601 127 576 160 576 c 0
 203 575 232 593 240 644 c 1
 286 644 l 1
 275 563 229 530 160 530 c 0
 107 530 53 570 59 644 c 1
EndSplineSet
EndChar

StartChar: ogonek
Encoding: 294 731 209
Width: 235
VWidth: 0
Flags: HW
HStem: -181 60<216.379 262> -20 20G<169 288>
LayerCount: 2
Fore
SplineSet
249 0 m 1
 288 0 l 1
 195 -68 189 -125 272 -121 c 1
 262 -181 l 1
 144 -197 89 -64 249 0 c 1
EndSplineSet
EndChar

StartChar: caron
Encoding: 295 711 210
Width: 377
VWidth: 0
Flags: HW
HStem: 531 130
VStem: 32 292
DStem2: 97 661 32 661 0.538133 -0.84286<0 100.631> 154 578 186 531 0.72789 0.685694<0 122.423>
LayerCount: 2
Fore
SplineSet
32 661 m 1
 97 661 l 1
 154 578 l 1
 244 661 l 1
 324 661 l 1
 186 531 l 1
 115 531 l 1
 32 661 l 1
EndSplineSet
Substitution2: "'smcp' Lowercase to Small Capitals lookup 16-1" caron.smcp
EndChar

StartChar: hungarumlaut
Encoding: 296 733 211
Width: 458
VWidth: 0
Flags: HW
HStem: 531 133
LayerCount: 2
Fore
SplineSet
289 531 m 1
 417 664 l 1
 512 664 l 1
 358 531 l 1
 289 531 l 1
154 531 m 1
 282 664 l 1
 377 664 l 1
 223 531 l 1
 154 531 l 1
EndSplineSet
EndChar

StartChar: dotaccent
Encoding: 297 729 212
Width: 128
VWidth: 0
Flags: HW
HStem: 533 102<113.614 200.578>
VStem: 104 106
LayerCount: 2
Fore
SplineSet
104 556 m 2
 113 610 l 2
 115 625 125 635 141 635 c 2
 191 635 l 2
 206 635 212 624 210 610 c 2
 201 556 l 2
 199 541 189 533 175 533 c 2
 125 533 l 2
 111 533 102 542 104 556 c 2
EndSplineSet
EndChar

StartChar: Aogonek
Encoding: 298 260 213
Width: 758
VWidth: 0
Flags: HW
HStem: -181 60<660.379 706> -20 20<613 732> 0 21<147 238.588 668.176 747> 204 74<375 619> 712 20<521.481 609.852>
DStem2: 147 0 228 0 0.465497 0.885049<37.7053 268.529 352.177 746.199> 606 732 556 628 0.189146 -0.981949<92.6654 448.264 523.576 731.27>
LayerCount: 2
Fore
SplineSet
375 278 m 1
 619 278 l 1
 556 628 l 1
 375 278 l 1
147 0 m 1
 532 732 l 1
 606 732 l 1
 747 0 l 1
 732 0 l 1
 639 -68 633 -125 716 -121 c 1
 706 -181 l 1
 588 -197 533 -64 693 0 c 1
 672 0 l 1
 633 204 l 1
 336 204 l 1
 228 0 l 1
 147 0 l 1
EndSplineSet
Substitution2: "'c2sc' Capitals to Small Capitals in Latin lookup 17 subtable" aogonek.smcp
EndChar

StartChar: Lcaron
Encoding: 299 317 214
Width: 535
VWidth: 0
Flags: HW
HStem: 0 74<175.177 523> 712 20G<193.766 270>
DStem2: 99 126 173 126 0.159642 0.987175<-28.6394 613.873>
LayerCount: 2
Fore
SplineSet
327 571 m 1
 337 705 l 1
 348 772 l 1
 422 772 l 1
 411 705 l 1
 380 571 l 1
 327 571 l 1
99 126 m 2
 197 732 l 1
 270 732 l 1
 173 126 l 2
 165 73 199 74 228 74 c 2
 534 74 l 1
 523 0 l 1
 215 0 l 2
 147.992 0 84 32 99 126 c 2
EndSplineSet
Substitution2: "'c2sc' Capitals to Small Capitals in Latin lookup 17 subtable" lcaron.smcp
EndChar

StartChar: Sacute
Encoding: 300 346 215
Width: 571
VWidth: 0
Flags: HW
HStem: -8 74<80.8931 421.346> 322 74<201.832 471.127> 664 74<243.623 583.737> 798 133
VStem: 370 223
DStem2: 120 494 194 494 0.149805 0.988716<-65.5739 159.504> 466 156 540 156 0.159689 0.987167<-62.5184 145.394>
LayerCount: 2
Fore
SplineSet
370 798 m 1
 498 931 l 1
 593 931 l 1
 439 798 l 1
 370 798 l 1
67 16 m 1
 76 76 l 1
 119 70 230 66 323 66 c 0
 364 66 453 71 466 156 c 2
 477 224 l 2
 486 281 485 322 409 322 c 2
 270 322 l 2
 113 322 108 419 120 494 c 2
 130 560 l 1
 155 716 248 742 356 738 c 0
 409 736 547 722 601 714 c 1
 592 655 l 1
 542 655 344 664 344 664 c 1
 268 668 219 656 204 560 c 2
 194 494 l 2
 177 387 229 396 282 396 c 2
 421 396 l 2
 544 396 564 306 551 224 c 2
 540 156 l 2
 516 4 393 -8 311 -8 c 0
 235 -8 102 9 67 16 c 1
EndSplineSet
Substitution2: "'c2sc' Capitals to Small Capitals in Latin lookup 17 subtable" sacute.smcp
EndChar

StartChar: Scaron
Encoding: 301 352 216
Width: 571
VWidth: 0
Flags: HW
HStem: -8 74<92.8931 433.346> 322 74<213.832 483.127> 664 74<255.623 595.737> 798.374 130
VStem: 298.825 292
DStem2: 132 494 206 494 0.149805 0.988716<-65.5739 159.504> 363.825 928.374 298.825 928.374 0.538133 -0.84286<0 100.631> 420.825 845.374 452.825 798.374 0.72789 0.685694<0 122.423> 478 156 552 156 0.159689 0.987167<-62.5184 145.394>
LayerCount: 2
Fore
SplineSet
298.825 928.374 m 1
 363.825 928.374 l 1
 420.825 845.374 l 1
 510.825 928.374 l 1
 590.825 928.374 l 1
 452.825 798.374 l 1
 381.825 798.374 l 1
 298.825 928.374 l 1
79 16 m 1
 88 76 l 1
 131 70 242 66 335 66 c 0
 376 66 465 71 478 156 c 2
 489 224 l 2
 498 281 497 322 421 322 c 2
 282 322 l 2
 125 322 120 419 132 494 c 2
 142 560 l 1
 167 716 260 742 368 738 c 0
 421 736 559 722 613 714 c 1
 604 655 l 1
 554 655 356 664 356 664 c 1
 280 668 231 656 216 560 c 2
 206 494 l 2
 189 387 241 396 294 396 c 2
 433 396 l 2
 556 396 576 306 563 224 c 2
 552 156 l 2
 528 4 405 -8 323 -8 c 0
 247 -8 114 9 79 16 c 1
EndSplineSet
Substitution2: "'c2sc' Capitals to Small Capitals in Latin lookup 17 subtable" scaron.smcp
EndChar

StartChar: Scedilla
Encoding: 302 350 217
Width: 571
VWidth: 0
Flags: HW
HStem: -181 37<177 202.667> -8 74<92.8931 433.346> 322 74<213.832 483.127> 664 74<255.623 595.737>
VStem: 278 67<-109.281 -45>
DStem2: 132 494 206 494 0.149805 0.988716<-65.5739 159.504> 478 156 552 156 0.159689 0.987167<-62.5184 145.394>
LayerCount: 2
Fore
SplineSet
171 -181 m 1
 177 -144 l 1
 232 -129 l 1
 262 -117 272 -83 278 -45 c 1
 345 -45 l 1
 329 -147 302 -181 222 -181 c 2
 171 -181 l 1
79 16 m 1
 88 76 l 1
 131 70 242 66 335 66 c 0
 376 66 465 71 478 156 c 2
 489 224 l 2
 498 281 497 322 421 322 c 2
 282 322 l 2
 125 322 120 419 132 494 c 2
 142 560 l 1
 167 716 260 742 368 738 c 0
 421 736 559 722 613 714 c 1
 604 655 l 1
 554 655 356 664 356 664 c 1
 280 668 231 656 216 560 c 2
 206 494 l 2
 189 387 241 396 294 396 c 2
 433 396 l 2
 556 396 576 306 563 224 c 2
 552 156 l 2
 528 4 405 -8 323 -8 c 0
 247 -8 114 9 79 16 c 1
EndSplineSet
Substitution2: "'c2sc' Capitals to Small Capitals in Latin lookup 17 subtable" scedilla.smcp
EndChar

StartChar: Tcaron
Encoding: 303 356 218
Width: 579
VWidth: 0
Flags: HW
HStem: 0 21<249 326.161> 658 74<151 353 427 647> 797 130
VStem: 290.06 292
DStem2: 249 0 323 0 0.156117 0.987739<11.5526 666.168> 355.06 927 290.06 927 0.538133 -0.84286<0 100.631> 412.06 844 444.06 797 0.72789 0.685694<0 122.423>
LayerCount: 2
Fore
SplineSet
290.06 927 m 1
 355.06 927 l 1
 412.06 844 l 1
 502.06 927 l 1
 582.06 927 l 1
 444.06 797 l 1
 373.06 797 l 1
 290.06 927 l 1
139 658 m 1
 151 732 l 1
 659 732 l 1
 647 658 l 1
 427 658 l 1
 323 0 l 1
 249 0 l 1
 353 658 l 1
 139 658 l 1
EndSplineSet
Substitution2: "'c2sc' Capitals to Small Capitals in Latin lookup 17 subtable" tcaron.smcp
EndChar

StartChar: Zacute
Encoding: 304 377 219
Width: 564
VWidth: 0
Flags: HW
HStem: 0 74<248 632> 658 74<255 639> 792 133
VStem: 476 223
DStem2: 151 74 248 74 0.641218 0.767359<62.1981 761.052>
LayerCount: 2
Fore
SplineSet
476 792 m 1
 604 925 l 1
 699 925 l 1
 545 792 l 1
 476 792 l 1
139 0 m 1
 151 74 l 1
 639 658 l 1
 243 658 l 1
 255 732 l 1
 748 732 l 1
 736 658 l 1
 248 74 l 1
 644 74 l 1
 632 0 l 1
 139 0 l 1
EndSplineSet
Substitution2: "'c2sc' Capitals to Small Capitals in Latin lookup 17 subtable" zacute.smcp
EndChar

StartChar: Zcaron
Encoding: 305 381 220
Width: 564
VWidth: 0
Flags: HW
HStem: 0 74<144 528> 658 74<151 535> 797 130
VStem: 282.56 292
DStem2: 47 74 144 74 0.641218 0.767359<62.1981 761.052> 347.56 927 282.56 927 0.538133 -0.84286<0 100.631> 404.56 844 436.56 797 0.72789 0.685694<0 122.423>
LayerCount: 2
Fore
SplineSet
282.56 927 m 1
 347.56 927 l 1
 404.56 844 l 1
 494.56 927 l 1
 574.56 927 l 1
 436.56 797 l 1
 365.56 797 l 1
 282.56 927 l 1
35 0 m 1
 47 74 l 1
 535 658 l 1
 139 658 l 1
 151 732 l 1
 644 732 l 1
 632 658 l 1
 144 74 l 1
 540 74 l 1
 528 0 l 1
 35 0 l 1
EndSplineSet
Substitution2: "'c2sc' Capitals to Small Capitals in Latin lookup 17 subtable" zcaron.smcp
EndChar

StartChar: Zdotaccent
Encoding: 306 379 221
Width: 564
VWidth: 0
Flags: HW
HStem: 0 74<144 528> 658 74<151 535> 797 102<372.497 459.461>
VStem: 362.883 106
DStem2: 47 74 144 74 0.641218 0.767359<62.1981 761.052>
LayerCount: 2
Fore
SplineSet
362.883 820 m 2
 371.883 874 l 2
 373.883 889 383.883 899 399.883 899 c 2
 449.883 899 l 2
 464.883 899 470.883 888 468.883 874 c 2
 459.883 820 l 2
 457.883 805 447.883 797 433.883 797 c 2
 383.883 797 l 2
 369.883 797 360.883 806 362.883 820 c 2
35 0 m 1
 47 74 l 1
 535 658 l 1
 139 658 l 1
 151 732 l 1
 644 732 l 1
 632 658 l 1
 144 74 l 1
 540 74 l 1
 528 0 l 1
 35 0 l 1
EndSplineSet
Substitution2: "'c2sc' Capitals to Small Capitals in Latin lookup 17 subtable" zdotaccent.smcp
EndChar

StartChar: aogonek
Encoding: 307 261 222
Width: 487
VWidth: 0
Flags: HW
HStem: -181 60<392.379 438> -20 20<345 464> -7 74<155.772 319.569> 0 21<414.333 473.923>
VStem: 418 53<0 38.1818>
DStem2: 464 452 541 479 0.144602 0.98949<-351.468 2.0042>
LayerCount: 2
Fore
SplineSet
139 251 m 0
 117 113 143 67 221 67 c 0
 298 67 344 86 412 115 c 1
 464 452 l 1
 404 468 333 476 292 468 c 0
 227 456 170 442 139 251 c 0
68 278 m 0
 104 495 202 531 284 541 c 0
 354 550 490 528 541 479 c 1
 471 0 l 1
 464 0 l 1
 371 -68 365 -125 448 -121 c 1
 438 -181 l 1
 320 -197 265 -64 425 0 c 1
 418 0 l 1
 407 60 l 1
 378 41 298 -7 221 -7 c 0
 107 -7 28 37 68 278 c 0
EndSplineSet
AlternateSubs2: "'salt' Access All Alternates in Latin lookup 4-1" aogonek.salt
Substitution2: "'smcp' Lowercase to Small Capitals lookup 16-1" aogonek.smcp
EndChar

StartChar: lcaron
Encoding: 308 318 223
Width: 297
VWidth: 0
Flags: HW
HStem: 0 56<190.537 270> 763 20G<179.835 257 329.716 407>
DStem2: 89 189 163 189 0.156304 0.987709<-83.5479 601.392>
LayerCount: 2
Fore
SplineSet
312 580 m 1
 322 714 l 1
 333 781 l 1
 407 781 l 1
 396 714 l 1
 365 580 l 1
 312 580 l 1
89 189 m 2
 183 783 l 1
 257 783 l 1
 163 189 l 2
 147 90 165 83 204 74 c 2
 204 74 278 56 279 56 c 2
 270 0 l 1
 202 0 l 2
 119 0 67 49 89 189 c 2
EndSplineSet
Substitution2: "'smcp' Lowercase to Small Capitals lookup 16-1" lcaron.smcp
EndChar

StartChar: sacute
Encoding: 309 347 224
Width: 508
VWidth: 0
Flags: HW
HStem: -10 74<112.752 414.904> 9 55<91 299.791> 227 74<191.349 434.904> 468 57<320.841 532> 468 73<212.215 520.771> 601 133
VStem: 321 223
DStem2: 115 358 189 358 0.154968 0.98792<-38.1869 116.346> 429 118 503 109 0.141421 0.98995<-47.7779 101.351>
LayerCount: 2
Fore
SplineSet
321 601 m 1
 449 734 l 1
 544 734 l 1
 390 601 l 1
 321 601 l 1
82 9 m 1
 91 64 l 1
 365 64 l 1
 365 64 419 58 429 118 c 2
 438 172 l 2
 444 207 435 227 391 227 c 2
 243 227 l 2
 149 227 99 258 115 358 c 2
 123 409 l 2
 137 495 179 541 282 541 c 0
 334 541 490 530 541 525 c 1
 532 468 l 1
 271 468 l 2
 207 468 200 429 197 409 c 2
 189 358 l 2
 178 291 216 301 244 301 c 2
 394 301 l 2
 481 301 524 247 512 172 c 1
 503 109 l 1
 486 0 409 -10 353 -10 c 0
 304 -10 119 5 82 9 c 1
EndSplineSet
Substitution2: "'smcp' Lowercase to Small Capitals lookup 16-1" sacute.smcp
EndChar

StartChar: scaron
Encoding: 310 353 225
Width: 508
VWidth: 0
Flags: HW
HStem: -10 74<94.7524 396.904> 9 55<73 281.791> 227 74<173.349 416.904> 468 57<302.841 514> 468 73<194.215 502.771> 601 130
VStem: 218 292
DStem2: 97 358 171 358 0.154968 0.98792<-38.1869 116.346> 283 731 218 731 0.538133 -0.84286<0 100.631> 340 648 372 601 0.72789 0.685694<0 122.423> 411 118 485 109 0.141421 0.98995<-47.7779 101.351>
LayerCount: 2
Fore
SplineSet
218 731 m 1
 283 731 l 1
 340 648 l 1
 430 731 l 1
 510 731 l 1
 372 601 l 1
 301 601 l 1
 218 731 l 1
64 9 m 1
 73 64 l 1
 347 64 l 1
 347 64 401 58 411 118 c 2
 420 172 l 2
 426 207 417 227 373 227 c 2
 225 227 l 2
 131 227 81 258 97 358 c 2
 105 409 l 2
 119 495 161 541 264 541 c 0
 316 541 472 530 523 525 c 1
 514 468 l 1
 253 468 l 2
 189 468 182 429 179 409 c 2
 171 358 l 2
 160 291 198 301 226 301 c 2
 376 301 l 2
 463 301 506 247 494 172 c 1
 485 109 l 1
 468 0 391 -10 335 -10 c 0
 286 -10 101 5 64 9 c 1
EndSplineSet
Substitution2: "'smcp' Lowercase to Small Capitals lookup 16-1" scaron.smcp
EndChar

StartChar: scedilla
Encoding: 311 351 226
Width: 508
VWidth: 0
Flags: HW
HStem: -175 37<132 157.667> -10 74<94.7524 396.904> 9 55<73 281.791> 227 74<173.349 416.904> 468 57<302.841 514> 468 73<194.215 502.771>
VStem: 233 67<-103.281 -39>
DStem2: 97 358 171 358 0.154968 0.98792<-38.1869 116.346> 411 118 485 109 0.141421 0.98995<-47.7779 101.351>
LayerCount: 2
Fore
SplineSet
126 -175 m 1
 132 -138 l 1
 187 -123 l 1
 217 -111 227 -77 233 -39 c 1
 300 -39 l 1
 284 -141 257 -175 177 -175 c 2
 126 -175 l 1
64 9 m 1
 73 64 l 1
 347 64 l 1
 347 64 401 58 411 118 c 2
 420 172 l 2
 426 207 417 227 373 227 c 2
 225 227 l 2
 131 227 81 258 97 358 c 2
 105 409 l 2
 119 495 161 541 264 541 c 0
 316 541 472 530 523 525 c 1
 514 468 l 1
 253 468 l 2
 189 468 182 429 179 409 c 2
 171 358 l 2
 160 291 198 301 226 301 c 2
 376 301 l 2
 463 301 506 247 494 172 c 1
 485 109 l 1
 468 0 391 -10 335 -10 c 0
 286 -10 101 5 64 9 c 1
EndSplineSet
Substitution2: "'smcp' Lowercase to Small Capitals lookup 16-1" scedilla.smcp
EndChar

StartChar: tcaron
Encoding: 312 357 227
Width: 409
VWidth: 0
Flags: HW
HStem: 1 56<222.537 302> 458 74<249 392> 458 56<73 112.667>
VStem: 216 56<654.732 680>
DStem2: 121 190 195 190 0.155238 0.987877<-83.558 271.271> 340 733 414 733 0.150941 0.988543<-126.276 67.5908>
LayerCount: 2
Fore
SplineSet
328 599 m 1
 340 733 l 1
 349 800 l 1
 424 800 l 1
 414 733 l 1
 381 599 l 1
 328 599 l 1
64 458 m 1
 73 514 l 1
 175 532 l 1
 216 680 l 1
 272 680 l 1
 249 532 l 1
 404 532 l 1
 392 458 l 1
 237 458 l 1
 195 190 l 2
 180 91 196 84 235 75 c 2
 235 75 309 57 310 57 c 2
 302 1 l 1
 234 1 l 2
 151 1 99 50 121 190 c 2
 163 458 l 1
 64 458 l 1
EndSplineSet
AlternateSubs2: "'salt' Access All Alternates in Latin lookup 4-1" tcaron.salt
Substitution2: "'smcp' Lowercase to Small Capitals lookup 16-1" tcaron.smcp
EndChar

StartChar: zacute
Encoding: 313 378 228
Width: 456
VWidth: 0
Flags: HW
HStem: 1 74<208 474.101> 457 74<161 446> 591 133
VStem: 334 223
DStem2: 101 75 208 75 0.670252 0.742134<71.7169 514.732>
LayerCount: 2
Fore
SplineSet
334 591 m 1
 462 724 l 1
 557 724 l 1
 403 591 l 1
 334 591 l 1
92 1 m 1
 101 75 l 1
 446 457 l 1
 151 457 l 1
 161 531 l 1
 557 531 l 1
 547 457 l 1
 208 75 l 1
 484 75 l 1
 485 74 473 1 473 1 c 1
 92 1 l 1
EndSplineSet
Substitution2: "'smcp' Lowercase to Small Capitals lookup 16-1" zacute.smcp
EndChar

StartChar: zcaron
Encoding: 314 382 229
Width: 456
VWidth: 0
Flags: HW
HStem: 1 74<161 427.101> 457 74<114 399> 596 130
VStem: 197.06 292
DStem2: 54 75 161 75 0.670252 0.742134<71.7169 514.732> 262.06 726 197.06 726 0.538133 -0.84286<0 100.631> 319.06 643 351.06 596 0.72789 0.685694<0 122.423>
LayerCount: 2
Fore
SplineSet
197.06 726 m 1
 262.06 726 l 1
 319.06 643 l 1
 409.06 726 l 1
 489.06 726 l 1
 351.06 596 l 1
 280.06 596 l 1
 197.06 726 l 1
45 1 m 1
 54 75 l 1
 399 457 l 1
 104 457 l 1
 114 531 l 1
 510 531 l 1
 500 457 l 1
 161 75 l 1
 437 75 l 1
 438 74 426 1 426 1 c 1
 45 1 l 1
EndSplineSet
Substitution2: "'smcp' Lowercase to Small Capitals lookup 16-1" zcaron.smcp
EndChar

StartChar: zdotaccent
Encoding: 315 380 230
Width: 456
VWidth: 0
Flags: HW
HStem: 1 74<161 427.101> 457 74<114 399> 596 102<286.997 373.961>
VStem: 277.383 106
DStem2: 54 75 161 75 0.670252 0.742134<71.7169 514.732>
LayerCount: 2
Fore
SplineSet
277.383 619 m 2
 286.383 673 l 2
 288.383 688 298.383 698 314.383 698 c 2
 364.383 698 l 2
 379.383 698 385.383 687 383.383 673 c 2
 374.383 619 l 2
 372.383 604 362.383 596 348.383 596 c 2
 298.383 596 l 2
 284.383 596 275.383 605 277.383 619 c 2
45 1 m 1
 54 75 l 1
 399 457 l 1
 104 457 l 1
 114 531 l 1
 510 531 l 1
 500 457 l 1
 161 75 l 1
 437 75 l 1
 438 74 426 1 426 1 c 1
 45 1 l 1
EndSplineSet
Substitution2: "'smcp' Lowercase to Small Capitals lookup 16-1" zdotaccent.smcp
EndChar

StartChar: Racute
Encoding: 316 340 231
Width: 610
VWidth: 0
Flags: HW
HStem: 0 21<75 152.182 496.265 584> 308 64<209 301> 657 75<254 548.387> 797 133
VStem: 382.959 223
DStem2: 75 0 149 0 0.156517 0.987675<11.5822 323.456 388.388 676.919> 478 302 404 294 0.331185 -0.943566<0 293.236>
LayerCount: 2
Fore
SplineSet
382.959 797 m 1
 510.959 930 l 1
 605.959 930 l 1
 451.959 797 l 1
 382.959 797 l 1
209 372 m 1
 441 372 l 2
 496 372 553 404 562 512 c 0
 573 644 543 657 491 657 c 2
 254 657 l 1
 209 372 l 1
75 0 m 1
 191 732 l 1
 503 732 l 2
 588 732 654 679 637 512 c 0
 618 320 507 306 478 302 c 1
 584 0 l 1
 503 0 l 1
 404 294 l 1
 198 308 l 1
 149 0 l 1
 75 0 l 1
EndSplineSet
Substitution2: "'c2sc' Capitals to Small Capitals in Latin lookup 17 subtable" racute.smcp
EndChar

StartChar: Abreve
Encoding: 317 258 232
Width: 660
VWidth: 0
Flags: HW
HStem: 0 21<45 136.588 566.176 645> 204 74<273 517> 712 20<419.481 507.852> 797 46<439.426 543.094>
VStem: 382.025 46<854.24 911> 563.025 46<864.577 911>
DStem2: 45 0 126 0 0.465497 0.885049<37.7053 268.529 352.177 746.199> 504 732 454 628 0.189146 -0.981949<92.6654 448.264 523.576 731.27>
LayerCount: 2
Fore
SplineSet
382.025 911 m 1
 428.025 911 l 1
 422.025 868 450.025 843 483.025 843 c 0
 526.025 842 555.025 860 563.025 911 c 1
 609.025 911 l 1
 598.025 830 552.025 797 483.025 797 c 0
 430.025 797 376.025 837 382.025 911 c 1
273 278 m 1
 517 278 l 1
 454 628 l 1
 273 278 l 1
45 0 m 1
 430 732 l 1
 504 732 l 1
 645 0 l 1
 570 0 l 1
 531 204 l 1
 234 204 l 1
 126 0 l 1
 45 0 l 1
EndSplineSet
Substitution2: "'c2sc' Capitals to Small Capitals in Latin lookup 17 subtable" abreve.smcp
EndChar

StartChar: Lacute
Encoding: 318 313 233
Width: 535
VWidth: 0
Flags: HW
HStem: 0 74<113.18 461> 712 20<131.766 208> 792 133
VStem: 148 223
DStem2: 37 126 111 126 0.159642 0.987175<-28.6394 613.873>
LayerCount: 2
Fore
SplineSet
148 792 m 1
 276 925 l 1
 371 925 l 1
 217 792 l 1
 148 792 l 1
37 126 m 2
 135 732 l 1
 208 732 l 1
 111 126 l 2
 103 73 137 74 166 74 c 2
 472 74 l 1
 461 0 l 1
 153 0 l 2
 86 0 22 32 37 126 c 2
EndSplineSet
Substitution2: "'c2sc' Capitals to Small Capitals in Latin lookup 17 subtable" lacute.smcp
EndChar

StartChar: Cacute
Encoding: 319 262 234
Width: 578
VWidth: 0
Flags: HW
HStem: -6 74<245.692 538.96> 666 74<317.668 609.132> 800 133
VStem: 409.167 223
LayerCount: 2
Fore
SplineSet
409.167 800 m 1
 537.167 933 l 1
 632.167 933 l 1
 478.167 800 l 1
 409.167 800 l 1
115 368 m 0
 154 602 217 740 416 740 c 0
 468 740 588 723 656 710 c 1
 647 651 l 1
 625 654 502 668 407 666 c 0
 352 665 237 670 189 366 c 1
 161 204 189 77 306 68 c 0
 350 65 417 66 559 76 c 1
 551 17 l 1
 466 -6 367 -6 302 -6 c 0
 113 -6 87 198 115 368 c 0
EndSplineSet
Substitution2: "'c2sc' Capitals to Small Capitals in Latin lookup 17 subtable" cacute.smcp
EndChar

StartChar: Ccaron
Encoding: 320 268 235
Width: 578
VWidth: 0
Flags: HW
HStem: -6 74<245.692 538.96> 666 74<317.668 609.132> 800 130
VStem: 327.268 292
DStem2: 392.268 930 327.268 930 0.538133 -0.84286<0 100.631> 449.268 847 481.268 800 0.72789 0.685694<0 122.423>
LayerCount: 2
Fore
SplineSet
327.268 930 m 1
 392.268 930 l 1
 449.268 847 l 1
 539.268 930 l 1
 619.268 930 l 1
 481.268 800 l 1
 410.268 800 l 1
 327.268 930 l 1
115 368 m 0
 154 602 217 740 416 740 c 0
 468 740 588 723 656 710 c 1
 647 651 l 1
 625 654 502 668 407 666 c 0
 352 665 237 670 189 366 c 1
 161 204 189 77 306 68 c 0
 350 65 417 66 559 76 c 1
 551 17 l 1
 466 -6 367 -6 302 -6 c 0
 113 -6 87 198 115 368 c 0
EndSplineSet
Substitution2: "'c2sc' Capitals to Small Capitals in Latin lookup 17 subtable" ccaron.smcp
EndChar

StartChar: Eogonek
Encoding: 321 280 236
Width: 562
VWidth: 0
Flags: HW
HStem: -167 60<457.379 503> -6 20<410 529> 14 57<401.353 529> 323 79<221 440> 333 59<319.4 539> 658 58<502.625 631>
DStem2: 103 123 177 123 0.156704 0.987646<-28.7677 214.14 294.044 549.424>
LayerCount: 2
Fore
SplineSet
103 123 m 2
 179 602 l 2
 195 700 250 736 326 732 c 2
 640 716 l 1
 631 658 l 1
 314 658 l 2
 266 658 257 629 253 602 c 2
 221 402 l 1
 549 392 l 1
 539 333 l 1
 209 323 l 1
 177 123 l 1
 170 70 203 71 232 71 c 2
 539 71 l 1
 529 14 l 1
 436 -54 430 -111 513 -107 c 1
 503 -167 l 1
 386.496 -182.797 331.405 -53.348 484.019 11.5333 c 1
 219 -3 l 2
 153 -7 88 29 103 123 c 2
EndSplineSet
Substitution2: "'c2sc' Capitals to Small Capitals in Latin lookup 17 subtable" eogonek.smcp
EndChar

StartChar: Ecaron
Encoding: 322 282 237
Width: 567
VWidth: 0
Flags: HW
HStem: 14 57<396.353 524> 323 79<216 435> 333 59<314.4 534> 658 58<497.625 626> 797 130
VStem: 327.921 292
DStem2: 98 123 172 123 0.156704 0.987646<-28.7677 214.14 294.044 549.424> 392.921 927 327.921 927 0.538133 -0.84286<0 100.631> 449.921 844 481.921 797 0.72789 0.685694<0 122.423>
LayerCount: 2
Fore
SplineSet
327.921 927 m 1
 392.921 927 l 1
 449.921 844 l 1
 539.921 927 l 1
 619.921 927 l 1
 481.921 797 l 1
 410.921 797 l 1
 327.921 927 l 1
98 123 m 2
 174 602 l 2
 190 700 245 736 321 732 c 2
 635 716 l 1
 626 658 l 1
 309 658 l 2
 261 658 252 629 248 602 c 2
 216 402 l 1
 544 392 l 1
 534 333 l 1
 204 323 l 1
 172 123 l 1
 165 70 198 71 227 71 c 2
 534 71 l 1
 524 14 l 1
 214 -3 l 2
 148 -7 83 29 98 123 c 2
EndSplineSet
Substitution2: "'c2sc' Capitals to Small Capitals in Latin lookup 17 subtable" ecaron.smcp
EndChar

StartChar: Dcaron
Encoding: 323 270 238
Width: 668
VWidth: 0
Flags: HW
HStem: 0 77<182 463.811> 658 74<274 556.51> 792 130
VStem: 340 292
DStem2: 96 0 182 77 0.156726 0.987642<89.5269 677.766> 405 922 340 922 0.538133 -0.84286<0 100.631> 462 839 494 792 0.72789 0.685694<0 122.423>
LayerCount: 2
Fore
SplineSet
340 922 m 1
 405 922 l 1
 462 839 l 1
 552 922 l 1
 632 922 l 1
 494 792 l 1
 423 792 l 1
 340 922 l 1
182 77 m 1
 381 77 l 2
 511 77 589 215 613 364 c 0
 645 566 599 658 473 658 c 2
 274 658 l 1
 182 77 l 1
96 0 m 1
 212 731 l 2
 212 732 425 732 485 732 c 0
 710 732 709 485 687 363 c 0
 650 150 558 0 369 0 c 2
 96 0 l 1
EndSplineSet
Substitution2: "'c2sc' Capitals to Small Capitals in Latin lookup 17 subtable" dcaron.smcp
EndChar

StartChar: Nacute
Encoding: 324 323 239
Width: 660
VWidth: 0
Flags: HW
HStem: 0 21<80 158.165 519.572 602.169> 712 20<192.831 277.394 637.835 715> 797 133
VStem: 431.459 223
DStem2: 80 0 155 0 0.156517 0.987675<11.7388 613.13> 268 732 249 594 0.426384 -0.904542<116.726 656.259> 547 138 599 0 0.156517 0.987675<0 601.392>
LayerCount: 2
Fore
SplineSet
431.459 797 m 1
 559.459 930 l 1
 654.459 930 l 1
 500.459 797 l 1
 431.459 797 l 1
80 0 m 1
 196 732 l 1
 268 732 l 1
 547 138 l 1
 641 732 l 1
 715 732 l 1
 599 0 l 1
 529 0 l 1
 249 594 l 1
 155 0 l 1
 80 0 l 1
EndSplineSet
AlternateSubs2: "'salt' Access All Alternates in Latin lookup 4-1" Nacute.salt
Substitution2: "'c2sc' Capitals to Small Capitals in Latin lookup 17 subtable" nacute.smcp
EndChar

StartChar: Ncaron
Encoding: 325 327 240
Width: 660
VWidth: 0
Flags: HW
HStem: 0 21<80 158.165 519.572 602.169> 712 20<192.831 277.394 637.835 715> 797 130
VStem: 340.56 292
DStem2: 80 0 155 0 0.156517 0.987675<11.7388 613.13> 268 732 249 594 0.426384 -0.904542<116.726 656.259> 405.56 927 340.56 927 0.538133 -0.84286<0 100.631> 462.56 844 494.56 797 0.72789 0.685694<0 122.423> 547 138 599 0 0.156517 0.987675<0 601.392>
LayerCount: 2
Fore
SplineSet
340.56 927 m 1
 405.56 927 l 1
 462.56 844 l 1
 552.56 927 l 1
 632.56 927 l 1
 494.56 797 l 1
 423.56 797 l 1
 340.56 927 l 1
80 0 m 1
 196 732 l 1
 268 732 l 1
 547 138 l 1
 641 732 l 1
 715 732 l 1
 599 0 l 1
 529 0 l 1
 249 594 l 1
 155 0 l 1
 80 0 l 1
EndSplineSet
AlternateSubs2: "'salt' Access All Alternates in Latin lookup 4-1" Ncaron.salt
Substitution2: "'c2sc' Capitals to Small Capitals in Latin lookup 17 subtable" ncaron.smcp
EndChar

StartChar: Ohungarumlaut
Encoding: 326 336 241
Width: 667
VWidth: 0
Flags: HW
HStem: -4 74<229.318 475.03> 663 74<310.127 571.177> 797 133
LayerCount: 2
Fore
SplineSet
490.667 797 m 1
 618.667 930 l 1
 713.667 930 l 1
 559.667 797 l 1
 490.667 797 l 1
355.667 797 m 1
 483.667 930 l 1
 578.667 930 l 1
 424.667 797 l 1
 355.667 797 l 1
189 361 m 0
 148 104 202 70 352 70 c 0
 494 70 568 112 607 361 c 0
 654 660 570 663 446 663 c 0
 313 663 236 660 189 361 c 0
115 361 m 0
 169 704 273 737 448 737 c 0
 622 737 731 692 681 361 c 0
 632 38 523 -4 350 -4 c 0
 188 -4 62 28 115 361 c 0
EndSplineSet
Substitution2: "'c2sc' Capitals to Small Capitals in Latin lookup 17 subtable" ohungarumlaut.smcp
EndChar

StartChar: Rcaron
Encoding: 327 344 242
Width: 610
VWidth: 0
Flags: HW
HStem: 0 21<75 152.182 496.265 584> 308 64<209 301> 657 75<254 548.387> 797 130
VStem: 297.06 292
DStem2: 75 0 149 0 0.156517 0.987675<11.5822 323.456 388.388 676.919> 362.06 927 297.06 927 0.538133 -0.84286<0 100.631> 478 302 404 294 0.331185 -0.943566<0 293.236> 419.06 844 451.06 797 0.72789 0.685694<0 122.423>
LayerCount: 2
Fore
SplineSet
297.06 927 m 1
 362.06 927 l 1
 419.06 844 l 1
 509.06 927 l 1
 589.06 927 l 1
 451.06 797 l 1
 380.06 797 l 1
 297.06 927 l 1
209 372 m 1
 441 372 l 2
 496 372 553 404 562 512 c 0
 573 644 543 657 491 657 c 2
 254 657 l 1
 209 372 l 1
75 0 m 1
 191 732 l 1
 503 732 l 2
 588 732 654 679 637 512 c 0
 618 320 507 306 478 302 c 1
 584 0 l 1
 503 0 l 1
 404 294 l 1
 198 308 l 1
 149 0 l 1
 75 0 l 1
EndSplineSet
Substitution2: "'c2sc' Capitals to Small Capitals in Latin lookup 17 subtable" rcaron.smcp
EndChar

StartChar: Uring
Encoding: 328 366 243
Width: 656
VWidth: 0
Flags: HW
HStem: -5 74<242.067 453.486> 712 20<191.837 270 633.837 712> 797 48<434.437 521.059> 954 48<440.252 526.126>
VStem: 378.623 203
DStem2: 127 302 202 302 0.156198 0.987726<-133.035 435.344> 569 302 644 302 0.156198 0.987726<-146.371 435.344>
LayerCount: 2
Fore
SplineSet
425.623 899 m 0
 422.998 869 445.898 845 475.898 845 c 0
 505.898 845 531.998 869 534.623 899 c 0
 537.248 929 515.434 954 485.434 954 c 0
 455.434 954 428.248 929 425.623 899 c 0
378.623 899 m 0
 383.609 956 433.634 1002 489.634 1002 c 0
 545.634 1002 586.609 956 581.623 899 c 0
 576.636 842 527.699 797 471.699 797 c 0
 415.699 797 373.636 842 378.623 899 c 0
127 302 m 2
 195 732 l 1
 270 732 l 1
 202 302 l 2
 172 112 224 69 344 69 c 0
 474 69 541 124 569 302 c 2
 637 732 l 1
 712 732 l 1
 644 302 l 2
 621 159 581 -5 338 -5 c 0
 174 -5 92 81 127 302 c 2
EndSplineSet
Substitution2: "'c2sc' Capitals to Small Capitals in Latin lookup 17 subtable" uring.smcp
EndChar

StartChar: Uhungarumlaut
Encoding: 329 368 244
Width: 656
VWidth: 0
Flags: HW
HStem: -5 74<242.067 453.486> 712 20<191.837 270 633.837 712> 797 133
DStem2: 127 302 202 302 0.156198 0.987726<-133.035 435.344> 569 302 644 302 0.156198 0.987726<-146.371 435.344>
LayerCount: 2
Fore
SplineSet
496.959 797 m 1
 624.959 930 l 1
 719.959 930 l 1
 565.959 797 l 1
 496.959 797 l 1
361.959 797 m 1
 489.959 930 l 1
 584.959 930 l 1
 430.959 797 l 1
 361.959 797 l 1
127 302 m 2
 195 732 l 1
 270 732 l 1
 202 302 l 2
 172 112 224 69 344 69 c 0
 474 69 541 124 569 302 c 2
 637 732 l 1
 712 732 l 1
 644 302 l 2
 621 159 581 -5 338 -5 c 0
 174 -5 92 81 127 302 c 2
EndSplineSet
Substitution2: "'c2sc' Capitals to Small Capitals in Latin lookup 17 subtable" uhungarumlaut.smcp
EndChar

StartChar: Tcommaaccent
Encoding: 330 354 245
Width: 579
VWidth: 0
Flags: HW
HStem: -185 37<125 150.667> 0 21<229 306.161> 658 74<131 333 407 627>
VStem: 226 67<-113.281 -49>
DStem2: 229 0 303 0 0.156117 0.987739<11.5526 666.168>
LayerCount: 2
Fore
SplineSet
119 -185 m 1
 125 -148 l 1
 180 -133 l 1
 210 -121 220 -87 226 -49 c 1
 293 -49 l 1
 277 -151 250 -185 170 -185 c 2
 119 -185 l 1
119 658 m 1
 131 732 l 1
 639 732 l 1
 627 658 l 1
 407 658 l 1
 303 0 l 1
 229 0 l 1
 333 658 l 1
 119 658 l 1
EndSplineSet
Substitution2: "'c2sc' Capitals to Small Capitals in Latin lookup 17 subtable" tcommaaccent.smcp
EndChar

StartChar: racute
Encoding: 331 341 246
Width: 427
VWidth: 0
Flags: HW
HStem: 0 21<139 216.168> 462 75<391.098 558.967> 597 133
VStem: 223 54<493.778 531> 372 223
LayerCount: 2
Fore
SplineSet
372 597 m 1
 500 730 l 1
 595 730 l 1
 441 597 l 1
 372 597 l 1
139 0 m 1
 223 531 l 1
 275 531 l 1
 286 464 l 1
 353 499 414 537 496 537 c 0
 525 537 558 535 569 529 c 1
 557 456 l 1
 545 459 513 462 484 462 c 0
 404 462 360 441 277 404 c 1
 213 0 l 1
 139 0 l 1
EndSplineSet
AlternateSubs2: "'salt' Access All Alternates in Latin lookup 4-1" racute.salt
Substitution2: "'smcp' Lowercase to Small Capitals lookup 16-1" racute.smcp
EndChar

StartChar: abreve
Encoding: 332 259 247
Width: 541
VWidth: 0
Flags: HW
HStem: -7 74<177.772 341.569> 0 21<436.333 495.923> 602.972 46<312.185 415.853>
VStem: 254.784 46<660.212 716.972> 435.784 46<670.549 716.972> 440 53<0 38.1818>
DStem2: 486 452 563 479 0.144602 0.98949<-351.468 2.0042>
LayerCount: 2
Fore
SplineSet
274.784 716.972 m 1
 320.784 716.972 l 1
 314.784 673.972 342.784 648.972 375.784 648.972 c 0
 418.784 647.972 447.784 665.972 455.784 716.972 c 1
 501.784 716.972 l 1
 490.784 635.972 444.784 602.972 375.784 602.972 c 0
 322.784 602.972 268.784 642.972 274.784 716.972 c 1
161 251 m 0
 139 113 165 67 243 67 c 0
 320 67 366 86 434 115 c 1
 486 452 l 1
 426 468 355 476 314 468 c 0
 249 456 192 442 161 251 c 0
90 278 m 0
 126 495 224 531 306 541 c 0
 376 550 512 528 563 479 c 1
 493 0 l 1
 440 0 l 1
 429 60 l 1
 400 41 320 -7 243 -7 c 0
 129 -7 50 37 90 278 c 0
EndSplineSet
Substitution2: "'smcp' Lowercase to Small Capitals lookup 16-1" abreve.smcp
EndChar

StartChar: lacute
Encoding: 333 314 248
Width: 290
VWidth: 0
Flags: HW
HStem: 0 56<162.016 243> 763 20<152.835 230> 843 133
VStem: 168 223
DStem2: 62 189 136 189 0.156304 0.987709<-83.5685 601.392>
LayerCount: 2
Fore
SplineSet
168 843 m 1
 296 976 l 1
 391 976 l 1
 237 843 l 1
 168 843 l 1
62 189 m 2
 156 783 l 1
 230 783 l 1
 136 189 l 2
 120 90 138 83 177 74 c 2
 177 74 251 56 252 56 c 2
 243 0 l 1
 175 0 l 2
 80 0 42 60 62 189 c 2
EndSplineSet
Substitution2: "'smcp' Lowercase to Small Capitals lookup 16-1" lacute.smcp
EndChar

StartChar: cacute
Encoding: 334 263 249
Width: 496
VWidth: 0
Flags: HW
HStem: -6 73<178.112 437.842> 464 74<228.762 498.092> 598 133
VStem: 316 223
LayerCount: 2
Fore
SplineSet
316 598 m 1
 444 731 l 1
 539 731 l 1
 385 598 l 1
 316 598 l 1
91 266 m 0
 135 519 215 538 309 538 c 0
 361 538 464 523 532 510 c 1
 524 456 l 1
 524 456 386 464 297 464 c 0
 238 464 200 456 164 262 c 0
 137 113 169 67 234 67 c 0
 326 67 471 78 471 78 c 1
 462 22 l 1
 377 -1 315 -7 232 -6 c 0
 130 -5 56 65 91 266 c 0
EndSplineSet
Substitution2: "'smcp' Lowercase to Small Capitals lookup 16-1" cacute.smcp
EndChar

StartChar: ccaron
Encoding: 335 269 250
Width: 496
VWidth: 0
Flags: HW
HStem: -6 73<176.112 435.842> 464 74<226.762 496.092> 598 130
VStem: 244.268 292
DStem2: 309.268 728 244.268 728 0.538133 -0.84286<0 100.631> 366.268 645 398.268 598 0.72789 0.685694<0 122.423>
LayerCount: 2
Fore
SplineSet
244.268 728 m 1
 309.268 728 l 1
 366.268 645 l 1
 456.268 728 l 1
 536.268 728 l 1
 398.268 598 l 1
 327.268 598 l 1
 244.268 728 l 1
89 266 m 0
 133 519 213 538 307 538 c 0
 359 538 462 523 530 510 c 1
 522 456 l 1
 522 456 384 464 295 464 c 0
 236 464 198 456 162 262 c 0
 135 113 167 67 232 67 c 0
 324 67 469 78 469 78 c 1
 460 22 l 1
 375 -1 313 -7 230 -6 c 0
 128 -5 54 65 89 266 c 0
EndSplineSet
Substitution2: "'smcp' Lowercase to Small Capitals lookup 16-1" ccaron.smcp
EndChar

StartChar: eogonek
Encoding: 336 281 251
Width: 525
VWidth: 0
Flags: HW
HStem: -159 60<395.379 441> -7 71<168.51 435.545> 2 20<348 467> 467 74<248.536 459.618>
LayerCount: 2
Fore
SplineSet
165 281 m 1
 165 281 449 250 472 388 c 0
 484 459 440 467 351 467 c 0
 192 467 184 372 165 281 c 1
91 278 m 0
 122 441 160 541 355 541 c 0
 481 541 561 504 546 388 c 0
 518 169 194 212 157 227 c 1
 136 103 155 65 226 64 c 1
 302 58 397 67 475 78 c 1
 467 22 l 1
 374 -46 368 -103 451 -99 c 1
 441 -159 l 1
 332.062 -173.771 276.819 -61.5487 394.874 6.13339 c 1
 335.341 -3.95067 276.17 -7 217 -7 c 0
 89 -7 55 84 91 278 c 0
EndSplineSet
Substitution2: "'smcp' Lowercase to Small Capitals lookup 16-1" eogonek.smcp
EndChar

StartChar: ecaron
Encoding: 337 283 252
Width: 525
VWidth: 0
Flags: HW
HStem: -7 71<166.51 433.545> 467 74<246.536 457.618> 601 130
VStem: 247.268 292
DStem2: 312.268 731 247.268 731 0.538133 -0.84286<0 100.631> 369.268 648 401.268 601 0.72789 0.685694<0 122.423>
LayerCount: 2
Fore
SplineSet
247.268 731 m 1
 312.268 731 l 1
 369.268 648 l 1
 459.268 731 l 1
 539.268 731 l 1
 401.268 601 l 1
 330.268 601 l 1
 247.268 731 l 1
163 281 m 1
 163 281 447 250 470 388 c 0
 482 459 438 467 349 467 c 0
 190 467 182 372 163 281 c 1
89 278 m 0
 120 441 158 541 353 541 c 0
 479 541 559 504 544 388 c 0
 516 169 192 212 155 227 c 1
 134 103 153 65 224 64 c 1
 300 58 395 67 473 78 c 1
 465 22 l 1
 381 -1 298 -7 215 -7 c 0
 87 -7 53 84 89 278 c 0
EndSplineSet
Substitution2: "'smcp' Lowercase to Small Capitals lookup 16-1" ecaron.smcp
EndChar

StartChar: dcaron
Encoding: 338 271 253
Width: 650
VWidth: 0
Flags: HW
HStem: -6 74<185.09 334.731> 465 74<234.179 444.965> 765 20G<540.783 616>
VStem: 438 53<0 41.3>
DStem2: 437 114 491 0 0.157254 0.987558<-11.6187 330.863 389.802 679.478>
LayerCount: 2
Fore
SplineSet
668 579 m 1
 679 713 l 1
 689 780 l 1
 764 780 l 1
 753 713 l 1
 721 579 l 1
 668 579 l 1
163 263 m 0
 142 139 168 68 235 68 c 0
 314 68 380 92 437 114 c 1
 488 439 l 1
 422 457 373 465 296 465 c 0
 236 465 190 426 163 263 c 0
89 263 m 0
 112 405 157 539 308 539 c 0
 353 539 438 525 498 499 c 1
 544 785 l 1
 616 785 l 1
 491 0 l 1
 438 0 l 1
 428 59 l 1
 399 40 301 -6 233 -6 c 0
 93 -6 69 141 89 263 c 0
EndSplineSet
AlternateSubs2: "'salt' Access All Alternates in Latin lookup 4-1" dcaron.salt
Substitution2: "'smcp' Lowercase to Small Capitals lookup 16-1" dcaron.smcp
EndChar

StartChar: nacute
Encoding: 339 324 254
Width: 544
VWidth: 0
Flags: HW
HStem: 0 21<60 137.178 420 497.189> 466 74<309.154 462.151> 511 20<140.836 199.871> 600 133
VStem: 144 55<503.444 531> 337.85 223
DStem2: 420 0 494 0 0.15747 0.987524<11.6528 438.112>
LayerCount: 2
Fore
SplineSet
337.85 600 m 1
 465.85 733 l 1
 560.85 733 l 1
 406.85 600 l 1
 337.85 600 l 1
60 0 m 1
 144 531 l 1
 196 531 l 1
 208 469 l 1
 275 504 335 540 416 540 c 0
 522 540 567 458 553 370 c 2
 494 0 l 1
 420 0 l 1
 479 370 l 2
 489 436 455 466 404 466 c 0
 324 466 282 446 199 409 c 1
 134 0 l 1
 60 0 l 1
EndSplineSet
AlternateSubs2: "'salt' Access All Alternates in Latin lookup 4-1" nacute.salt
Substitution2: "'smcp' Lowercase to Small Capitals lookup 16-1" nacute.smcp
EndChar

StartChar: ncaron
Encoding: 340 328 255
Width: 544
VWidth: 0
Flags: HW
HStem: 0 21<60 137.178 420 497.189> 466 74<309.154 462.151> 511 20<140.836 199.871> 600 130
VStem: 144 55<503.444 531> 251.951 292
DStem2: 316.951 730 251.951 730 0.538133 -0.84286<0 100.631> 373.951 647 405.951 600 0.72789 0.685694<0 122.423> 420 0 494 0 0.15747 0.987524<11.6528 438.112>
LayerCount: 2
Fore
SplineSet
251.951 730 m 1
 316.951 730 l 1
 373.951 647 l 1
 463.951 730 l 1
 543.951 730 l 1
 405.951 600 l 1
 334.951 600 l 1
 251.951 730 l 1
60 0 m 1
 144 531 l 1
 196 531 l 1
 208 469 l 1
 275 504 335 540 416 540 c 0
 522 540 567 458 553 370 c 2
 494 0 l 1
 420 0 l 1
 479 370 l 2
 489 436 455 466 404 466 c 0
 324 466 282 446 199 409 c 1
 134 0 l 1
 60 0 l 1
EndSplineSet
AlternateSubs2: "'salt' Access All Alternates in Latin lookup 4-1" ncaron.salt
Substitution2: "'smcp' Lowercase to Small Capitals lookup 16-1" ncaron.smcp
EndChar

StartChar: ohungarumlaut
Encoding: 341 337 256
Width: 564
VWidth: 0
Flags: HW
HStem: -5 74<188.54 403.394> 462 74<245.365 458.217> 596 133
LayerCount: 2
Fore
SplineSet
406.667 596 m 1
 534.667 729 l 1
 629.667 729 l 1
 475.667 596 l 1
 406.667 596 l 1
271.667 596 m 1
 399.667 729 l 1
 494.667 729 l 1
 340.667 596 l 1
 271.667 596 l 1
163 258 m 0
 134 86 190 69 293 69 c 0
 398 69 453 83 483 258 c 0
 512 429 473 462 356 462 c 0
 244 462 194 442 163 258 c 0
89 258 m 0
 123 475 190 536 364 536 c 0
 532 536 588 445 557 258 c 0
 524 61 467 -5 292 -5 c 0
 120 -5 59 68 89 258 c 0
EndSplineSet
Substitution2: "'smcp' Lowercase to Small Capitals lookup 16-1" ohungarumlaut.smcp
EndChar

StartChar: rcaron
Encoding: 342 345 257
Width: 427
VWidth: 0
Flags: HW
HStem: 0 21<60 137.168> 462 75<312.098 479.967> 597 130
VStem: 144 54<493.778 531> 202.377 292
DStem2: 267.377 727 202.377 727 0.538133 -0.84286<0 100.631> 324.377 644 356.377 597 0.72789 0.685694<0 122.423>
LayerCount: 2
Fore
SplineSet
202.377 727 m 1
 267.377 727 l 1
 324.377 644 l 1
 414.377 727 l 1
 494.377 727 l 1
 356.377 597 l 1
 285.377 597 l 1
 202.377 727 l 1
60 0 m 1
 144 531 l 1
 196 531 l 1
 207 464 l 1
 274 499 335 537 417 537 c 0
 446 537 479 535 490 529 c 1
 478 456 l 1
 466 459 434 462 405 462 c 0
 325 462 281 441 198 404 c 1
 134 0 l 1
 60 0 l 1
EndSplineSet
AlternateSubs2: "'salt' Access All Alternates in Latin lookup 4-1" rcaron.salt
Substitution2: "'smcp' Lowercase to Small Capitals lookup 16-1" rcaron.smcp
EndChar

StartChar: uring
Encoding: 343 367 258
Width: 543
VWidth: 0
Flags: HW
HStem: -9 74<163.132 319.608> 0 21<428.129 487.164> 511 20<130.865 208 490.87 568> 596 48<331.937 418.559> 753 48<337.752 423.626>
VStem: 276.123 203 432 52<0 36.1667>
DStem2: 76 161 150 161 0.154866 0.987935<-58.2599 374.518> 430 122 484 0 0.156249 0.987718<-13.322 413.976>
LayerCount: 2
Fore
SplineSet
323.123 698 m 0
 320.498 668 343.398 644 373.398 644 c 0
 403.398 644 429.498 668 432.123 698 c 0
 434.748 728 412.934 753 382.934 753 c 0
 352.934 753 325.748 728 323.123 698 c 0
276.123 698 m 0
 281.109 755 331.134 801 387.134 801 c 0
 443.134 801 484.109 755 479.123 698 c 0
 474.136 641 425.199 596 369.199 596 c 0
 313.199 596 271.136 641 276.123 698 c 0
76 161 m 2
 134 531 l 1
 208 531 l 1
 150 161 l 2
 138 85 174 65 225 65 c 0
 305 65 347 85 430 122 c 1
 494 531 l 1
 568 531 l 1
 484 0 l 1
 432 0 l 1
 420 62 l 1
 353 27 294 -9 213 -9 c 0
 107 -9 61 66 76 161 c 2
EndSplineSet
AlternateSubs2: "'salt' Access All Alternates in Latin lookup 4-1" uring.salt
Substitution2: "'smcp' Lowercase to Small Capitals lookup 16-1" uring.smcp
EndChar

StartChar: uhungarumlaut
Encoding: 344 369 259
Width: 543
VWidth: 0
Flags: HW
HStem: -9 74<163.132 319.608> 0 21<428.129 487.164> 511 20<130.865 208 490.87 568> 596 133
VStem: 432 52<0 36.1667>
DStem2: 76 161 150 161 0.154866 0.987935<-58.2599 374.518> 430 122 484 0 0.156249 0.987718<-13.322 413.976>
LayerCount: 2
Fore
SplineSet
394.459 596 m 1
 522.459 729 l 1
 617.459 729 l 1
 463.459 596 l 1
 394.459 596 l 1
259.459 596 m 1
 387.459 729 l 1
 482.459 729 l 1
 328.459 596 l 1
 259.459 596 l 1
76 161 m 2
 134 531 l 1
 208 531 l 1
 150 161 l 2
 138 85 174 65 225 65 c 0
 305 65 347 85 430 122 c 1
 494 531 l 1
 568 531 l 1
 484 0 l 1
 432 0 l 1
 420 62 l 1
 353 27 294 -9 213 -9 c 0
 107 -9 61 66 76 161 c 2
EndSplineSet
AlternateSubs2: "'salt' Access All Alternates in Latin lookup 4-1" uhungarumlaut.salt
Substitution2: "'smcp' Lowercase to Small Capitals lookup 16-1" uhungarumlaut.smcp
EndChar

StartChar: tcommaaccent
Encoding: 345 355 260
Width: 378
VWidth: 0
Flags: HW
HStem: -187 37<69 94.6667> 0 56<249.755 331> 458 56<101 140.667> 458 74<277 420>
VStem: 170 67<-115.281 -51> 244 56<654.732 680>
DStem2: 149 189 223 189 0.154929 0.987926<-84.0171 272.259>
LayerCount: 2
Fore
SplineSet
63 -187 m 1
 69 -150 l 1
 124 -135 l 1
 154 -123 164 -89 170 -51 c 1
 237 -51 l 1
 221 -153 194 -187 114 -187 c 2
 63 -187 l 1
92 458 m 1
 101 514 l 1
 203 532 l 1
 244 680 l 1
 300 680 l 1
 277 532 l 1
 432 532 l 1
 420 458 l 1
 265 458 l 1
 223 189 l 2
 208 90 225 83 264 74 c 2
 264 74 338 56 339 56 c 2
 331 0 l 1
 263 0 l 2
 166 0 129 59 149 189 c 2
 191 458 l 1
 92 458 l 1
EndSplineSet
AlternateSubs2: "'salt' Access All Alternates in Latin lookup 4-1" tcommaaccent.salt
Substitution2: "'smcp' Lowercase to Small Capitals lookup 16-1" tcommaaccent.smcp
EndChar

StartChar: Lslash
Encoding: 346 321 261
Width: 535
VWidth: 0
Flags: HW
HStem: 0 74<173.177 520> 712 20G<190.825 267>
DStem2: 54 381 44 320 0.927261 0.374415<0 65.195 181.24 309.202> 97 126 171 126 0.158054 0.98743<-28.6433 233.944 338.697 613.714>
LayerCount: 2
Fore
SplineSet
44 320 m 1
 54 381 l 1
 144 417 l 1
 194 732 l 1
 267 732 l 1
 222 449 l 1
 371 509 l 1
 360 449 l 1
 213 389 l 1
 171 126 l 2
 163 73 196 74 225 74 c 2
 532 74 l 1
 520 0 l 1
 213 0 l 2
 145.992 0 82 32 97 126 c 2
 134 357 l 1
 44 320 l 1
EndSplineSet
Substitution2: "'c2sc' Capitals to Small Capitals in Latin lookup 17 subtable" lslash.smcp
EndChar

StartChar: uni00AD
Encoding: 173 173 262
Width: 355
VWidth: 0
Flags: HW
HStem: 253 74<72 374>
VStem: 60 326
LayerCount: 2
Fore
SplineSet
60 253 m 1
 72 327 l 1
 386 327 l 1
 374 253 l 1
 60 253 l 1
EndSplineSet
Substitution2: "'case' Case-Sensitive Forms lookup 1-1" uni00AD.alt
Substitution2: "'c2sc' Capitals to Small Capitals in Latin lookup 17 subtable" uni00AD.smcp
Substitution2: "'smcp' Lowercase to Small Capitals lookup 16-1" uni00AD.smcp
EndChar

StartChar: lslash
Encoding: 347 322 263
Width: 363
VWidth: 0
Flags: HW
HStem: 0 56<250.531 330> 763 20G<239.812 320>
VStem: 100 327
DStem2: 110 430 100 369 0.927261 0.374415<0 56.6536 177.157 309.202> 148 189 222 189 0.162783 0.986662<-83.4622 216.68 324.402 601.542>
LayerCount: 2
Fore
SplineSet
100 369 m 1
 110 430 l 1
 192 463 l 1
 243 783 l 1
 320 783 l 1
 274 497 l 1
 427 558 l 1
 416 498 l 1
 265 436 l 1
 222 189 l 2
 205 90 224 83 263 74 c 2
 263 74 337 56 338 56 c 2
 330 0 l 1
 262 0 l 2
 179 0 126 49 148 189 c 2
 182 403 l 1
 100 369 l 1
EndSplineSet
Substitution2: "'smcp' Lowercase to Small Capitals lookup 16-1" lslash.smcp
EndChar

StartChar: Dcroat
Encoding: 348 272 264
Width: 668
VWidth: 0
Flags: HW
HStem: 0 77<189 465.148> 346 54<102 158 241 371> 658 74<281 563.51>
DStem2: 103 0 189 77 0.156726 0.987642<89.5269 350.344 416.685 677.766>
LayerCount: 2
Fore
SplineSet
189 77 m 1
 388 77 l 2
 518 77 596 215 620 364 c 0
 652 566 606 658 480 658 c 2
 281 658 l 1
 241 400 l 1
 380 400 l 1
 371 346 l 1
 232 346 l 1
 189 77 l 1
93 346 m 1
 102 400 l 1
 167 400 l 1
 219 731 l 2
 219 732 432 732 492 732 c 0
 717 732 717 485 695 363 c 0
 658 150 565 0 376 0 c 2
 103 0 l 1
 158 346 l 1
 93 346 l 1
EndSplineSet
Substitution2: "'c2sc' Capitals to Small Capitals in Latin lookup 17 subtable" dcroat.smcp
EndChar

StartChar: dcroat
Encoding: 349 273 265
Width: 552
VWidth: 0
Flags: HW
HStem: -6 74<185.09 334.731> 465 74<234.179 444.965> 616 54<403 516 598 661> 765 20G<540.696 616>
VStem: 438 53<0 41.3>
DStem2: 437 114 491 0 0.157254 0.987558<-11.6187 330.863 389.802 508.177 574.4 679.478>
LayerCount: 2
Fore
SplineSet
163 263 m 0
 142 139 168 68 235 68 c 0
 314 68 380 92 437 114 c 1
 488 439 l 1
 422 457 373 465 296 465 c 0
 236 465 190 426 163 263 c 0
89 263 m 0
 112 405 157 539 308 539 c 0
 353 539 438 525 498 499 c 1
 516 616 l 1
 394 616 l 1
 403 670 l 1
 525 670 l 1
 544 785 l 1
 616 785 l 1
 598 670 l 1
 670 670 l 1
 661 616 l 1
 589 616 l 1
 491 0 l 1
 438 0 l 1
 428 59 l 1
 399 40 301 -6 233 -6 c 0
 93 -6 69 141 89 263 c 0
EndSplineSet
AlternateSubs2: "'salt' Access All Alternates in Latin lookup 4-1" dcroat.salt
Substitution2: "'smcp' Lowercase to Small Capitals lookup 16-1" dcroat.smcp
EndChar

StartChar: questiondown
Encoding: 191 191 266
Width: 538
VWidth: 0
Flags: HW
HStem: -270 71<123.483 430.149> -250 51<264.067 481> 112 61<163.929 310> 364 105<344.422 436.386>
DStem2: 26 -85 99 -85 0.156465 0.987684<-65.3012 177.59>
LayerCount: 2
Fore
SplineSet
335 389 m 2
 344 446 l 2
 346 461 356 469 370 469 c 2
 425 469 l 2
 439 469 448 460 446 446 c 2
 437 389 l 2
 435 374 425 364 409 364 c 2
 354 364 l 2
 339 364 333 375 335 389 c 2
26 -85 m 2
 42 16 l 2
 66 168 178 194 310 173 c 1
 310 176 327 268 326 274 c 1
 401 274 l 1
 375 112 l 1
 317 113 291 114 233 112 c 0
 184 110 126 83 115 16 c 2
 99 -85 l 2
 86 -169 116 -199 218 -199 c 2
 489 -199 l 1
 481 -250 l 1
 377 -263 309 -275 195 -270 c 1
 61 -270 10 -183 26 -85 c 2
EndSplineSet
Substitution2: "'case' Case-Sensitive Forms lookup 1-1" questiondown.alt
Substitution2: "'smcp' Lowercase to Small Capitals lookup 16-1" questiondown.smcp
EndChar

StartChar: at.alt
Encoding: 350 -1 267
Width: 762
VWidth: 0
Flags: HW
HStem: -89 74<169.358 560.236> -62 47<445.118 613> 86 74<359.427 515.75> 93 74<653 718.667> 561 73<420.865 632.479> 714 75<278.51 796.612>
DStem2: 76 99 150 99 0.15626 0.987716<-65.171 603.535> 584 220 653 167 0.154282 0.988027<-20.0928 330.651> 750 257 824 257 0.148067 0.988977<-74.4091 439.669>
LayerCount: 2
Fore
SplineSet
341 344 m 0
 323 199 344 161 422 160 c 0
 477 159 519 171 584 220 c 1
 635 545 l 1
 575 561 528 561 486 561 c 0
 434 561 364 529 341 344 c 0
76 99 m 2
 157 611 l 2
 172 703 224 789 362 789 c 2
 737 789 l 2
 848 789 894 724 877 611 c 2
 824 257 l 2
 817 210 799 93 655 93 c 2
 601 93 l 1
 578 153 l 1
 547 119 495 87 422 86 c 0
 311 84 236 138 270 365 c 0
 304 586 411 634 485 634 c 0
 556 634 661 621 712 572 c 1
 653 167 l 1
 701 167 737 176 750 257 c 2
 803 611 l 2
 819 719 772 714 732 714 c 2
 350 714 l 2
 255 714 236 642 231 611 c 2
 150 99 l 2
 141 42 149 -15 235 -15 c 2
 621 -15 l 1
 613 -62 l 1
 563 -72 447 -89 321 -89 c 2
 223 -89 l 2
 119 -89 59 -8 76 99 c 2
EndSplineSet
EndChar

StartChar: questiondown.alt
Encoding: 351 -1 268
Width: 538
VWidth: 0
Flags: HW
HStem: 1 71<169.273 471.149> 21 51<305.067 522> 383 61<204.929 351> 635 105<385.422 477.386>
DStem2: 67 186 140 186 0.156465 0.987684<-61.2808 178.572>
LayerCount: 2
Fore
SplineSet
376 660 m 2
 385 717 l 2
 387 732 397 740 411 740 c 2
 466 740 l 2
 480 740 489 731 487 717 c 2
 478 660 l 2
 476 645 466 635 450 635 c 2
 395 635 l 2
 380 635 374 646 376 660 c 2
67 186 m 2
 83 287 l 2
 105 428 219 465 351 444 c 1
 351 447 368 539 367 545 c 1
 442 545 l 1
 416 383 l 1
 358 384 332 385 274 383 c 0
 225 381 167 354 156 287 c 2
 140 186 l 2
 128 112 157 72 259 72 c 2
 530 72 l 1
 522 21 l 1
 418 8 350 -4 236 1 c 1
 102 1 51 88 67 186 c 2
EndSplineSet
EndChar

StartChar: oe
Encoding: 352 339 269
Width: 928
VWidth: 0
Flags: HW
HStem: -7 71<187.463 388.914 556.411 827.437> 462 74<237.365 450.186 631.246 854.706>
LayerCount: 2
Fore
SplineSet
556 281 m 1
 556 281 840 250 863 388 c 0
 875 459 831 467 742 467 c 0
 583 467 575 372 556 281 c 1
155 258 m 0
 126 86 182 69 285 69 c 0
 390 69 445 83 475 258 c 0
 504 429 465 462 348 462 c 0
 236 462 186 442 155 258 c 0
81 261 m 0
 115 478 182 536 356 536 c 0
 450 536 509 508 537 451 c 1
 574 509 635 541 746 541 c 0
 872 541 952 504 937 388 c 0
 909 169 585 212 548 227 c 1
 527 103 546 64 617 64 c 0
 693 64 788 67 866 78 c 1
 858 22 l 1
 774 -1 691 -7 608 -7 c 0
 542 -7 502 17 482 66 c 1
 441 15 380 -5 284 -5 c 0
 112 -5 51 71 81 261 c 0
EndSplineSet
Substitution2: "'smcp' Lowercase to Small Capitals lookup 16-1" oe.smcp
EndChar

StartChar: OE
Encoding: 353 338 270
Width: 1076
VWidth: 0
Flags: HW
HStem: -4 74<218.318 464.086> 14 57<857.765 985> 323 79<678 896.7> 333 59<776.1 996> 658 58<958.625 1087> 663 74<299.127 560.469 724.866 886.667>
LayerCount: 2
Fore
SplineSet
178 361 m 0
 137 104 191 70 341 70 c 0
 483 70 557 112 596 361 c 0
 643 660 559 663 435 663 c 0
 302 663 225 660 178 361 c 0
104 361 m 0
 158 704 262 737 437 737 c 0
 533 737 609 723 650 655 c 1
 674 720 722 735 782 732 c 2
 1096 716 l 1
 1087 658 l 1
 770 658 l 2
 722 658 713 629 709 602 c 2
 678 402 l 1
 1005 392 l 1
 996 333 l 1
 665 323 l 1
 633 123 l 1
 626 70 659 71 688 71 c 2
 995 71 l 1
 985 14 l 1
 676 -3 l 2
 625 -6 575 15 561 67 c 1
 505 8 431 -4 339 -4 c 0
 177 -4 51 28 104 361 c 0
EndSplineSet
EndChar

StartChar: Ydieresis
Encoding: 354 376 271
Width: 630
VWidth: 0
Flags: HW
HStem: 0 21<224 301.154> 712 20<107 191.719 565.037 667> 792 101<240.419 314.369 495.419 569.369>
VStem: 227 101<806.143 879.333> 482 101<806.143 879.333>
DStem2: 185 732 107 732 0.317433 -0.948281<0 401.926> 224 0 298 0 0.155767 0.987794<11.5268 263.213> 313 351 339 260 0.570657 0.821189<0 464.668>
LayerCount: 2
Fore
SplineSet
482 843 m 0
 486 871 513 893 541 893 c 0
 569 893 587 871 583 843 c 0
 579 815 553 792 525 792 c 0
 497 792 478 815 482 843 c 0
227 843 m 0
 231 871 258 893 286 893 c 0
 314 893 332 871 328 843 c 0
 324 815 298 792 270 792 c 0
 242 792 223 815 227 843 c 0
107 732 m 1
 185 732 l 1
 313 351 l 1
 579 732 l 1
 667 732 l 1
 339 260 l 1
 298 0 l 1
 224 0 l 1
 265 260 l 1
 107 732 l 1
EndSplineSet
Substitution2: "'c2sc' Capitals to Small Capitals in Latin lookup 17 subtable" ydieresis.smcp
EndChar

StartChar: guillemotright
Encoding: 187 187 272
Width: 553
VWidth: 0
Flags: HW
DStem2: 81 200 127 146 0.760834 0.648947<0 240.468> 187 557 133 510 0.65019 -0.759772<0.599052 202.779> 275 200 321 146 0.760834 0.648947<0 240.468> 381 557 327 510 0.65019 -0.759772<0.599052 202.779>
LayerCount: 2
Fore
SplineSet
275 200 m 1
 458 356 l 1
 327 510 l 1
 381 557 l 1
 559 349 l 1
 321 146 l 1
 275 200 l 1
81 200 m 1
 264 356 l 1
 133 510 l 1
 187 557 l 1
 365 349 l 1
 127 146 l 1
 81 200 l 1
EndSplineSet
EndChar

StartChar: cent
Encoding: 162 162 273
Width: 489
VWidth: 0
Flags: HW
HStem: -6 73<166.915 227 287 425.93>
DStem2: 214 -96 274 -96 0.155615 0.987818<9.33691 90.9266 645.925 739.003>
LayerCount: 2
Fore
SplineSet
80 266 m 0
 125 525 204 543 313 538 c 1
 329 634 l 1
 389 634 l 1
 372 533 l 1
 421 527 479 518 522 510 c 1
 513 456 l 1
 513 456 375 464 286 464 c 0
 227 464 189 456 153 262 c 0
 126 113 158 67 223 67 c 0
 315 67 460 78 460 78 c 1
 451 22 l 1
 390 5 341 -2 287 -5 c 1
 274 -96 l 1
 214 -96 l 1
 227 -6 l 1
 119 -5 44 61 80 266 c 0
EndSplineSet
EndChar

StartChar: sterling
Encoding: 163 163 274
Width: 596
VWidth: 0
Flags: HW
HStem: 0 74<208 545> 0 59<59 94> 330 45<109 139.882 415.647 519> 659 73<339.321 650> 659 57<468.729 650>
DStem2: 134 74 208 74 0.155845 0.987782<11.5325 259.106 333.439 563.053>
LayerCount: 2
Fore
SplineSet
50 0 m 1
 59 59 l 1
 134 74 l 1
 174 330 l 1
 102 330 l 1
 109 375 l 1
 184 392 l 1
 202 505 l 2
 237 726 344 732 466 732 c 0
 523 732 659 716 659 716 c 1
 650 659 l 1
 463 659 l 2
 332 659 297 636 276 505 c 2
 258 392 l 1
 526 375 l 1
 519 330 l 1
 248 330 l 1
 208 74 l 1
 557 74 l 1
 545 0 l 1
 50 0 l 1
EndSplineSet
Substitution2: "'smcp' Lowercase to Small Capitals lookup 16-1" sterling.smcp
EndChar

StartChar: yen
Encoding: 165 165 275
Width: 601
VWidth: 0
Flags: HW
HStem: 0 21G<253 329.614> 153 59<115 273 354 533> 262 59<133 287 372 550> 712 20G<136 221.688 591.084 696>
DStem2: 214 732 136 732 0.35486 -0.934919<0 356.75> 253 0 327 0 0.128692 0.991685<9.5232 154.302 223.235 264.197> 342 399 372 321 0.619087 0.785323<0 425.57>
LayerCount: 2
Fore
SplineSet
106 153 m 1
 115 212 l 1
 280 212 l 1
 287 262 l 1
 123 262 l 1
 133 321 l 1
 292 321 l 1
 136 732 l 1
 214 732 l 1
 342 399 l 1
 607 732 l 1
 696 732 l 1
 372 321 l 1
 560 321 l 1
 550 262 l 1
 361 262 l 1
 354 212 l 1
 542 212 l 1
 533 153 l 1
 347 153 l 1
 327 0 l 1
 253 0 l 1
 273 153 l 1
 106 153 l 1
EndSplineSet
Substitution2: "'smcp' Lowercase to Small Capitals lookup 16-1" yen.smcp
EndChar

StartChar: section
Encoding: 167 167 276
Width: 551
VWidth: 0
Flags: HW
HStem: -8 74<116.17 428.438> 11 55<102 312.543> 230 74<184.183 450.232> 470 73<224.205 488.653> 710 74<244.116 548.248> 710 55<361.209 571>
DStem2: 111 353 184 353 0.157614 0.987501<-29.9347 129.211 215.488 369.208> 439 110 513 110 0.154968 0.98792<-41.2251 113.187 198.889 356.415>
LayerCount: 2
Fore
SplineSet
184 353 m 2
 177 308 195 304 232 304 c 2
 411 304 l 2
 470 304 473 326 477 354 c 0
 478 355 487 416 487 416 c 2
 493 451 494 470 438 470 c 2
 259 470 l 2
 216 470 202 463 194 414 c 2
 184 353 l 2
93 11 m 1
 102 66 l 1
 368 66 l 2
 402 66 432 70 439 110 c 2
 450 183 l 2
 457 225 440 230 400 230 c 2
 227 230 l 2
 152 230 97 267 111 353 c 2
 121 415 l 2
 129 465 143 497 180 508 c 1
 147 531 142 555 148 590 c 2
 159 660 l 2
 174 755 235 784 308 784 c 0
 357 784 542 769 579 765 c 1
 571 710 l 1
 297 710 l 2
 263 710 240 700 233 660 c 2
 222 590 l 2
 216 552 244 543 270 543 c 2
 449 543 l 2
 534 543 572 488 561 416 c 2
 551 354 l 2
 547 326 537 271 496 265 c 1
 531 251 529 216 524 183 c 2
 513 110 l 2
 497 10 459 -8 356 -8 c 0
 307 -8 130 7 93 11 c 1
EndSplineSet
EndChar

StartChar: g.salt
Encoding: 355 -1 277
Width: 517
VWidth: 0
Flags: HW
HStem: -270 75<101.123 379.419> 148 75<189.174 404.538> 459 74<217.461 438.883>
DStem2: 19 -116 94 -116 0.165094 0.986278<-45.8399 152.29 228.232 280.8 398.563 567.891> 362 58 334 -10 0.989379 -0.145359<-225.974 51.1911>
LayerCount: 2
Fore
SplineSet
170 344 m 0
 162 295 169 223 246 223 c 2
 347 223 l 2
 422 223 451 306 457 344 c 0
 466 399 458 459 384 459 c 2
 283 459 l 2
 201 459 179 396 170 344 c 0
94 -116 m 2
 78 -193 132 -195 168 -195 c 2
 318 -195 l 2
 377 -195 398 -163 405 -116 c 1
 410 -88 l 1
 417 -41 385 -18 334 -10 c 2
 123 21 l 1
 94 -116 l 2
19 -116 m 2
 64 114 l 1
 69 150 91 200 141 200 c 1
 101 228 88 291 96 344 c 0
 116 474 188 535 295 533 c 2
 400 531 l 1
 468 531 549 485 531 344 c 0
 521 267 477 148 335 148 c 2
 188 148 l 2
 172 148 147 153 142 121 c 0
 138 95 157 86 178 83 c 2
 362 58 l 2
 430 49 497 -4 484 -83 c 1
 479 -116 l 2
 468 -186 452 -270 305 -270 c 2
 166 -270 l 2
 64 -270 0 -212 19 -116 c 2
EndSplineSet
EndChar

StartChar: guillemotleft
Encoding: 171 171 278
Width: 556
VWidth: 0
Flags: HW
DStem2: 207 347 106 354 0.65019 -0.759772<0 202.18> 106 354 207 347 0.760834 0.648947<72.3016 312.77> 397 347 296 354 0.65019 -0.759772<0 202.18> 296 354 397 347 0.760834 0.648947<72.3016 312.77>
LayerCount: 2
Fore
SplineSet
296 354 m 1
 534 557 l 1
 580 503 l 1
 397 347 l 1
 528 193 l 1
 474 146 l 1
 296 354 l 1
106 354 m 1
 344 557 l 1
 390 503 l 1
 207 347 l 1
 338 193 l 1
 284 146 l 1
 106 354 l 1
EndSplineSet
EndChar

StartChar: paragraph
Encoding: 182 182 279
Width: 581
VWidth: 0
Flags: HW
HStem: 0 21G<418 495.171> 355 74<202.478 308.701> 658 74<229.366 354 428 522 596 665>
DStem2: 118 499 193 501 0.14886 0.988858<-39.0685 159.25> 207 -270 281 -270 0.155963 0.987763<11.5412 650.052 707.602 942.534> 418 0 492 0 0.156117 0.987739<11.5526 666.168>
LayerCount: 2
Fore
SplineSet
193 501 m 2
 182 431 236 429 260 429 c 2
 317 429 l 1
 354 661 l 1
 300 661 l 2
 235 661 213 631 207 590 c 2
 193 501 l 2
118 499 m 2
 132 592 l 2
 150 706 235 732 312 732 c 2
 677 732 l 1
 665 656 l 1
 596 656 l 1
 492 0 l 1
 418 0 l 1
 522 658 l 1
 428 658 l 1
 281 -270 l 1
 207 -270 l 1
 309 372 l 1
 303 370 273 355 248 355 c 0
 139 355 108 437 118 499 c 2
EndSplineSet
EndChar

StartChar: macron
Encoding: 175 175 280
Width: 392
VWidth: 0
Flags: HW
HStem: 531 63<144 426>
VStem: 134 302
LayerCount: 2
Fore
SplineSet
134 531 m 1
 144 594 l 1
 436 594 l 1
 426 531 l 1
 134 531 l 1
EndSplineSet
Substitution2: "'smcp' Lowercase to Small Capitals lookup 16-1" macron.smcp
EndChar

StartChar: copyright
Encoding: 169 169 281
Width: 805
VWidth: 0
Flags: HW
HStem: 0 64<232.561 614.665> 147 64<358.429 559.818> 519 64<402.111 625.998> 668 64<306.725 717.411>
LayerCount: 2
Fore
SplineSet
286 365 m 0
 315 542 383 583 464 583 c 0
 505 583 584 569 638 559 c 1
 630 507 l 1
 568 516 487 519 454 519 c 0
 400 519 366 467 349 362 c 0
 336 278 338 211 405 211 c 0
 477 211 556 222 592 227 c 1
 584 175 l 1
 517 157 462 147 395 147 c 0
 316 147 261 211 286 365 c 0
174 368 m 0
 151 225 177 64 291 64 c 2
 557 64 l 2
 635 64 715 164 747 368 c 0
 766 488 786 668 655 668 c 2
 385 668 l 2
 297 668 212 610 174 368 c 0
110 368 m 0
 137 546 203 732 395 732 c 2
 655 732 l 2
 847 732 831 492 811 368 c 0
 780 175 700 0 549 0 c 2
 289 0 l 2
 97 0 94 261 110 368 c 0
EndSplineSet
EndChar

StartChar: registered
Encoding: 174 174 282
Width: 805
VWidth: 0
Flags: HW
HStem: 0 64<232.561 614.665> 335 44<382 419.917> 516 64<404 571.051> 668 64<306.725 717.411>
DStem2: 282 153 346 153 0.157269 0.987556<10.0652 194.361 238.914 377.67> 524 321 452 323 0.35233 -0.935876<0 154.409>
LayerCount: 2
Fore
SplineSet
382 379 m 1
 501 379 l 2
 553 379 567 392 576 451 c 0
 586 514 549 516 523 516 c 2
 404 516 l 1
 382 379 l 1
282 153 m 1
 350 580 l 1
 527 580 l 2
 579 580 653 556 640 446 c 0
 626 321 559 328 524 321 c 1
 588 153 l 1
 516 153 l 1
 452 323 l 1
 375 335 l 1
 346 153 l 1
 282 153 l 1
174 368 m 0
 151 225 177 64 291 64 c 2
 557 64 l 2
 635 64 715 164 747 368 c 0
 766 488 786 668 655 668 c 2
 385 668 l 2
 297 668 212 610 174 368 c 0
110 368 m 0
 137 546 203 732 395 732 c 2
 655 732 l 2
 847 732 831 492 811 368 c 0
 780 175 700 0 549 0 c 2
 289 0 l 2
 97 0 94 261 110 368 c 0
EndSplineSet
EndChar

